<svg xmlns="http://www.w3.org/2000/svg" xmlns:xlink="http://www.w3.org/1999/xlink" zoomAndPan="magnify" preserveAspectRatio="xMidYMid meet" version="1.0" viewBox="55 135.66 237.66 30.75"><defs><clipPath id="ecd8a42643"><path d="M 284 159 L 290 159 L 290 166.414062 L 284 166.414062 Z M 284 159 " clip-rule="nonzero"/></clipPath><clipPath id="de34366901"><path d="M 276 135.664062 L 292.65625 135.664062 L 292.65625 164 L 276 164 Z M 276 135.664062 " clip-rule="nonzero"/></clipPath><clipPath id="688404f048"><path d="M 259 159 L 265 159 L 265 166.414062 L 259 166.414062 Z M 259 159 " clip-rule="nonzero"/></clipPath><clipPath id="abe5dd5ec6"><path d="M 252 135.664062 L 268 135.664062 L 268 164 L 252 164 Z M 252 135.664062 " clip-rule="nonzero"/></clipPath><clipPath id="d687c4c816"><path d="M 234 159 L 241 159 L 241 166.414062 L 234 166.414062 Z M 234 159 " clip-rule="nonzero"/></clipPath><clipPath id="57c4f169b4"><path d="M 227 135.664062 L 244 135.664062 L 244 164 L 227 164 Z M 227 135.664062 " clip-rule="nonzero"/></clipPath><clipPath id="ad2085f931"><path d="M 210 159 L 216 159 L 216 166.414062 L 210 166.414062 Z M 210 159 " clip-rule="nonzero"/></clipPath><clipPath id="21a928545d"><path d="M 202 135.664062 L 219 135.664062 L 219 164 L 202 164 Z M 202 135.664062 " clip-rule="nonzero"/></clipPath><clipPath id="e43c7d479c"><path d="M 185 159 L 192 159 L 192 166.414062 L 185 166.414062 Z M 185 159 " clip-rule="nonzero"/></clipPath><clipPath id="237f9832e3"><path d="M 178 135.664062 L 194 135.664062 L 194 164 L 178 164 Z M 178 135.664062 " clip-rule="nonzero"/></clipPath><clipPath id="839f8d89c1"><path d="M 160 159 L 167 159 L 167 166.414062 L 160 166.414062 Z M 160 159 " clip-rule="nonzero"/></clipPath><clipPath id="eaa7f146bb"><path d="M 153 135.664062 L 170 135.664062 L 170 164 L 153 164 Z M 153 135.664062 " clip-rule="nonzero"/></clipPath><clipPath id="556708241b"><path d="M 136 159 L 142 159 L 142 166.414062 L 136 166.414062 Z M 136 159 " clip-rule="nonzero"/></clipPath><clipPath id="4d3510b95b"><path d="M 128 135.664062 L 145 135.664062 L 145 164 L 128 164 Z M 128 135.664062 " clip-rule="nonzero"/></clipPath><clipPath id="38670897c1"><path d="M 111 159 L 118 159 L 118 166.414062 L 111 166.414062 Z M 111 159 " clip-rule="nonzero"/></clipPath><clipPath id="1e238dc9cb"><path d="M 104 135.664062 L 121 135.664062 L 121 164 L 104 164 Z M 104 135.664062 " clip-rule="nonzero"/></clipPath><clipPath id="02908e2516"><path d="M 87 159 L 93 159 L 93 166.414062 L 87 166.414062 Z M 87 159 " clip-rule="nonzero"/></clipPath><clipPath id="dc13e08ba9"><path d="M 79 135.664062 L 96 135.664062 L 96 164 L 79 164 Z M 79 135.664062 " clip-rule="nonzero"/></clipPath><clipPath id="d5554103d2"><path d="M 62 159 L 69 159 L 69 166.414062 L 62 166.414062 Z M 62 159 " clip-rule="nonzero"/></clipPath><clipPath id="7bdfbe7a89"><path d="M 55 135.664062 L 71 135.664062 L 71 164 L 55 164 Z M 55 135.664062 " clip-rule="nonzero"/></clipPath></defs><g clip-path="url(#ecd8a42643)"><path fill="#000000" d="M 286.835938 166.414062 C 286.46875 166.414062 286.117188 166.328125 285.777344 166.160156 C 285.4375 165.992188 285.136719 165.753906 284.875 165.441406 C 284.617188 165.128906 284.417969 164.773438 284.277344 164.367188 C 284.136719 163.960938 284.066406 163.535156 284.066406 163.097656 C 284.066406 162.65625 284.136719 162.234375 284.277344 161.828125 C 284.417969 161.421875 284.617188 161.0625 284.875 160.753906 C 285.136719 160.441406 285.4375 160.203125 285.777344 160.035156 C 286.117188 159.867188 286.46875 159.78125 286.835938 159.78125 C 287.203125 159.78125 287.558594 159.867188 287.898438 160.035156 C 288.238281 160.203125 288.535156 160.441406 288.796875 160.753906 C 289.054688 161.0625 289.257812 161.421875 289.398438 161.828125 C 289.539062 162.234375 289.609375 162.65625 289.609375 163.097656 C 289.609375 163.535156 289.539062 163.960938 289.398438 164.367188 C 289.257812 164.773438 289.054688 165.128906 288.796875 165.441406 C 288.535156 165.753906 288.238281 165.992188 287.898438 166.160156 C 287.558594 166.328125 287.203125 166.414062 286.835938 166.414062 Z M 286.835938 166.414062 " fill-opacity="1" fill-rule="nonzero"/></g><g clip-path="url(#de34366901)"><path fill="#ffb4c8" d="M 287.371094 159.78125 C 288.085938 159.941406 289.605469 161.144531 288.839844 161.644531 C 287.953125 162.214844 285.527344 163.296875 284.546875 163.296875 C 282.722656 163.296875 280.980469 162.25 279.609375 160.335938 C 277.855469 157.886719 276.671875 153.9375 276.671875 149.476562 C 276.671875 145.019531 277.855469 141.070312 279.609375 138.621094 C 280.980469 136.707031 282.722656 135.660156 284.546875 135.660156 C 286.375 135.660156 288.117188 136.707031 289.488281 138.621094 C 291.242188 141.070312 292.421875 145.019531 292.421875 149.476562 C 292.421875 149.566406 292.421875 149.652344 292.421875 149.742188 L 289.8125 149.742188 C 289.8125 149.652344 289.816406 149.566406 289.816406 149.476562 C 289.816406 145.65625 288.875 142.253906 287.371094 140.152344 C 286.5625 139.027344 285.621094 138.28125 284.546875 138.28125 C 283.472656 138.28125 282.53125 139.027344 281.726562 140.152344 C 280.222656 142.253906 279.28125 145.65625 279.28125 149.476562 C 279.28125 153.300781 280.222656 156.703125 281.726562 158.804688 C 282.53125 159.929688 283.472656 160.671875 284.546875 160.671875 C 285.230469 160.671875 286.652344 159.621094 287.371094 159.78125 Z M 287.371094 159.78125 " fill-opacity="1" fill-rule="evenodd"/></g><g clip-path="url(#688404f048)"><path fill="#000000" d="M 262.222656 166.414062 C 261.855469 166.414062 261.5 166.328125 261.160156 166.160156 C 260.820312 165.992188 260.523438 165.753906 260.261719 165.441406 C 260.003906 165.128906 259.800781 164.773438 259.660156 164.367188 C 259.519531 163.960938 259.449219 163.535156 259.449219 163.097656 C 259.449219 162.65625 259.519531 162.234375 259.660156 161.828125 C 259.800781 161.421875 260.003906 161.0625 260.261719 160.753906 C 260.523438 160.441406 260.820312 160.203125 261.160156 160.035156 C 261.5 159.867188 261.855469 159.78125 262.222656 159.78125 C 262.589844 159.78125 262.945312 159.867188 263.28125 160.035156 C 263.621094 160.203125 263.921875 160.441406 264.183594 160.753906 C 264.441406 161.0625 264.640625 161.421875 264.78125 161.828125 C 264.921875 162.234375 264.992188 162.65625 264.992188 163.097656 C 264.992188 163.535156 264.921875 163.960938 264.78125 164.367188 C 264.640625 164.773438 264.441406 165.128906 264.183594 165.441406 C 263.921875 165.753906 263.621094 165.992188 263.28125 166.160156 C 262.945312 166.328125 262.589844 166.414062 262.222656 166.414062 Z M 262.222656 166.414062 " fill-opacity="1" fill-rule="nonzero"/></g><g clip-path="url(#abe5dd5ec6)"><path fill="#ffb4c8" d="M 262.753906 159.78125 C 263.46875 159.941406 264.992188 161.144531 264.226562 161.644531 C 263.339844 162.214844 260.914062 163.296875 259.933594 163.296875 C 258.105469 163.296875 256.367188 162.25 254.996094 160.335938 C 253.238281 157.886719 252.058594 153.9375 252.058594 149.476562 C 252.058594 145.019531 253.238281 141.070312 254.996094 138.621094 C 256.367188 136.707031 258.105469 135.660156 259.933594 135.660156 C 261.761719 135.660156 263.503906 136.707031 264.871094 138.621094 C 266.628906 141.070312 267.808594 145.019531 267.808594 149.476562 C 267.808594 149.566406 267.808594 149.652344 267.808594 149.742188 L 265.199219 149.742188 C 265.199219 149.652344 265.199219 149.566406 265.199219 149.476562 C 265.199219 145.65625 264.261719 142.253906 262.753906 140.152344 C 261.949219 139.027344 261.007812 138.28125 259.933594 138.28125 C 258.859375 138.28125 257.917969 139.027344 257.113281 140.152344 C 255.605469 142.253906 254.667969 145.65625 254.667969 149.476562 C 254.667969 153.300781 255.605469 156.703125 257.113281 158.804688 C 257.917969 159.929688 258.859375 160.671875 259.933594 160.671875 C 260.617188 160.671875 262.039062 159.621094 262.753906 159.78125 Z M 262.753906 159.78125 " fill-opacity="1" fill-rule="evenodd"/></g><g clip-path="url(#d687c4c816)"><path fill="#000000" d="M 237.609375 166.414062 C 237.242188 166.414062 236.886719 166.328125 236.546875 166.160156 C 236.207031 165.992188 235.90625 165.753906 235.648438 165.441406 C 235.386719 165.128906 235.1875 164.773438 235.046875 164.367188 C 234.90625 163.960938 234.835938 163.535156 234.835938 163.097656 C 234.835938 162.65625 234.90625 162.234375 235.046875 161.828125 C 235.1875 161.421875 235.386719 161.0625 235.648438 160.753906 C 235.90625 160.441406 236.207031 160.203125 236.546875 160.035156 C 236.886719 159.867188 237.242188 159.78125 237.609375 159.78125 C 237.976562 159.78125 238.328125 159.867188 238.667969 160.035156 C 239.007812 160.203125 239.308594 160.441406 239.566406 160.753906 C 239.828125 161.0625 240.027344 161.421875 240.167969 161.828125 C 240.308594 162.234375 240.378906 162.65625 240.378906 163.097656 C 240.378906 163.535156 240.308594 163.960938 240.167969 164.367188 C 240.027344 164.773438 239.828125 165.128906 239.566406 165.441406 C 239.308594 165.753906 239.007812 165.992188 238.667969 166.160156 C 238.328125 166.328125 237.976562 166.414062 237.609375 166.414062 Z M 237.609375 166.414062 " fill-opacity="1" fill-rule="nonzero"/></g><g clip-path="url(#57c4f169b4)"><path fill="#ffb4c8" d="M 238.140625 159.78125 C 238.855469 159.941406 240.378906 161.144531 239.613281 161.644531 C 238.726562 162.214844 236.300781 163.296875 235.320312 163.296875 C 233.492188 163.296875 231.75 162.25 230.382812 160.335938 C 228.625 157.886719 227.445312 153.9375 227.445312 149.476562 C 227.445312 145.019531 228.625 141.070312 230.382812 138.621094 C 231.75 136.707031 233.492188 135.660156 235.320312 135.660156 C 237.148438 135.660156 238.886719 136.707031 240.257812 138.621094 C 242.015625 141.070312 243.195312 145.019531 243.195312 149.476562 C 243.195312 149.566406 243.195312 149.652344 243.195312 149.742188 L 240.585938 149.742188 C 240.585938 149.652344 240.585938 149.566406 240.585938 149.476562 C 240.585938 145.65625 239.648438 142.253906 238.140625 140.152344 C 237.335938 139.027344 236.394531 138.28125 235.320312 138.28125 C 234.246094 138.28125 233.304688 139.027344 232.5 140.152344 C 230.992188 142.253906 230.054688 145.65625 230.054688 149.476562 C 230.054688 153.300781 230.992188 156.703125 232.5 158.804688 C 233.304688 159.929688 234.246094 160.671875 235.320312 160.671875 C 236.003906 160.671875 237.425781 159.621094 238.140625 159.78125 Z M 238.140625 159.78125 " fill-opacity="1" fill-rule="evenodd"/></g><g clip-path="url(#ad2085f931)"><path fill="#000000" d="M 212.992188 166.414062 C 212.625 166.414062 212.273438 166.328125 211.933594 166.160156 C 211.59375 165.992188 211.292969 165.753906 211.035156 165.441406 C 210.773438 165.128906 210.574219 164.773438 210.433594 164.367188 C 210.292969 163.960938 210.222656 163.535156 210.222656 163.097656 C 210.222656 162.65625 210.292969 162.234375 210.433594 161.828125 C 210.574219 161.421875 210.773438 161.0625 211.035156 160.753906 C 211.292969 160.441406 211.59375 160.203125 211.933594 160.035156 C 212.273438 159.867188 212.625 159.78125 212.992188 159.78125 C 213.359375 159.78125 213.714844 159.867188 214.054688 160.035156 C 214.394531 160.203125 214.695312 160.441406 214.953125 160.753906 C 215.214844 161.0625 215.414062 161.421875 215.554688 161.828125 C 215.695312 162.234375 215.765625 162.65625 215.765625 163.097656 C 215.765625 163.535156 215.695312 163.960938 215.554688 164.367188 C 215.414062 164.773438 215.214844 165.128906 214.953125 165.441406 C 214.695312 165.753906 214.394531 165.992188 214.054688 166.160156 C 213.714844 166.328125 213.359375 166.414062 212.992188 166.414062 Z M 212.992188 166.414062 " fill-opacity="1" fill-rule="nonzero"/></g><g clip-path="url(#21a928545d)"><path fill="#ffb4c8" d="M 213.527344 159.78125 C 214.242188 159.941406 215.765625 161.144531 214.996094 161.644531 C 214.113281 162.214844 211.683594 163.296875 210.707031 163.296875 C 208.878906 163.296875 207.136719 162.25 205.765625 160.335938 C 204.011719 157.886719 202.832031 153.9375 202.832031 149.476562 C 202.832031 145.019531 204.011719 141.070312 205.765625 138.621094 C 207.136719 136.707031 208.878906 135.660156 210.707031 135.660156 C 212.53125 135.660156 214.273438 136.707031 215.644531 138.621094 C 217.398438 141.070312 218.582031 145.019531 218.582031 149.476562 C 218.582031 149.566406 218.578125 149.652344 218.578125 149.742188 L 215.96875 149.742188 C 215.972656 149.652344 215.972656 149.566406 215.972656 149.476562 C 215.972656 145.65625 215.03125 142.253906 213.527344 140.152344 C 212.722656 139.027344 211.78125 138.28125 210.707031 138.28125 C 209.632812 138.28125 208.691406 139.027344 207.882812 140.152344 C 206.378906 142.253906 205.4375 145.65625 205.4375 149.476562 C 205.4375 153.300781 206.378906 156.703125 207.882812 158.804688 C 208.691406 159.929688 209.632812 160.671875 210.707031 160.671875 C 211.386719 160.671875 212.8125 159.621094 213.527344 159.78125 Z M 213.527344 159.78125 " fill-opacity="1" fill-rule="evenodd"/></g><g clip-path="url(#e43c7d479c)"><path fill="#000000" d="M 188.378906 166.414062 C 188.011719 166.414062 187.660156 166.328125 187.320312 166.160156 C 186.980469 165.992188 186.679688 165.753906 186.417969 165.441406 C 186.160156 165.128906 185.960938 164.773438 185.820312 164.367188 C 185.679688 163.960938 185.609375 163.535156 185.609375 163.097656 C 185.609375 162.65625 185.679688 162.234375 185.820312 161.828125 C 185.960938 161.421875 186.160156 161.0625 186.417969 160.753906 C 186.679688 160.441406 186.980469 160.203125 187.320312 160.035156 C 187.660156 159.867188 188.011719 159.78125 188.378906 159.78125 C 188.746094 159.78125 189.101562 159.867188 189.441406 160.035156 C 189.78125 160.203125 190.078125 160.441406 190.339844 160.753906 C 190.597656 161.0625 190.800781 161.421875 190.941406 161.828125 C 191.082031 162.234375 191.152344 162.65625 191.152344 163.097656 C 191.152344 163.535156 191.082031 163.960938 190.941406 164.367188 C 190.800781 164.773438 190.597656 165.128906 190.339844 165.441406 C 190.078125 165.753906 189.78125 165.992188 189.441406 166.160156 C 189.101562 166.328125 188.746094 166.414062 188.378906 166.414062 Z M 188.378906 166.414062 " fill-opacity="1" fill-rule="nonzero"/></g><g clip-path="url(#237f9832e3)"><path fill="#ffb4c8" d="M 188.910156 159.78125 C 189.628906 159.941406 191.148438 161.144531 190.382812 161.644531 C 189.496094 162.214844 187.070312 163.296875 186.089844 163.296875 C 184.261719 163.296875 182.523438 162.25 181.152344 160.335938 C 179.394531 157.886719 178.214844 153.9375 178.214844 149.476562 C 178.214844 145.019531 179.394531 141.070312 181.152344 138.621094 C 182.523438 136.707031 184.261719 135.660156 186.089844 135.660156 C 187.917969 135.660156 189.660156 136.707031 191.027344 138.621094 C 192.785156 141.070312 193.964844 145.019531 193.964844 149.476562 C 193.964844 149.566406 193.964844 149.652344 193.964844 149.742188 L 191.355469 149.742188 C 191.355469 149.652344 191.359375 149.566406 191.359375 149.476562 C 191.359375 145.65625 190.417969 142.253906 188.910156 140.152344 C 188.105469 139.027344 187.164062 138.28125 186.089844 138.28125 C 185.015625 138.28125 184.074219 139.027344 183.269531 140.152344 C 181.765625 142.253906 180.824219 145.65625 180.824219 149.476562 C 180.824219 153.300781 181.765625 156.703125 183.269531 158.804688 C 184.074219 159.929688 185.015625 160.671875 186.089844 160.671875 C 186.773438 160.671875 188.195312 159.621094 188.910156 159.78125 Z M 188.910156 159.78125 " fill-opacity="1" fill-rule="evenodd"/></g><g clip-path="url(#839f8d89c1)"><path fill="#000000" d="M 163.765625 166.414062 C 163.398438 166.414062 163.042969 166.328125 162.703125 166.160156 C 162.363281 165.992188 162.066406 165.753906 161.804688 165.441406 C 161.546875 165.128906 161.34375 164.773438 161.203125 164.367188 C 161.0625 163.960938 160.992188 163.535156 160.992188 163.097656 C 160.992188 162.65625 161.0625 162.234375 161.203125 161.828125 C 161.34375 161.421875 161.546875 161.0625 161.804688 160.753906 C 162.066406 160.441406 162.363281 160.203125 162.703125 160.035156 C 163.042969 159.867188 163.398438 159.78125 163.765625 159.78125 C 164.132812 159.78125 164.484375 159.867188 164.824219 160.035156 C 165.164062 160.203125 165.464844 160.441406 165.726562 160.753906 C 165.984375 161.0625 166.183594 161.421875 166.324219 161.828125 C 166.464844 162.234375 166.535156 162.65625 166.535156 163.097656 C 166.535156 163.535156 166.464844 163.960938 166.324219 164.367188 C 166.183594 164.773438 165.984375 165.128906 165.726562 165.441406 C 165.464844 165.753906 165.164062 165.992188 164.824219 166.160156 C 164.484375 166.328125 164.132812 166.414062 163.765625 166.414062 Z M 163.765625 166.414062 " fill-opacity="1" fill-rule="nonzero"/></g><g clip-path="url(#eaa7f146bb)"><path fill="#ffb4c8" d="M 164.296875 159.78125 C 165.011719 159.941406 166.535156 161.144531 165.769531 161.644531 C 164.882812 162.214844 162.457031 163.296875 161.476562 163.296875 C 159.648438 163.296875 157.910156 162.25 156.539062 160.335938 C 154.78125 157.886719 153.601562 153.9375 153.601562 149.476562 C 153.601562 145.019531 154.78125 141.070312 156.539062 138.621094 C 157.910156 136.707031 159.648438 135.660156 161.476562 135.660156 C 163.304688 135.660156 165.042969 136.707031 166.414062 138.621094 C 168.171875 141.070312 169.351562 145.019531 169.351562 149.476562 C 169.351562 149.566406 169.351562 149.652344 169.351562 149.742188 L 166.742188 149.742188 C 166.742188 149.652344 166.742188 149.566406 166.742188 149.476562 C 166.742188 145.65625 165.804688 142.253906 164.296875 140.152344 C 163.492188 139.027344 162.550781 138.28125 161.476562 138.28125 C 160.402344 138.28125 159.460938 139.027344 158.65625 140.152344 C 157.148438 142.253906 156.210938 145.65625 156.210938 149.476562 C 156.210938 153.300781 157.148438 156.703125 158.65625 158.804688 C 159.460938 159.929688 160.402344 160.671875 161.476562 160.671875 C 162.160156 160.671875 163.582031 159.621094 164.296875 159.78125 Z M 164.296875 159.78125 " fill-opacity="1" fill-rule="evenodd"/></g><g clip-path="url(#556708241b)"><path fill="#000000" d="M 139.152344 166.414062 C 138.78125 166.414062 138.429688 166.328125 138.089844 166.160156 C 137.75 165.992188 137.449219 165.753906 137.191406 165.441406 C 136.929688 165.128906 136.730469 164.773438 136.589844 164.367188 C 136.449219 163.960938 136.378906 163.535156 136.378906 163.097656 C 136.378906 162.65625 136.449219 162.234375 136.589844 161.828125 C 136.730469 161.421875 136.929688 161.0625 137.191406 160.753906 C 137.449219 160.441406 137.75 160.203125 138.089844 160.035156 C 138.429688 159.867188 138.78125 159.78125 139.152344 159.78125 C 139.519531 159.78125 139.871094 159.867188 140.210938 160.035156 C 140.550781 160.203125 140.851562 160.441406 141.109375 160.753906 C 141.371094 161.0625 141.570312 161.421875 141.710938 161.828125 C 141.851562 162.234375 141.921875 162.65625 141.921875 163.097656 C 141.921875 163.535156 141.851562 163.960938 141.710938 164.367188 C 141.570312 164.773438 141.371094 165.128906 141.109375 165.441406 C 140.851562 165.753906 140.550781 165.992188 140.210938 166.160156 C 139.871094 166.328125 139.519531 166.414062 139.152344 166.414062 Z M 139.152344 166.414062 " fill-opacity="1" fill-rule="nonzero"/></g><g clip-path="url(#4d3510b95b)"><path fill="#ffb4c8" d="M 139.683594 159.78125 C 140.398438 159.941406 141.921875 161.144531 141.15625 161.644531 C 140.269531 162.214844 137.84375 163.296875 136.863281 163.296875 C 135.035156 163.296875 133.292969 162.25 131.925781 160.335938 C 130.167969 157.886719 128.988281 153.9375 128.988281 149.476562 C 128.988281 145.019531 130.167969 141.070312 131.925781 138.621094 C 133.292969 136.707031 135.035156 135.660156 136.863281 135.660156 C 138.691406 135.660156 140.429688 136.707031 141.800781 138.621094 C 143.558594 141.070312 144.738281 145.019531 144.738281 149.476562 C 144.738281 149.566406 144.738281 149.652344 144.734375 149.742188 L 142.128906 149.742188 C 142.128906 149.652344 142.128906 149.566406 142.128906 149.476562 C 142.128906 145.65625 141.1875 142.253906 139.683594 140.152344 C 138.878906 139.027344 137.9375 138.28125 136.863281 138.28125 C 135.789062 138.28125 134.847656 139.027344 134.042969 140.152344 C 132.535156 142.253906 131.597656 145.65625 131.597656 149.476562 C 131.597656 153.300781 132.535156 156.703125 134.042969 158.804688 C 134.847656 159.929688 135.789062 160.671875 136.863281 160.671875 C 137.546875 160.671875 138.96875 159.621094 139.683594 159.78125 Z M 139.683594 159.78125 " fill-opacity="1" fill-rule="evenodd"/></g><g clip-path="url(#38670897c1)"><path fill="#000000" d="M 114.535156 166.414062 C 114.167969 166.414062 113.816406 166.328125 113.476562 166.160156 C 113.136719 165.992188 112.835938 165.753906 112.578125 165.441406 C 112.316406 165.128906 112.117188 164.773438 111.976562 164.367188 C 111.835938 163.960938 111.765625 163.535156 111.765625 163.097656 C 111.765625 162.65625 111.835938 162.234375 111.976562 161.828125 C 112.117188 161.421875 112.316406 161.0625 112.578125 160.753906 C 112.835938 160.441406 113.136719 160.203125 113.476562 160.035156 C 113.816406 159.867188 114.167969 159.78125 114.535156 159.78125 C 114.902344 159.78125 115.257812 159.867188 115.597656 160.035156 C 115.9375 160.203125 116.238281 160.441406 116.496094 160.753906 C 116.757812 161.0625 116.957031 161.421875 117.097656 161.828125 C 117.238281 162.234375 117.308594 162.65625 117.308594 163.097656 C 117.308594 163.535156 117.238281 163.960938 117.097656 164.367188 C 116.957031 164.773438 116.757812 165.128906 116.496094 165.441406 C 116.238281 165.753906 115.9375 165.992188 115.597656 166.160156 C 115.257812 166.328125 114.902344 166.414062 114.535156 166.414062 Z M 114.535156 166.414062 " fill-opacity="1" fill-rule="nonzero"/></g><g clip-path="url(#1e238dc9cb)"><path fill="#ffb4c8" d="M 115.070312 159.78125 C 115.785156 159.941406 117.308594 161.144531 116.539062 161.644531 C 115.652344 162.214844 113.226562 163.296875 112.25 163.296875 C 110.421875 163.296875 108.679688 162.25 107.308594 160.335938 C 105.554688 157.886719 104.375 153.9375 104.375 149.476562 C 104.375 145.019531 105.554688 141.070312 107.308594 138.621094 C 108.679688 136.707031 110.421875 135.660156 112.25 135.660156 C 114.074219 135.660156 115.816406 136.707031 117.1875 138.621094 C 118.941406 141.070312 120.125 145.019531 120.125 149.476562 C 120.125 149.566406 120.121094 149.652344 120.121094 149.742188 L 117.511719 149.742188 C 117.515625 149.652344 117.515625 149.566406 117.515625 149.476562 C 117.515625 145.65625 116.574219 142.253906 115.070312 140.152344 C 114.265625 139.027344 113.324219 138.28125 112.25 138.28125 C 111.175781 138.28125 110.234375 139.027344 109.425781 140.152344 C 107.921875 142.253906 106.980469 145.65625 106.980469 149.476562 C 106.980469 153.300781 107.921875 156.703125 109.425781 158.804688 C 110.234375 159.929688 111.175781 160.671875 112.25 160.671875 C 112.929688 160.671875 114.355469 159.621094 115.070312 159.78125 Z M 115.070312 159.78125 " fill-opacity="1" fill-rule="evenodd"/></g><g clip-path="url(#02908e2516)"><path fill="#000000" d="M 89.921875 166.414062 C 89.554688 166.414062 89.199219 166.328125 88.863281 166.160156 C 88.523438 165.992188 88.222656 165.753906 87.960938 165.441406 C 87.703125 165.128906 87.503906 164.773438 87.363281 164.367188 C 87.222656 163.960938 87.152344 163.535156 87.152344 163.097656 C 87.152344 162.65625 87.222656 162.234375 87.363281 161.828125 C 87.503906 161.421875 87.703125 161.0625 87.960938 160.753906 C 88.222656 160.441406 88.523438 160.203125 88.863281 160.035156 C 89.199219 159.867188 89.554688 159.78125 89.921875 159.78125 C 90.289062 159.78125 90.644531 159.867188 90.984375 160.035156 C 91.324219 160.203125 91.621094 160.441406 91.882812 160.753906 C 92.140625 161.0625 92.34375 161.421875 92.484375 161.828125 C 92.625 162.234375 92.695312 162.65625 92.695312 163.097656 C 92.695312 163.535156 92.625 163.960938 92.484375 164.367188 C 92.34375 164.773438 92.140625 165.128906 91.882812 165.441406 C 91.621094 165.753906 91.324219 165.992188 90.984375 166.160156 C 90.644531 166.328125 90.289062 166.414062 89.921875 166.414062 Z M 89.921875 166.414062 " fill-opacity="1" fill-rule="nonzero"/></g><g clip-path="url(#dc13e08ba9)"><path fill="#ffb4c8" d="M 90.453125 159.78125 C 91.171875 159.941406 92.691406 161.144531 91.925781 161.644531 C 91.039062 162.214844 88.613281 163.296875 87.632812 163.296875 C 85.804688 163.296875 84.066406 162.25 82.695312 160.335938 C 80.9375 157.886719 79.757812 153.9375 79.757812 149.476562 C 79.757812 145.019531 80.9375 141.070312 82.695312 138.621094 C 84.066406 136.707031 85.804688 135.660156 87.632812 135.660156 C 89.460938 135.660156 91.203125 136.707031 92.570312 138.621094 C 94.328125 141.070312 95.507812 145.019531 95.507812 149.476562 C 95.507812 149.566406 95.507812 149.652344 95.507812 149.742188 L 92.898438 149.742188 C 92.898438 149.652344 92.898438 149.566406 92.898438 149.476562 C 92.898438 145.65625 91.960938 142.253906 90.453125 140.152344 C 89.648438 139.027344 88.707031 138.28125 87.632812 138.28125 C 86.558594 138.28125 85.617188 139.027344 84.8125 140.152344 C 83.308594 142.253906 82.367188 145.65625 82.367188 149.476562 C 82.367188 153.300781 83.308594 156.703125 84.8125 158.804688 C 85.617188 159.929688 86.558594 160.671875 87.632812 160.671875 C 88.316406 160.671875 89.738281 159.621094 90.453125 159.78125 Z M 90.453125 159.78125 " fill-opacity="1" fill-rule="evenodd"/></g><g clip-path="url(#d5554103d2)"><path fill="#000000" d="M 65.308594 166.414062 C 64.941406 166.414062 64.585938 166.328125 64.246094 166.160156 C 63.90625 165.992188 63.609375 165.753906 63.347656 165.441406 C 63.089844 165.128906 62.886719 164.773438 62.746094 164.367188 C 62.605469 163.960938 62.535156 163.535156 62.535156 163.097656 C 62.535156 162.65625 62.605469 162.234375 62.746094 161.828125 C 62.886719 161.421875 63.089844 161.0625 63.347656 160.753906 C 63.609375 160.441406 63.90625 160.203125 64.246094 160.035156 C 64.585938 159.867188 64.941406 159.78125 65.308594 159.78125 C 65.675781 159.78125 66.027344 159.867188 66.367188 160.035156 C 66.707031 160.203125 67.007812 160.441406 67.265625 160.753906 C 67.527344 161.0625 67.726562 161.421875 67.867188 161.828125 C 68.007812 162.234375 68.078125 162.65625 68.078125 163.097656 C 68.078125 163.535156 68.007812 163.960938 67.867188 164.367188 C 67.726562 164.773438 67.527344 165.128906 67.265625 165.441406 C 67.007812 165.753906 66.707031 165.992188 66.367188 166.160156 C 66.027344 166.328125 65.675781 166.414062 65.308594 166.414062 Z M 65.308594 166.414062 " fill-opacity="1" fill-rule="nonzero"/></g><g clip-path="url(#7bdfbe7a89)"><path fill="#ffb4c8" d="M 65.839844 159.78125 C 66.554688 159.941406 68.078125 161.144531 67.3125 161.644531 C 66.425781 162.214844 64 163.296875 63.019531 163.296875 C 61.191406 163.296875 59.453125 162.25 58.082031 160.335938 C 56.324219 157.886719 55.144531 153.9375 55.144531 149.476562 C 55.144531 145.019531 56.324219 141.070312 58.082031 138.621094 C 59.453125 136.707031 61.191406 135.660156 63.019531 135.660156 C 64.847656 135.660156 66.585938 136.707031 67.957031 138.621094 C 69.714844 141.070312 70.894531 145.019531 70.894531 149.476562 C 70.894531 149.566406 70.894531 149.652344 70.894531 149.742188 L 68.285156 149.742188 C 68.285156 149.652344 68.285156 149.566406 68.285156 149.476562 C 68.285156 145.65625 67.347656 142.253906 65.839844 140.152344 C 65.035156 139.027344 64.09375 138.28125 63.019531 138.28125 C 61.945312 138.28125 61.003906 139.027344 60.199219 140.152344 C 58.691406 142.253906 57.753906 145.65625 57.753906 149.476562 C 57.753906 153.300781 58.691406 156.703125 60.199219 158.804688 C 61.003906 159.929688 61.945312 160.671875 63.019531 160.671875 C 63.703125 160.671875 65.125 159.621094 65.839844 159.78125 Z M 65.839844 159.78125 " fill-opacity="1" fill-rule="evenodd"/></g></svg>