<svg xmlns="http://www.w3.org/2000/svg" xmlns:xlink="http://www.w3.org/1999/xlink" width="500" zoomAndPan="magnify" viewBox="0 0 375 374.999991" height="500" preserveAspectRatio="xMidYMid meet" version="1.0"><defs><clipPath id="80614f26c6"><path d="M 81.304688 146 L 219 146 L 219 283.710938 L 81.304688 283.710938 Z M 81.304688 146 " clip-rule="nonzero"/></clipPath><clipPath id="8696b456c3"><path d="M 194 81.960938 L 283.054688 81.960938 L 283.054688 171 L 194 171 Z M 194 81.960938 " clip-rule="nonzero"/></clipPath></defs><g clip-path="url(#80614f26c6)"><path fill="#000000" d="M 215.121094 200.371094 L 205.316406 198.757812 C 204.164062 194.851562 202.613281 191.109375 200.667969 187.535156 L 206.4375 179.464844 C 206.714844 179.074219 206.917969 178.652344 207.042969 178.191406 C 207.171875 177.730469 207.214844 177.261719 207.175781 176.785156 C 207.136719 176.308594 207.019531 175.855469 206.816406 175.421875 C 206.617188 174.988281 206.347656 174.605469 206.011719 174.265625 L 190.789062 159.046875 C 190.453125 158.707031 190.066406 158.441406 189.632812 158.238281 C 189.199219 158.039062 188.746094 157.917969 188.269531 157.878906 C 187.792969 157.839844 187.328125 157.882812 186.867188 158.011719 C 186.40625 158.136719 185.980469 158.339844 185.59375 158.617188 L 177.523438 164.386719 C 173.945312 162.441406 170.203125 160.890625 166.296875 159.738281 L 164.683594 149.933594 C 164.605469 149.464844 164.449219 149.019531 164.210938 148.605469 C 163.976562 148.1875 163.675781 147.824219 163.308594 147.515625 C 162.945312 147.207031 162.539062 146.972656 162.089844 146.808594 C 161.640625 146.644531 161.175781 146.5625 160.699219 146.5625 L 139.140625 146.5625 C 138.664062 146.5625 138.199219 146.644531 137.75 146.808594 C 137.300781 146.972656 136.894531 147.207031 136.53125 147.515625 C 136.164062 147.824219 135.863281 148.1875 135.628906 148.605469 C 135.390625 149.019531 135.234375 149.464844 135.15625 149.933594 L 133.542969 159.738281 C 129.636719 160.890625 125.894531 162.441406 122.316406 164.386719 L 114.246094 158.617188 C 113.859375 158.339844 113.433594 158.136719 112.972656 158.011719 C 112.511719 157.882812 112.046875 157.839844 111.570312 157.878906 C 111.09375 157.917969 110.640625 158.039062 110.207031 158.238281 C 109.773438 158.441406 109.386719 158.707031 109.050781 159.046875 L 93.789062 174.226562 C 93.453125 174.5625 93.183594 174.949219 92.980469 175.382812 C 92.78125 175.816406 92.660156 176.269531 92.621094 176.746094 C 92.582031 177.222656 92.628906 177.691406 92.753906 178.148438 C 92.882812 178.609375 93.082031 179.035156 93.359375 179.421875 L 99.132812 187.492188 C 97.183594 191.070312 95.636719 194.8125 94.484375 198.71875 L 84.679688 200.332031 C 84.207031 200.410156 83.761719 200.566406 83.347656 200.804688 C 82.929688 201.039062 82.570312 201.339844 82.257812 201.707031 C 81.949219 202.070312 81.714844 202.476562 81.550781 202.925781 C 81.386719 203.375 81.304688 203.839844 81.304688 204.320312 L 81.304688 225.832031 C 81.304688 226.3125 81.386719 226.773438 81.550781 227.222656 C 81.714844 227.671875 81.949219 228.082031 82.257812 228.445312 C 82.570312 228.8125 82.929688 229.113281 83.347656 229.347656 C 83.761719 229.585938 84.207031 229.742188 84.679688 229.820312 L 94.484375 231.433594 C 95.636719 235.339844 97.183594 239.082031 99.132812 242.660156 L 93.359375 250.730469 C 93.082031 251.117188 92.882812 251.542969 92.753906 252.003906 C 92.628906 252.460938 92.582031 252.929688 92.621094 253.40625 C 92.660156 253.882812 92.78125 254.335938 92.980469 254.769531 C 93.183594 255.203125 93.453125 255.589844 93.789062 255.925781 L 109.007812 271.148438 C 109.347656 271.484375 109.730469 271.753906 110.164062 271.953125 C 110.597656 272.152344 111.054688 272.273438 111.527344 272.3125 C 112.003906 272.351562 112.472656 272.308594 112.933594 272.179688 C 113.394531 272.054688 113.816406 271.851562 114.207031 271.574219 L 122.277344 265.804688 C 125.851562 267.75 129.59375 269.300781 133.5 270.453125 L 135.117188 280.257812 C 135.195312 280.730469 135.351562 281.171875 135.585938 281.589844 C 135.824219 282.003906 136.125 282.367188 136.488281 282.675781 C 136.855469 282.984375 137.261719 283.222656 137.710938 283.386719 C 138.160156 283.550781 138.625 283.632812 139.101562 283.628906 L 160.617188 283.628906 C 161.09375 283.632812 161.558594 283.550781 162.007812 283.386719 C 162.457031 283.222656 162.863281 282.984375 163.230469 282.675781 C 163.59375 282.367188 163.894531 282.003906 164.132812 281.589844 C 164.367188 281.171875 164.523438 280.730469 164.601562 280.257812 L 166.21875 270.453125 C 170.125 269.300781 173.867188 267.75 177.441406 265.804688 L 185.511719 271.574219 C 185.902344 271.851562 186.324219 272.054688 186.785156 272.179688 C 187.246094 272.308594 187.714844 272.351562 188.191406 272.3125 C 188.664062 272.273438 189.121094 272.152344 189.554688 271.953125 C 189.988281 271.753906 190.371094 271.484375 190.710938 271.148438 L 205.929688 255.925781 C 206.265625 255.589844 206.535156 255.203125 206.738281 254.769531 C 206.9375 254.335938 207.058594 253.882812 207.097656 253.40625 C 207.136719 252.929688 207.089844 252.460938 206.964844 252.003906 C 206.835938 251.542969 206.636719 251.117188 206.355469 250.730469 L 200.585938 242.660156 C 202.535156 239.082031 204.082031 235.339844 205.234375 231.433594 L 215.039062 229.820312 C 215.511719 229.742188 215.957031 229.585938 216.371094 229.347656 C 216.789062 229.113281 217.148438 228.8125 217.460938 228.445312 C 217.769531 228.082031 218.003906 227.671875 218.167969 227.222656 C 218.332031 226.773438 218.414062 226.3125 218.414062 225.832031 L 218.414062 204.359375 C 218.417969 203.886719 218.339844 203.429688 218.179688 202.984375 C 218.019531 202.539062 217.789062 202.132812 217.488281 201.769531 C 217.1875 201.40625 216.835938 201.101562 216.429688 200.863281 C 216.023438 200.621094 215.585938 200.460938 215.121094 200.371094 Z M 210.425781 222.460938 L 201.433594 223.960938 C 201.046875 224.027344 200.679688 224.148438 200.328125 224.324219 C 199.976562 224.5 199.65625 224.722656 199.371094 224.988281 C 199.085938 225.257812 198.839844 225.558594 198.644531 225.898438 C 198.445312 226.238281 198.300781 226.597656 198.207031 226.980469 C 197.003906 231.902344 195.089844 236.527344 192.460938 240.859375 C 192.253906 241.195312 192.101562 241.554688 192.003906 241.9375 C 191.902344 242.320312 191.863281 242.707031 191.875 243.101562 C 191.890625 243.496094 191.960938 243.882812 192.089844 244.253906 C 192.214844 244.628906 192.394531 244.976562 192.621094 245.296875 L 197.925781 252.722656 L 187.507812 263.109375 L 180.082031 257.808594 C 179.761719 257.578125 179.414062 257.398438 179.039062 257.273438 C 178.664062 257.144531 178.28125 257.074219 177.886719 257.058594 C 177.492188 257.046875 177.105469 257.089844 176.722656 257.1875 C 176.339844 257.289062 175.980469 257.441406 175.644531 257.644531 C 171.3125 260.273438 166.683594 262.191406 161.761719 263.390625 C 161.382812 263.484375 161.019531 263.628906 160.683594 263.828125 C 160.34375 264.027344 160.039062 264.269531 159.773438 264.554688 C 159.503906 264.84375 159.28125 265.160156 159.109375 265.511719 C 158.933594 265.863281 158.8125 266.234375 158.746094 266.621094 L 157.242188 275.640625 L 142.554688 275.640625 L 141.023438 266.652344 C 140.957031 266.265625 140.835938 265.894531 140.660156 265.542969 C 140.484375 265.191406 140.261719 264.875 139.996094 264.585938 C 139.726562 264.300781 139.421875 264.058594 139.085938 263.859375 C 138.746094 263.664062 138.386719 263.515625 138.003906 263.421875 C 133.082031 262.222656 128.457031 260.308594 124.125 257.675781 C 123.785156 257.472656 123.425781 257.320312 123.046875 257.21875 C 122.664062 257.121094 122.273438 257.078125 121.878906 257.09375 C 121.484375 257.105469 121.101562 257.179688 120.726562 257.304688 C 120.355469 257.433594 120.007812 257.609375 119.6875 257.839844 L 112.261719 263.140625 L 101.90625 252.722656 L 107.210938 245.296875 C 107.4375 244.976562 107.617188 244.628906 107.742188 244.253906 C 107.871094 243.882812 107.941406 243.496094 107.957031 243.101562 C 107.96875 242.707031 107.925781 242.320312 107.828125 241.9375 C 107.726562 241.554688 107.574219 241.195312 107.371094 240.859375 C 104.742188 236.527344 102.824219 231.902344 101.625 226.980469 C 101.53125 226.597656 101.386719 226.238281 101.1875 225.898438 C 100.988281 225.558594 100.746094 225.257812 100.460938 224.988281 C 100.175781 224.722656 99.855469 224.5 99.503906 224.324219 C 99.152344 224.148438 98.785156 224.027344 98.398438 223.960938 L 89.375 222.460938 L 89.375 207.773438 L 98.363281 206.238281 C 98.75 206.171875 99.121094 206.050781 99.472656 205.875 C 99.824219 205.699219 100.140625 205.480469 100.429688 205.210938 C 100.714844 204.945312 100.957031 204.640625 101.15625 204.300781 C 101.355469 203.960938 101.5 203.601562 101.59375 203.222656 C 102.792969 198.296875 104.707031 193.671875 107.339844 189.339844 C 107.542969 189.003906 107.695312 188.644531 107.796875 188.261719 C 107.894531 187.878906 107.9375 187.492188 107.921875 187.097656 C 107.910156 186.703125 107.839844 186.320312 107.710938 185.945312 C 107.585938 185.570312 107.40625 185.222656 107.175781 184.902344 L 101.875 177.476562 L 112.292969 167.125 L 119.71875 172.425781 C 120.039062 172.65625 120.386719 172.832031 120.761719 172.960938 C 121.132812 173.085938 121.519531 173.15625 121.914062 173.171875 C 122.308594 173.1875 122.695312 173.144531 123.078125 173.042969 C 123.460938 172.945312 123.820312 172.792969 124.15625 172.585938 C 128.488281 169.957031 133.113281 168.042969 138.035156 166.839844 C 138.417969 166.75 138.777344 166.601562 139.117188 166.40625 C 139.457031 166.207031 139.757812 165.964844 140.027344 165.675781 C 140.296875 165.390625 140.515625 165.070312 140.691406 164.71875 C 140.867188 164.371094 140.988281 164 141.054688 163.613281 L 142.554688 154.589844 L 157.242188 154.589844 L 158.746094 163.582031 C 158.8125 163.96875 158.933594 164.335938 159.109375 164.6875 C 159.28125 165.039062 159.503906 165.359375 159.773438 165.644531 C 160.039062 165.933594 160.34375 166.175781 160.683594 166.371094 C 161.019531 166.570312 161.382812 166.714844 161.761719 166.808594 C 166.683594 168.011719 171.3125 169.925781 175.644531 172.554688 C 175.980469 172.761719 176.339844 172.914062 176.722656 173.011719 C 177.105469 173.113281 177.492188 173.15625 177.886719 173.140625 C 178.28125 173.125 178.664062 173.054688 179.039062 172.929688 C 179.414062 172.800781 179.761719 172.621094 180.082031 172.394531 L 187.507812 167.09375 L 197.890625 177.476562 L 192.589844 184.902344 C 192.359375 185.222656 192.183594 185.570312 192.054688 185.945312 C 191.929688 186.320312 191.859375 186.703125 191.84375 187.097656 C 191.828125 187.492188 191.871094 187.878906 191.972656 188.261719 C 192.070312 188.644531 192.222656 189.003906 192.429688 189.339844 C 195.058594 193.671875 196.972656 198.296875 198.175781 203.222656 C 198.265625 203.601562 198.414062 203.960938 198.609375 204.300781 C 198.808594 204.640625 199.050781 204.945312 199.339844 205.210938 C 199.625 205.480469 199.945312 205.699219 200.296875 205.875 C 200.648438 206.050781 201.015625 206.171875 201.402344 206.238281 L 210.390625 207.742188 Z M 210.425781 222.460938 " fill-opacity="1" fill-rule="nonzero"/></g><path fill="#000000" d="M 149.898438 178.800781 C 148.710938 178.800781 147.523438 178.859375 146.339844 178.976562 C 145.15625 179.09375 143.980469 179.265625 142.816406 179.5 C 141.648438 179.730469 140.496094 180.019531 139.359375 180.363281 C 138.21875 180.710938 137.101562 181.109375 136.003906 181.566406 C 134.902344 182.019531 133.828125 182.527344 132.78125 183.089844 C 131.730469 183.648438 130.714844 184.261719 129.722656 184.921875 C 128.734375 185.582031 127.78125 186.289062 126.863281 187.042969 C 125.941406 187.800781 125.0625 188.597656 124.222656 189.4375 C 123.378906 190.277344 122.582031 191.160156 121.828125 192.078125 C 121.074219 192.996094 120.367188 193.953125 119.703125 194.941406 C 119.042969 195.929688 118.433594 196.949219 117.871094 197.996094 C 117.3125 199.046875 116.804688 200.121094 116.347656 201.21875 C 115.894531 202.316406 115.492188 203.4375 115.148438 204.574219 C 114.804688 205.714844 114.515625 206.863281 114.28125 208.03125 C 114.050781 209.199219 113.875 210.375 113.757812 211.558594 C 113.644531 212.742188 113.585938 213.925781 113.585938 215.117188 C 113.585938 216.304688 113.644531 217.492188 113.757812 218.675781 C 113.875 219.859375 114.050781 221.035156 114.28125 222.199219 C 114.515625 223.367188 114.804688 224.519531 115.148438 225.65625 C 115.492188 226.796875 115.894531 227.914062 116.347656 229.011719 C 116.804688 230.113281 117.3125 231.1875 117.871094 232.234375 C 118.433594 233.285156 119.042969 234.304688 119.703125 235.292969 C 120.367188 236.28125 121.074219 237.234375 121.828125 238.15625 C 122.582031 239.074219 123.378906 239.953125 124.222656 240.796875 C 125.0625 241.636719 125.941406 242.433594 126.863281 243.1875 C 127.78125 243.941406 128.734375 244.652344 129.722656 245.3125 C 130.714844 245.972656 131.730469 246.582031 132.78125 247.144531 C 133.828125 247.703125 134.902344 248.210938 136.003906 248.667969 C 137.101562 249.121094 138.21875 249.523438 139.359375 249.867188 C 140.496094 250.214844 141.648438 250.5 142.816406 250.734375 C 143.980469 250.964844 145.15625 251.140625 146.339844 251.257812 C 147.523438 251.375 148.710938 251.429688 149.898438 251.429688 C 151.089844 251.429688 152.277344 251.375 153.460938 251.257812 C 154.644531 251.140625 155.816406 250.964844 156.984375 250.734375 C 158.152344 250.5 159.304688 250.214844 160.441406 249.867188 C 161.578125 249.523438 162.699219 249.121094 163.796875 248.667969 C 164.894531 248.210938 165.96875 247.703125 167.019531 247.144531 C 168.066406 246.582031 169.085938 245.972656 170.074219 245.3125 C 171.0625 244.652344 172.019531 243.941406 172.9375 243.1875 C 173.855469 242.433594 174.738281 241.636719 175.578125 240.796875 C 176.417969 239.953125 177.21875 239.074219 177.972656 238.15625 C 178.726562 237.234375 179.433594 236.28125 180.09375 235.292969 C 180.753906 234.304688 181.367188 233.285156 181.925781 232.234375 C 182.488281 231.1875 182.996094 230.113281 183.449219 229.011719 C 183.90625 227.914062 184.304688 226.796875 184.652344 225.65625 C 184.996094 224.519531 185.285156 223.367188 185.515625 222.199219 C 185.75 221.035156 185.921875 219.859375 186.039062 218.675781 C 186.15625 217.492188 186.214844 216.304688 186.214844 215.117188 C 186.214844 213.925781 186.152344 212.742188 186.035156 211.558594 C 185.917969 210.375 185.742188 209.199219 185.511719 208.035156 C 185.277344 206.867188 184.988281 205.71875 184.640625 204.578125 C 184.296875 203.441406 183.894531 202.324219 183.441406 201.226562 C 182.984375 200.128906 182.476562 199.054688 181.914062 198.003906 C 181.355469 196.957031 180.742188 195.9375 180.082031 194.949219 C 179.421875 193.960938 178.714844 193.007812 177.960938 192.089844 C 177.203125 191.171875 176.40625 190.289062 175.566406 189.449219 C 174.726562 188.609375 173.847656 187.8125 172.925781 187.058594 C 172.007812 186.300781 171.054688 185.59375 170.066406 184.933594 C 169.078125 184.273438 168.058594 183.664062 167.011719 183.101562 C 165.960938 182.539062 164.890625 182.03125 163.789062 181.578125 C 162.691406 181.121094 161.574219 180.71875 160.4375 180.375 C 159.300781 180.027344 158.148438 179.738281 156.980469 179.507812 C 155.816406 179.273438 154.640625 179.097656 153.457031 178.980469 C 152.273438 178.863281 151.089844 178.804688 149.898438 178.800781 Z M 149.898438 243.363281 C 148.976562 243.363281 148.050781 243.316406 147.132812 243.226562 C 146.210938 243.136719 145.296875 243 144.390625 242.820312 C 143.480469 242.636719 142.585938 242.414062 141.699219 242.144531 C 140.816406 241.875 139.945312 241.566406 139.089844 241.210938 C 138.234375 240.855469 137.402344 240.460938 136.585938 240.027344 C 135.769531 239.589844 134.976562 239.117188 134.207031 238.601562 C 133.4375 238.085938 132.695312 237.535156 131.980469 236.949219 C 131.265625 236.363281 130.582031 235.742188 129.925781 235.089844 C 129.273438 234.433594 128.652344 233.75 128.066406 233.035156 C 127.480469 232.320312 126.929688 231.578125 126.414062 230.808594 C 125.902344 230.039062 125.425781 229.246094 124.988281 228.429688 C 124.554688 227.613281 124.160156 226.78125 123.804688 225.925781 C 123.449219 225.070312 123.140625 224.199219 122.871094 223.316406 C 122.601562 222.429688 122.378906 221.535156 122.199219 220.625 C 122.015625 219.71875 121.882812 218.804688 121.789062 217.886719 C 121.699219 216.964844 121.65625 216.042969 121.65625 215.117188 C 121.65625 214.191406 121.699219 213.269531 121.789062 212.347656 C 121.882812 211.425781 122.015625 210.511719 122.199219 209.605469 C 122.378906 208.699219 122.601562 207.800781 122.871094 206.917969 C 123.140625 206.03125 123.449219 205.164062 123.804688 204.308594 C 124.160156 203.453125 124.554688 202.617188 124.988281 201.800781 C 125.425781 200.984375 125.902344 200.195312 126.414062 199.425781 C 126.929688 198.65625 127.480469 197.914062 128.066406 197.199219 C 128.652344 196.484375 129.273438 195.796875 129.925781 195.144531 C 130.582031 194.488281 131.265625 193.871094 131.980469 193.28125 C 132.695312 192.695312 133.4375 192.144531 134.207031 191.632812 C 134.976562 191.117188 135.769531 190.644531 136.585938 190.207031 C 137.402344 189.769531 138.234375 189.375 139.089844 189.023438 C 139.945312 188.667969 140.816406 188.355469 141.699219 188.085938 C 142.585938 187.820312 143.480469 187.59375 144.390625 187.414062 C 145.296875 187.234375 146.210938 187.097656 147.132812 187.007812 C 148.050781 186.917969 148.976562 186.871094 149.898438 186.871094 C 150.824219 186.871094 151.746094 186.917969 152.667969 187.007812 C 153.589844 187.097656 154.503906 187.234375 155.410156 187.414062 C 156.316406 187.59375 157.214844 187.820312 158.097656 188.085938 C 158.984375 188.355469 159.855469 188.667969 160.707031 189.023438 C 161.5625 189.375 162.398438 189.769531 163.214844 190.207031 C 164.03125 190.644531 164.824219 191.117188 165.589844 191.632812 C 166.359375 192.144531 167.101562 192.695312 167.816406 193.28125 C 168.535156 193.871094 169.21875 194.488281 169.871094 195.144531 C 170.527344 195.796875 171.148438 196.484375 171.734375 197.199219 C 172.320312 197.914062 172.871094 198.65625 173.382812 199.425781 C 173.898438 200.195312 174.375 200.984375 174.808594 201.800781 C 175.246094 202.617188 175.640625 203.453125 175.996094 204.308594 C 176.347656 205.164062 176.660156 206.03125 176.929688 206.917969 C 177.195312 207.800781 177.421875 208.699219 177.601562 209.605469 C 177.78125 210.511719 177.917969 211.425781 178.007812 212.347656 C 178.097656 213.269531 178.144531 214.191406 178.144531 215.117188 C 178.144531 216.042969 178.097656 216.964844 178.007812 217.886719 C 177.917969 218.804688 177.78125 219.71875 177.601562 220.625 C 177.421875 221.535156 177.195312 222.429688 176.929688 223.316406 C 176.660156 224.199219 176.347656 225.070312 175.996094 225.925781 C 175.640625 226.78125 175.246094 227.613281 174.808594 228.429688 C 174.375 229.246094 173.898438 230.039062 173.382812 230.808594 C 172.871094 231.578125 172.320312 232.320312 171.734375 233.035156 C 171.148438 233.75 170.527344 234.433594 169.871094 235.089844 C 169.21875 235.742188 168.535156 236.363281 167.816406 236.949219 C 167.101562 237.535156 166.359375 238.085938 165.589844 238.601562 C 164.824219 239.117188 164.03125 239.589844 163.214844 240.027344 C 162.398438 240.460938 161.5625 240.855469 160.707031 241.210938 C 159.855469 241.566406 158.984375 241.875 158.097656 242.144531 C 157.214844 242.414062 156.316406 242.636719 155.410156 242.820312 C 154.503906 243 153.589844 243.136719 152.667969 243.226562 C 151.746094 243.316406 150.824219 243.363281 149.898438 243.363281 Z M 149.898438 243.363281 " fill-opacity="1" fill-rule="nonzero"/><g clip-path="url(#8696b456c3)"><path fill="#000000" d="M 279.679688 115.636719 L 274.476562 114.773438 C 273.859375 112.855469 273.089844 111.003906 272.167969 109.214844 L 275.242188 104.914062 C 275.519531 104.523438 275.722656 104.101562 275.851562 103.640625 C 275.976562 103.179688 276.019531 102.710938 275.980469 102.234375 C 275.941406 101.761719 275.824219 101.304688 275.621094 100.871094 C 275.421875 100.4375 275.152344 100.054688 274.816406 99.714844 L 265.300781 90.199219 C 264.964844 89.863281 264.578125 89.59375 264.144531 89.394531 C 263.710938 89.195312 263.257812 89.074219 262.78125 89.035156 C 262.304688 88.996094 261.835938 89.039062 261.375 89.167969 C 260.917969 89.292969 260.492188 89.496094 260.105469 89.773438 L 255.800781 92.847656 C 254.011719 91.925781 252.160156 91.15625 250.242188 90.539062 L 249.378906 85.335938 C 249.300781 84.863281 249.144531 84.417969 248.90625 84.003906 C 248.671875 83.585938 248.371094 83.226562 248.003906 82.917969 C 247.640625 82.605469 247.230469 82.371094 246.78125 82.207031 C 246.332031 82.042969 245.871094 81.960938 245.390625 81.960938 L 231.949219 81.960938 C 231.46875 81.960938 231.003906 82.042969 230.554688 82.207031 C 230.105469 82.371094 229.699219 82.605469 229.335938 82.917969 C 228.96875 83.226562 228.667969 83.585938 228.433594 84.003906 C 228.195312 84.417969 228.039062 84.863281 227.960938 85.335938 L 227.097656 90.539062 C 225.179688 91.15625 223.328125 91.925781 221.539062 92.847656 L 217.234375 89.773438 C 216.847656 89.496094 216.421875 89.292969 215.960938 89.167969 C 215.503906 89.039062 215.035156 88.996094 214.558594 89.035156 C 214.082031 89.074219 213.628906 89.195312 213.195312 89.394531 C 212.761719 89.59375 212.375 89.863281 212.039062 90.199219 L 202.523438 99.714844 C 202.1875 100.054688 201.917969 100.4375 201.71875 100.871094 C 201.515625 101.304688 201.398438 101.761719 201.359375 102.234375 C 201.320312 102.710938 201.363281 103.179688 201.488281 103.640625 C 201.617188 104.101562 201.820312 104.523438 202.097656 104.914062 L 205.171875 109.214844 C 204.25 111.003906 203.480469 112.855469 202.863281 114.773438 L 197.65625 115.636719 C 197.1875 115.714844 196.742188 115.875 196.328125 116.109375 C 195.910156 116.347656 195.546875 116.644531 195.238281 117.011719 C 194.929688 117.375 194.695312 117.785156 194.53125 118.234375 C 194.367188 118.683594 194.285156 119.144531 194.285156 119.625 L 194.285156 133.070312 C 194.285156 133.546875 194.367188 134.011719 194.53125 134.460938 C 194.695312 134.910156 194.929688 135.316406 195.238281 135.679688 C 195.546875 136.046875 195.910156 136.347656 196.328125 136.582031 C 196.742188 136.820312 197.1875 136.976562 197.65625 137.054688 L 202.863281 137.917969 C 203.480469 139.835938 204.25 141.6875 205.171875 143.480469 L 202.097656 147.78125 C 201.820312 148.167969 201.617188 148.59375 201.488281 149.054688 C 201.363281 149.511719 201.320312 149.980469 201.359375 150.457031 C 201.398438 150.933594 201.515625 151.386719 201.71875 151.820312 C 201.917969 152.253906 202.1875 152.640625 202.523438 152.976562 L 212.039062 162.492188 C 212.375 162.828125 212.761719 163.097656 213.195312 163.296875 C 213.628906 163.5 214.082031 163.617188 214.558594 163.65625 C 215.035156 163.699219 215.503906 163.652344 215.960938 163.527344 C 216.421875 163.398438 216.847656 163.199219 217.234375 162.917969 L 221.539062 159.84375 C 223.328125 160.765625 225.179688 161.535156 227.097656 162.152344 L 227.960938 167.359375 C 228.039062 167.828125 228.195312 168.273438 228.433594 168.691406 C 228.667969 169.105469 228.96875 169.46875 229.335938 169.777344 C 229.699219 170.085938 230.105469 170.320312 230.554688 170.488281 C 231.003906 170.652344 231.46875 170.730469 231.949219 170.730469 L 245.390625 170.730469 C 245.871094 170.730469 246.335938 170.652344 246.78125 170.488281 C 247.230469 170.320312 247.640625 170.085938 248.003906 169.777344 C 248.371094 169.46875 248.671875 169.105469 248.90625 168.691406 C 249.144531 168.273438 249.300781 167.828125 249.378906 167.359375 L 250.242188 162.152344 C 252.160156 161.535156 254.011719 160.765625 255.800781 159.84375 L 260.105469 162.917969 C 260.492188 163.199219 260.917969 163.398438 261.375 163.527344 C 261.835938 163.652344 262.304688 163.699219 262.78125 163.65625 C 263.257812 163.617188 263.710938 163.5 264.144531 163.296875 C 264.578125 163.097656 264.964844 162.828125 265.300781 162.492188 L 274.816406 152.976562 C 275.152344 152.640625 275.421875 152.253906 275.621094 151.820312 C 275.824219 151.386719 275.941406 150.933594 275.980469 150.457031 C 276.019531 149.980469 275.976562 149.511719 275.851562 149.054688 C 275.722656 148.59375 275.519531 148.167969 275.242188 147.78125 L 272.167969 143.480469 C 273.089844 141.6875 273.859375 139.835938 274.476562 137.917969 L 279.679688 137.054688 C 280.152344 136.976562 280.597656 136.820312 281.011719 136.582031 C 281.429688 136.347656 281.792969 136.046875 282.101562 135.679688 C 282.410156 135.316406 282.644531 134.910156 282.808594 134.460938 C 282.972656 134.011719 283.054688 133.546875 283.054688 133.070312 L 283.054688 119.625 C 283.054688 119.144531 282.972656 118.683594 282.808594 118.234375 C 282.644531 117.785156 282.410156 117.375 282.101562 117.011719 C 281.792969 116.644531 281.429688 116.347656 281.011719 116.109375 C 280.597656 115.875 280.152344 115.714844 279.679688 115.636719 Z M 274.984375 129.65625 L 270.625 130.382812 C 270.242188 130.449219 269.871094 130.570312 269.519531 130.746094 C 269.167969 130.917969 268.851562 131.140625 268.5625 131.410156 C 268.277344 131.675781 268.035156 131.980469 267.835938 132.320312 C 267.636719 132.660156 267.492188 133.019531 267.398438 133.398438 C 266.675781 136.335938 265.527344 139.097656 263.953125 141.679688 C 263.75 142.015625 263.597656 142.378906 263.496094 142.757812 C 263.398438 143.140625 263.355469 143.53125 263.371094 143.925781 C 263.386719 144.320312 263.457031 144.703125 263.585938 145.074219 C 263.714844 145.449219 263.894531 145.796875 264.121094 146.117188 L 266.6875 149.710938 L 262.007812 154.390625 L 258.417969 151.824219 C 258.097656 151.59375 257.75 151.414062 257.375 151.289062 C 257 151.160156 256.617188 151.089844 256.222656 151.074219 C 255.828125 151.058594 255.441406 151.101562 255.058594 151.199219 C 254.675781 151.296875 254.316406 151.449219 253.976562 151.652344 C 251.402344 153.21875 248.648438 154.359375 245.722656 155.074219 C 245.339844 155.167969 244.980469 155.3125 244.644531 155.511719 C 244.304688 155.710938 244 155.953125 243.734375 156.238281 C 243.464844 156.527344 243.242188 156.84375 243.066406 157.195312 C 242.894531 157.546875 242.773438 157.917969 242.703125 158.304688 L 241.976562 162.660156 L 235.359375 162.660156 L 234.632812 158.304688 C 234.566406 157.917969 234.445312 157.546875 234.269531 157.195312 C 234.097656 156.84375 233.875 156.527344 233.605469 156.238281 C 233.339844 155.953125 233.035156 155.710938 232.695312 155.511719 C 232.359375 155.3125 231.996094 155.167969 231.617188 155.074219 C 228.691406 154.359375 225.9375 153.21875 223.359375 151.652344 C 223.023438 151.449219 222.664062 151.296875 222.28125 151.199219 C 221.898438 151.101562 221.511719 151.058594 221.117188 151.074219 C 220.722656 151.089844 220.335938 151.160156 219.964844 151.289062 C 219.589844 151.414062 219.242188 151.59375 218.921875 151.824219 L 215.332031 154.390625 L 210.652344 149.710938 L 213.21875 146.117188 C 213.445312 145.796875 213.625 145.449219 213.753906 145.074219 C 213.882812 144.703125 213.953125 144.320312 213.96875 143.925781 C 213.984375 143.53125 213.941406 143.140625 213.839844 142.757812 C 213.742188 142.378906 213.589844 142.015625 213.386719 141.679688 C 211.824219 139.101562 210.683594 136.351562 209.964844 133.425781 C 209.871094 133.042969 209.726562 132.683594 209.527344 132.34375 C 209.328125 132.003906 209.085938 131.703125 208.800781 131.433594 C 208.515625 131.164062 208.195312 130.945312 207.84375 130.769531 C 207.492188 130.59375 207.125 130.472656 206.738281 130.40625 L 202.378906 129.679688 L 202.378906 123.039062 L 206.738281 122.3125 C 207.125 122.246094 207.492188 122.121094 207.84375 121.949219 C 208.195312 121.773438 208.515625 121.550781 208.800781 121.285156 C 209.085938 121.015625 209.328125 120.710938 209.527344 120.375 C 209.726562 120.035156 209.871094 119.675781 209.964844 119.292969 C 210.679688 116.359375 211.820312 113.597656 213.386719 111.011719 C 213.589844 110.675781 213.742188 110.316406 213.839844 109.933594 C 213.941406 109.550781 213.984375 109.164062 213.96875 108.769531 C 213.953125 108.375 213.882812 107.992188 213.753906 107.617188 C 213.625 107.242188 213.445312 106.894531 213.21875 106.574219 L 210.652344 102.984375 L 215.332031 98.304688 L 218.921875 100.871094 C 219.242188 101.097656 219.589844 101.277344 219.964844 101.40625 C 220.335938 101.535156 220.722656 101.605469 221.117188 101.621094 C 221.511719 101.636719 221.898438 101.59375 222.28125 101.492188 C 222.664062 101.394531 223.023438 101.242188 223.359375 101.039062 C 225.9375 99.476562 228.691406 98.335938 231.617188 97.617188 C 231.996094 97.523438 232.359375 97.378906 232.695312 97.179688 C 233.035156 96.980469 233.339844 96.738281 233.605469 96.453125 C 233.875 96.167969 234.097656 95.847656 234.269531 95.496094 C 234.445312 95.144531 234.566406 94.777344 234.632812 94.390625 L 235.359375 90.03125 L 241.976562 90.03125 L 242.703125 94.390625 C 242.773438 94.777344 242.894531 95.144531 243.066406 95.496094 C 243.242188 95.847656 243.464844 96.167969 243.734375 96.453125 C 244 96.738281 244.304688 96.980469 244.644531 97.179688 C 244.980469 97.378906 245.339844 97.523438 245.722656 97.617188 C 248.648438 98.335938 251.402344 99.476562 253.976562 101.039062 C 254.316406 101.242188 254.675781 101.394531 255.058594 101.492188 C 255.441406 101.59375 255.828125 101.636719 256.222656 101.621094 C 256.617188 101.605469 257 101.535156 257.375 101.40625 C 257.75 101.277344 258.097656 101.097656 258.417969 100.871094 L 262.007812 98.304688 L 266.6875 102.984375 L 264.121094 106.574219 C 263.894531 106.894531 263.714844 107.242188 263.585938 107.617188 C 263.457031 107.992188 263.386719 108.375 263.371094 108.769531 C 263.355469 109.164062 263.398438 109.550781 263.496094 109.933594 C 263.597656 110.316406 263.75 110.675781 263.953125 111.011719 C 265.515625 113.589844 266.65625 116.34375 267.375 119.269531 C 267.46875 119.648438 267.613281 120.011719 267.8125 120.347656 C 268.007812 120.6875 268.253906 120.992188 268.539062 121.257812 C 268.824219 121.527344 269.144531 121.75 269.496094 121.925781 C 269.847656 122.097656 270.214844 122.21875 270.601562 122.289062 L 274.960938 123.011719 Z M 274.984375 129.65625 " fill-opacity="1" fill-rule="nonzero"/></g><path fill="#000000" d="M 238.667969 106.171875 C 238.007812 106.171875 237.351562 106.203125 236.691406 106.269531 C 236.035156 106.332031 235.382812 106.429688 234.734375 106.558594 C 234.085938 106.6875 233.445312 106.847656 232.8125 107.039062 C 232.179688 107.230469 231.558594 107.453125 230.949219 107.707031 C 230.339844 107.960938 229.742188 108.242188 229.160156 108.554688 C 228.578125 108.863281 228.011719 109.203125 227.460938 109.570312 C 226.910156 109.9375 226.382812 110.332031 225.871094 110.75 C 225.359375 111.171875 224.871094 111.613281 224.402344 112.082031 C 223.9375 112.546875 223.492188 113.035156 223.074219 113.546875 C 222.65625 114.058594 222.261719 114.589844 221.894531 115.136719 C 221.527344 115.6875 221.1875 116.253906 220.875 116.835938 C 220.566406 117.417969 220.285156 118.015625 220.03125 118.625 C 219.777344 119.234375 219.554688 119.859375 219.363281 120.488281 C 219.171875 121.121094 219.011719 121.761719 218.882812 122.410156 C 218.753906 123.058594 218.65625 123.710938 218.59375 124.367188 C 218.527344 125.027344 218.496094 125.6875 218.496094 126.347656 C 218.496094 127.007812 218.527344 127.667969 218.59375 128.324219 C 218.65625 128.980469 218.753906 129.632812 218.882812 130.28125 C 219.011719 130.929688 219.171875 131.570312 219.363281 132.203125 C 219.554688 132.835938 219.777344 133.457031 220.03125 134.066406 C 220.285156 134.675781 220.566406 135.273438 220.875 135.855469 C 221.1875 136.441406 221.527344 137.003906 221.894531 137.554688 C 222.261719 138.105469 222.65625 138.632812 223.074219 139.144531 C 223.492188 139.65625 223.9375 140.144531 224.402344 140.613281 C 224.871094 141.078125 225.359375 141.523438 225.871094 141.941406 C 226.382812 142.359375 226.910156 142.753906 227.460938 143.121094 C 228.011719 143.488281 228.578125 143.828125 229.160156 144.140625 C 229.742188 144.449219 230.339844 144.734375 230.949219 144.984375 C 231.558594 145.238281 232.179688 145.460938 232.8125 145.652344 C 233.445312 145.84375 234.085938 146.003906 234.734375 146.132812 C 235.382812 146.261719 236.035156 146.359375 236.691406 146.425781 C 237.351562 146.488281 238.007812 146.519531 238.667969 146.519531 C 239.332031 146.519531 239.988281 146.488281 240.648438 146.425781 C 241.304688 146.359375 241.957031 146.261719 242.605469 146.132812 C 243.253906 146.003906 243.894531 145.84375 244.527344 145.652344 C 245.160156 145.460938 245.78125 145.238281 246.390625 144.984375 C 247 144.734375 247.597656 144.449219 248.179688 144.140625 C 248.761719 143.828125 249.328125 143.488281 249.878906 143.121094 C 250.429688 142.753906 250.957031 142.359375 251.46875 141.941406 C 251.980469 141.523438 252.46875 141.078125 252.9375 140.613281 C 253.402344 140.144531 253.847656 139.65625 254.265625 139.144531 C 254.683594 138.632812 255.078125 138.105469 255.445312 137.554688 C 255.8125 137.003906 256.152344 136.441406 256.460938 135.855469 C 256.773438 135.273438 257.054688 134.675781 257.308594 134.066406 C 257.5625 133.457031 257.785156 132.835938 257.976562 132.203125 C 258.167969 131.570312 258.328125 130.929688 258.457031 130.28125 C 258.585938 129.632812 258.683594 128.980469 258.746094 128.324219 C 258.8125 127.667969 258.84375 127.007812 258.84375 126.347656 C 258.84375 125.6875 258.8125 125.027344 258.746094 124.367188 C 258.683594 123.710938 258.585938 123.058594 258.457031 122.410156 C 258.328125 121.761719 258.167969 121.121094 257.976562 120.488281 C 257.785156 119.859375 257.5625 119.234375 257.308594 118.625 C 257.054688 118.015625 256.773438 117.417969 256.460938 116.835938 C 256.152344 116.253906 255.8125 115.6875 255.445312 115.136719 C 255.078125 114.589844 254.683594 114.058594 254.265625 113.546875 C 253.847656 113.035156 253.402344 112.546875 252.9375 112.082031 C 252.46875 111.613281 251.980469 111.171875 251.46875 110.75 C 250.957031 110.332031 250.425781 109.9375 249.878906 109.570312 C 249.328125 109.203125 248.761719 108.863281 248.179688 108.554688 C 247.597656 108.242188 247 107.960938 246.390625 107.707031 C 245.78125 107.453125 245.160156 107.230469 244.527344 107.039062 C 243.894531 106.847656 243.253906 106.6875 242.605469 106.558594 C 241.957031 106.429688 241.304688 106.332031 240.648438 106.269531 C 239.988281 106.203125 239.332031 106.171875 238.667969 106.171875 Z M 238.667969 138.453125 C 237.875 138.453125 237.085938 138.375 236.308594 138.21875 C 235.527344 138.0625 234.773438 137.835938 234.039062 137.53125 C 233.304688 137.226562 232.605469 136.851562 231.945312 136.410156 C 231.285156 135.96875 230.671875 135.46875 230.109375 134.90625 C 229.546875 134.34375 229.046875 133.734375 228.605469 133.070312 C 228.164062 132.410156 227.789062 131.714844 227.484375 130.980469 C 227.183594 130.246094 226.953125 129.488281 226.796875 128.707031 C 226.640625 127.929688 226.566406 127.140625 226.566406 126.347656 C 226.566406 125.550781 226.640625 124.765625 226.796875 123.984375 C 226.953125 123.207031 227.183594 122.449219 227.484375 121.714844 C 227.789062 120.980469 228.164062 120.28125 228.605469 119.621094 C 229.046875 118.960938 229.546875 118.347656 230.109375 117.785156 C 230.671875 117.226562 231.285156 116.722656 231.945312 116.28125 C 232.605469 115.839844 233.304688 115.46875 234.039062 115.164062 C 234.773438 114.859375 235.527344 114.628906 236.308594 114.472656 C 237.085938 114.320312 237.875 114.242188 238.667969 114.242188 C 239.464844 114.242188 240.25 114.320312 241.03125 114.472656 C 241.8125 114.628906 242.566406 114.859375 243.300781 115.164062 C 244.035156 115.46875 244.734375 115.839844 245.394531 116.28125 C 246.054688 116.722656 246.667969 117.226562 247.230469 117.785156 C 247.792969 118.347656 248.292969 118.960938 248.734375 119.621094 C 249.175781 120.28125 249.550781 120.980469 249.851562 121.714844 C 250.15625 122.449219 250.386719 123.207031 250.542969 123.984375 C 250.695312 124.765625 250.773438 125.550781 250.773438 126.347656 C 250.773438 127.140625 250.695312 127.929688 250.542969 128.707031 C 250.386719 129.488281 250.15625 130.246094 249.851562 130.980469 C 249.550781 131.714844 249.175781 132.410156 248.734375 133.070312 C 248.292969 133.734375 247.792969 134.34375 247.230469 134.90625 C 246.667969 135.46875 246.054688 135.96875 245.394531 136.410156 C 244.734375 136.851562 244.035156 137.226562 243.300781 137.53125 C 242.566406 137.835938 241.8125 138.0625 241.03125 138.21875 C 240.25 138.375 239.464844 138.453125 238.667969 138.453125 Z M 238.667969 138.453125 " fill-opacity="1" fill-rule="nonzero"/></svg>