<svg xmlns="http://www.w3.org/2000/svg" xmlns:xlink="http://www.w3.org/1999/xlink" width="500" zoomAndPan="magnify" viewBox="0 0 375 374.999991" height="500" preserveAspectRatio="xMidYMid meet" version="1.0"><defs><g/><clipPath id="f8a0553d52"><path d="M 82 127 L 280 127 L 280 227 L 82 227 Z M 82 127 " clip-rule="nonzero"/></clipPath><clipPath id="e4c6f15cf9"><path d="M 83.972656 122.117188 L 281.65625 133.304688 L 276.105469 231.398438 L 78.421875 220.210938 Z M 83.972656 122.117188 " clip-rule="nonzero"/></clipPath><clipPath id="c895ed5a9d"><path d="M 83.972656 122.117188 L 281.65625 133.304688 L 276.105469 231.398438 L 78.421875 220.210938 Z M 83.972656 122.117188 " clip-rule="nonzero"/></clipPath></defs><g clip-path="url(#f8a0553d52)"><g clip-path="url(#e4c6f15cf9)"><g clip-path="url(#c895ed5a9d)"><path fill="#ffffff" d="M 112.308594 141 C 112.621094 141.054688 113.101562 140.964844 113.121094 141.320312 C 113.234375 142.160156 113.277344 142.753906 114.199219 141.855469 C 114.53125 141.558594 115.015625 141.390625 115.457031 141.257812 C 116.582031 140.964844 117.347656 141.402344 117.359375 142.589844 C 117.390625 143.421875 117.761719 143.878906 118.351562 143.949219 C 119.605469 144.140625 120.328125 145.328125 121.707031 145.445312 C 122.84375 145.589844 123.90625 145.648438 124.992188 145.316406 C 125.195312 145.246094 125.480469 145.105469 125.636719 145.152344 C 127.324219 146.078125 129.207031 145.59375 130.972656 145.851562 C 132.460938 146.09375 133.90625 145.738281 135.382812 145.46875 C 137.820312 145.011719 140.335938 145.273438 142.75 144.582031 C 146.914062 145.054688 151.105469 144.300781 155.273438 144.734375 C 156.84375 144.902344 158.300781 145.699219 159.855469 145.46875 C 160.695312 145.359375 161.425781 146.386719 162.308594 145.488281 C 162.8125 144.964844 163.996094 145.703125 164.492188 144.585938 C 164.675781 144.160156 165.324219 144.59375 165.703125 144.890625 C 166.042969 145.148438 166.328125 145.003906 166.503906 144.699219 C 166.679688 144.394531 166.496094 144.105469 166.148438 144.007812 C 165.992188 143.957031 165.832031 143.988281 165.675781 143.941406 C 165.441406 143.886719 165.25 143.757812 165.265625 143.484375 C 165.28125 143.207031 165.488281 143.097656 165.726562 143.074219 C 165.886719 143.042969 166.039062 143.128906 166.199219 143.101562 C 167.542969 143.058594 168.722656 143.914062 170.25 143.449219 C 171.457031 143.082031 172.925781 143.71875 174.238281 143.554688 C 176.34375 143.359375 178.386719 143.632812 180.378906 144.023438 C 182.140625 144.359375 183.695312 144.128906 185.332031 143.828125 C 185.8125 143.734375 186.203125 143.796875 186.664062 144.023438 C 187.4375 144.382812 188.316406 144.90625 189.074219 144.789062 C 192.222656 144.335938 195.230469 145.691406 198.371094 145.394531 C 198.925781 145.347656 199.464844 145.578125 200 145.210938 C 200.414062 144.917969 200.71875 145.09375 200.890625 145.539062 C 201.167969 146.265625 202.121094 146.199219 202.289062 146.011719 C 203.519531 144.5 204.714844 145.753906 205.71875 146.167969 C 207.34375 146.8125 208.925781 146.785156 210.554688 146.679688 C 211.824219 146.59375 213.214844 146.433594 214.300781 146.851562 C 216.546875 147.691406 218.808594 147.5 221.097656 147.589844 C 223.464844 147.6875 225.792969 146.394531 228.082031 147.117188 C 230.414062 147.84375 232.933594 147.351562 235.210938 148.351562 C 235.671875 148.574219 236.378906 148.613281 236.863281 148.445312 C 238.597656 147.871094 240.457031 148.570312 242.191406 147.914062 C 242.554688 147.777344 243.070312 147.765625 243.335938 147.941406 C 244.636719 148.765625 246.109375 148.53125 247.492188 148.570312 C 249.382812 148.679688 251.164062 149.332031 253.015625 149.515625 C 254.941406 149.703125 256.863281 149.972656 258.582031 151.019531 C 258.925781 151.234375 259.179688 150.933594 259.457031 150.949219 C 260.449219 150.886719 261.632812 150.242188 262.304688 151.585938 C 263.484375 151.019531 264.550781 152.421875 265.570312 151.925781 C 266.992188 151.257812 267.777344 152.011719 268.6875 152.734375 C 268.988281 152.992188 269.242188 153.359375 269.664062 152.949219 C 269.953125 152.6875 269.632812 152.078125 270.070312 152.023438 C 270.230469 151.992188 270.386719 152.714844 270.691406 152.929688 C 271.375 153.441406 272.097656 153.957031 273.046875 153.890625 C 274.476562 153.816406 275.292969 154.730469 276.273438 155.578125 C 277.21875 156.382812 278.410156 156.964844 278.164062 158.53125 C 278.109375 158.804688 278.324219 159.171875 278.550781 159.382812 C 280.007812 160.847656 278.863281 162.917969 279.683594 164.507812 C 279.03125 165.539062 279.316406 166.820312 278.859375 167.902344 C 278.628906 168.441406 278.523438 168.949219 278.492188 169.460938 C 278.476562 169.777344 278.496094 170.132812 278.207031 170.316406 C 276.808594 171.304688 275.976562 172.71875 275.257812 174.222656 C 274.988281 174.796875 274.507812 174.929688 273.875 174.894531 C 272.257812 174.839844 271.003906 176.035156 269.417969 176.105469 C 268.882812 177.21875 267.878906 177.480469 266.769531 177.535156 C 266.730469 177.535156 266.683594 177.648438 266.601562 177.683594 C 265.347656 178.207031 264.53125 179.347656 263.460938 180.078125 C 262.804688 180.515625 263 181.238281 263.085938 181.796875 C 263.238281 182.632812 263.238281 183.34375 262.988281 184.242188 C 262.578125 185.917969 262.554688 187.695312 262.617188 189.4375 C 262.636719 190.46875 263.378906 191.300781 264.046875 192.089844 C 265.082031 193.335938 265.0625 193.6875 263.738281 194.761719 C 262.910156 195.425781 263.1875 196.074219 263.34375 196.832031 C 263.683594 198.511719 262.925781 199.300781 261.363281 199.015625 C 260.5 198.847656 260.136719 198.3125 260.339844 197.492188 C 260.394531 197.257812 260.640625 197.074219 260.652344 196.878906 C 260.8125 195.425781 261.414062 193.878906 259.898438 192.722656 C 259.785156 192.640625 259.714844 192.476562 259.644531 192.316406 C 259.324219 191.703125 259.40625 190.917969 258.804688 190.410156 C 258.40625 191.136719 258.636719 191.980469 258.515625 192.726562 C 258.089844 195.351562 258.0625 197.957031 258.464844 200.589844 C 258.609375 201.546875 259.035156 202.402344 259.179688 203.320312 C 259.390625 204.515625 258.515625 205.96875 257.394531 206.261719 C 256.710938 206.421875 255.875 205.820312 256.039062 205.039062 C 256.371094 203.359375 255.5 201.964844 255.308594 200.453125 C 254.972656 198.019531 254.082031 195.597656 255.171875 193.089844 C 255.71875 191.816406 255.089844 190.394531 254.921875 189.160156 C 254.640625 187.167969 254.707031 185.234375 254.78125 183.261719 C 254.851562 181.328125 255.121094 179.367188 254.675781 177.40625 C 254.519531 176.722656 254.351562 176.160156 253.605469 176.117188 C 252.855469 176.078125 251.964844 175.710938 251.664062 176.839844 C 251.617188 176.996094 251.414062 177.0625 251.40625 177.21875 C 251.351562 177.453125 251.304688 177.648438 251.023438 177.710938 C 250.996094 177.472656 250.890625 177.269531 250.902344 177.035156 C 250.941406 176.324219 251.097656 175.660156 250.066406 176.472656 C 249.402344 176.988281 248.605469 177.101562 248.101562 176.203125 C 247.746094 175.550781 246.953125 175.542969 246.664062 175.765625 C 245.710938 176.542969 244.195312 175.386719 243.484375 176.773438 C 243.394531 176.964844 243.042969 176.90625 242.855469 176.695312 C 242.820312 176.65625 242.742188 176.609375 242.667969 176.566406 C 241.402344 175.863281 240.148438 177.058594 239.023438 176.636719 C 237.863281 176.214844 236.882812 176.042969 235.675781 176.449219 C 234.828125 176.714844 233.894531 177.136719 232.925781 176.847656 C 231.300781 178.257812 229.125 177.621094 227.308594 178.269531 C 227.226562 178.300781 227.183594 178.378906 227.105469 178.375 C 225.996094 178.429688 224.796875 177.96875 223.976562 179.148438 C 223.050781 178.066406 222.617188 179.425781 221.898438 179.542969 C 221.660156 179.570312 220.140625 179.878906 219.824219 179.859375 C 219.351562 179.832031 218.957031 179.8125 218.648438 180.386719 C 218.382812 180.925781 218.289062 180.445312 218.222656 180.203125 C 218.121094 179.960938 217.894531 179.710938 217.691406 179.859375 C 216.820312 180.558594 216.226562 179.855469 215.574219 179.539062 C 215.226562 179.363281 214.925781 179.070312 214.515625 179.363281 C 213.773438 179.914062 213.21875 179.25 212.59375 179.09375 C 211.773438 178.890625 210.914062 178.011719 210.058594 179.148438 C 209.761719 179.527344 209.144531 179.257812 208.710938 179.269531 C 208.152344 179.320312 207.613281 179.089844 207.148438 179.617188 C 206.558594 180.257812 205.960938 180.339844 205.28125 179.75 C 204.980469 179.496094 204.660156 179.554688 204.449219 179.78125 C 203.898438 180.421875 203.1875 180.460938 202.484375 180.300781 C 201.78125 180.144531 201.589844 180.726562 201.25 181.101562 C 200.996094 180.730469 200.984375 180.21875 200.3125 180.21875 C 199.285156 180.199219 198.160156 179.859375 197.234375 180.125 C 195.464844 180.65625 193.660156 180.433594 191.910156 180.574219 C 190.082031 180.746094 188.457031 181.523438 186.671875 181.621094 C 186.316406 181.640625 185.910156 181.816406 185.519531 181.753906 C 182.855469 181.285156 180.464844 182.296875 177.976562 182.949219 C 175.890625 183.542969 173.734375 183.855469 171.75 184.730469 C 171.222656 184.976562 170.480469 184.777344 169.851562 184.703125 C 167.417969 184.445312 165.019531 184.863281 162.660156 185.363281 C 160.777344 185.769531 158.863281 186.058594 156.949219 186.34375 C 156.628906 186.40625 156.28125 186.265625 156.039062 186.410156 C 154 187.441406 151.765625 187.15625 149.621094 187.3125 C 148.472656 187.367188 147.765625 188.632812 146.527344 188.167969 C 144.449219 189.273438 142.039062 189.257812 139.816406 190.078125 C 137.753906 190.871094 135.625 191.503906 133.394531 191.773438 C 132.640625 191.847656 131.996094 192.761719 131.019531 192.507812 C 130.941406 192.503906 130.816406 192.652344 130.730469 192.726562 C 130.84375 192.8125 130.960938 192.898438 131.113281 192.988281 C 131.570312 193.289062 132.03125 193.550781 132.621094 193.546875 C 133.375 193.511719 134.222656 193.914062 134.636719 192.871094 C 134.9375 193.875 135.8125 193.804688 136.523438 193.769531 C 139.417969 193.613281 142.328125 193.898438 145.199219 194.179688 C 147.007812 194.359375 148.867188 194.308594 150.625 194.683594 C 152.617188 195.113281 154.636719 195.070312 156.574219 195.773438 C 157.351562 196.054688 158.332031 196.148438 159.167969 196.039062 C 161.765625 195.589844 164.292969 195.617188 166.808594 196.550781 C 166.964844 196.597656 167.125 196.566406 167.285156 196.574219 C 171.941406 196.679688 176.539062 197.929688 181.207031 197.839844 C 183.1875 197.792969 185.019531 198.925781 187.015625 198.601562 C 187.214844 198.574219 187.480469 198.746094 187.632812 198.914062 C 188.863281 200.167969 190.558594 200.304688 192.113281 200.75 C 195.261719 201.679688 198.1875 203.070312 200.671875 205.34375 C 201.121094 205.765625 201.25 206.289062 200.863281 206.820312 C 200.519531 207.3125 200.285156 207.933594 199.75 208.335938 C 199.128906 208.816406 198.472656 209.253906 198.378906 210.195312 C 198.355469 210.628906 195.929688 212.273438 195.171875 212.386719 C 193.457031 212.648438 192.769531 213.597656 192.832031 215.300781 C 192.882812 216.488281 192.578125 217.695312 192.667969 218.886719 C 192.796875 220.832031 191.742188 222.671875 192.261719 224.675781 C 192.484375 225.597656 191.667969 226.066406 190.9375 226.421875 C 190.695312 226.527344 190.21875 226.539062 190.082031 226.175781 C 189.597656 224.960938 188.671875 223.800781 189.386719 222.378906 C 189.609375 221.957031 189.636719 221.445312 189.816406 221.058594 C 190.800781 219.019531 190.054688 216.882812 190.132812 214.792969 C 190.179688 213.964844 189.796875 213.703125 188.917969 213.929688 C 188.191406 214.128906 187.464844 214.441406 186.738281 214.679688 C 185.453125 215.039062 184.699219 215.789062 184.699219 217.171875 C 184.703125 217.84375 184.511719 218.425781 183.859375 218.746094 C 183.414062 218.957031 182.9375 218.96875 182.515625 218.710938 C 182.136719 218.449219 182.28125 217.984375 182.300781 217.628906 C 182.3125 217.472656 182.398438 217.320312 182.445312 217.203125 C 183.117188 215.105469 182.507812 213.964844 180.3125 213.640625 C 178.472656 213.339844 176.683594 212.84375 174.890625 212.386719 C 174.421875 212.28125 173.996094 212.097656 173.613281 211.839844 C 172.316406 211.015625 170.960938 210.542969 169.417969 210.574219 C 168.664062 210.570312 167.707031 210.753906 167.859375 209.457031 C 166.707031 208.878906 165.683594 208.070312 164.300781 208.03125 C 162.410156 207.964844 160.515625 207.855469 158.632812 207.589844 C 156.59375 207.316406 154.539062 207.28125 152.503906 206.929688 C 151.605469 206.757812 150.414062 206.808594 149.53125 207.078125 C 148.121094 207.511719 146.726562 206.996094 145.332031 207.195312 C 143.417969 207.480469 141.4375 206.855469 139.574219 206.234375 C 138.953125 206.042969 138.335938 205.769531 137.769531 206.015625 C 136.511719 206.539062 135.175781 206.421875 134.046875 206.082031 C 128.839844 204.523438 123.449219 204.769531 118.097656 204.269531 C 116.328125 204.089844 114.453125 204.417969 112.761719 203.570312 C 112.070312 203.214844 111.402344 203.8125 110.726562 203.890625 C 110.089844 203.972656 109.523438 202.835938 108.742188 204.015625 C 108.355469 204.585938 107.429688 203.46875 106.628906 203.621094 C 106.109375 203.75 105.570312 203.519531 105.035156 203.886719 C 104.789062 204.03125 104.273438 204.078125 104.160156 203.953125 C 103.164062 202.710938 101.574219 203.53125 100.425781 202.875 C 100.121094 202.699219 99.640625 202.75 99.246094 202.765625 C 97.777344 202.882812 97.808594 202.332031 96.085938 201.996094 C 93.9375 201.558594 93.289062 199.742188 91.84375 198.75 C 90.320312 197.675781 90.132812 197.546875 89.164062 199.269531 C 89.035156 199.460938 88.980469 199.734375 88.707031 199.679688 C 88.433594 199.625 88.363281 199.421875 88.378906 199.148438 C 88.402344 198.753906 88.542969 198.367188 88.289062 197.996094 C 87.996094 197.582031 88.238281 197.441406 88.589844 197.539062 C 89.796875 197.84375 89.90625 196.664062 90.523438 196.183594 C 90.730469 196.039062 90.621094 195.875 90.515625 195.632812 C 89.675781 193.726562 89.808594 192.746094 91.128906 190.40625 C 91.160156 190.527344 91.234375 190.652344 91.265625 190.808594 C 91.347656 190.734375 91.390625 190.660156 91.472656 190.625 C 91.355469 190.578125 91.199219 190.53125 91.085938 190.445312 C 91.160156 189.855469 90.519531 190.015625 90.296875 189.726562 C 90.074219 189.476562 89.613281 189.253906 90.152344 188.808594 C 90.523438 188.515625 90.847656 188.414062 91.09375 188.902344 C 91.59375 189.878906 91.960938 189.703125 92.167969 188.804688 C 92.277344 188.257812 92.191406 187.699219 92.988281 187.585938 C 93.347656 187.527344 93.832031 187.359375 94.003906 187.089844 C 94.222656 186.707031 93.546875 186.789062 93.523438 186.550781 C 93.496094 186.273438 93.8125 186.328125 94.003906 186.378906 C 94.628906 186.535156 95.273438 187.042969 95.308594 185.742188 C 95.339844 185.191406 95.957031 184.710938 96.265625 184.175781 C 97.011719 182.871094 98.113281 182.261719 99.570312 182.386719 C 101.183594 182.515625 102.621094 182.242188 103.988281 181.171875 C 104.816406 180.507812 105.957031 179.859375 107.171875 180.796875 C 108.722656 181.992188 110.417969 181.378906 111.804688 180.664062 C 113.351562 179.882812 114.753906 179.527344 116.394531 179.898438 C 116.628906 179.949219 116.902344 180.003906 117.105469 179.898438 C 118.976562 178.976562 121.09375 179.292969 123.066406 178.695312 C 125.320312 177.992188 127.78125 177.8125 130.132812 177.433594 C 131.210938 177.257812 132.289062 177.121094 133.371094 176.863281 C 138.574219 175.695312 143.753906 174.328125 148.988281 173.320312 C 152.1875 172.710938 155.320312 171.820312 158.550781 171.371094 C 159.1875 171.289062 159.753906 171.003906 160.320312 170.800781 C 160.644531 170.699219 160.664062 170.304688 160.644531 169.988281 C 160.585938 169.589844 160.324219 169.375 160.003906 169.4375 C 157.886719 169.832031 155.820312 169.320312 153.820312 168.96875 C 150.296875 168.375 146.875 169.484375 143.425781 168.933594 C 142.679688 168.8125 141.910156 169.164062 141.421875 169.414062 C 139.914062 170.238281 138.375 170.148438 136.804688 169.980469 C 134.289062 169.683594 131.789062 170.527344 129.246094 170.070312 C 128.503906 169.949219 127.660156 170.175781 126.980469 169.585938 C 126.828125 169.457031 126.515625 169.398438 126.316406 169.429688 C 123.703125 170.191406 121.144531 169.332031 118.53125 169.421875 C 118.054688 169.433594 117.621094 169.371094 117.140625 169.5 C 115.171875 170.0625 115.175781 170.023438 115.414062 172.09375 C 115.4375 172.332031 115.386719 172.566406 115.371094 172.800781 C 115.355469 173.117188 115.296875 173.46875 114.863281 173.445312 C 114.625 173.433594 114.519531 173.1875 114.535156 172.914062 C 114.511719 172.675781 114.445312 172.433594 114.335938 172.269531 C 114.300781 172.1875 114.027344 172.132812 113.945312 172.167969 C 113.824219 172.199219 113.734375 172.394531 113.6875 172.507812 C 113.644531 172.585938 113.640625 172.664062 113.675781 172.746094 C 113.984375 173.59375 114.40625 174.488281 113.457031 175.222656 C 112.667969 174.507812 113.234375 173.589844 113.082031 172.789062 C 113.027344 172.3125 113.171875 171.847656 113.121094 171.371094 C 113.039062 170.019531 112.664062 169.683594 111.289062 169.527344 C 108.539062 169.210938 105.796875 169.453125 103.023438 169.53125 C 102.269531 169.570312 101.921875 170.144531 101.394531 170.390625 C 99.566406 171.234375 97.515625 171.199219 95.695312 171.925781 C 94.964844 172.199219 94.535156 171.425781 93.941406 171.46875 C 92.59375 171.511719 91.355469 171.046875 90.066406 170.777344 C 89.753906 170.71875 89.3125 170.8125 89.164062 170.605469 C 87.914062 168.996094 86.15625 167.90625 84.980469 166.335938 C 84.609375 165.882812 84.015625 165.214844 83.960938 164.738281 C 83.859375 163.742188 81.691406 162.949219 83.574219 161.789062 C 83.519531 160.679688 83.9375 159.597656 83.523438 158.503906 C 83.457031 158.304688 83.28125 157.898438 83.363281 157.863281 C 84.511719 157.097656 84.46875 155.792969 85.003906 154.753906 C 85.53125 153.757812 86.714844 153.152344 87.667969 152.375 C 88.164062 151.96875 88.8125 151.6875 88.929688 151.023438 C 89.046875 150.316406 89.378906 150.058594 90.046875 150.175781 C 90.59375 150.246094 90.960938 150.03125 91.074219 149.484375 C 91.378906 148.273438 92.132812 147.527344 93.308594 147 C 94.242188 146.578125 94.886719 145.667969 95.101562 144.652344 C 95.316406 143.636719 95.691406 143.300781 96.648438 143.867188 C 96.839844 144 97.121094 143.933594 97.359375 143.910156 C 98.03125 143.90625 98.335938 143.410156 97.976562 142.757812 C 97.796875 142.429688 97.28125 142.441406 97.152344 141.960938 C 97.023438 141.4375 97.574219 140.757812 97.835938 141.050781 C 98.613281 142.003906 99.257812 141.089844 99.96875 141.089844 C 100.640625 141.089844 101.230469 140.449219 101.882812 141.515625 C 102.316406 142.210938 103.527344 141.765625 104.449219 140.871094 C 105.539062 139.785156 106.171875 139.742188 107.183594 140.75 C 107.371094 140.917969 107.480469 141.121094 107.667969 141.289062 C 108.527344 142.167969 108.527344 142.167969 109.488281 141.234375 C 109.699219 141.007812 109.914062 140.707031 110.300781 140.886719 C 110.53125 140.976562 110.597656 141.179688 110.664062 141.421875 C 110.722656 141.820312 110.289062 142.464844 110.957031 142.542969 C 111.429688 142.609375 111.996094 142.324219 112.445312 142.074219 C 112.609375 141.964844 112.558594 141.488281 112.617188 141.175781 C 112.621094 141.097656 112.625 141.015625 112.628906 140.9375 Z M 258.195312 183.019531 C 258.140625 183.964844 258.046875 184.910156 258.035156 185.859375 C 258.019531 186.84375 259.007812 188.917969 259.058594 188.722656 C 259.351562 187.710938 259.875 186.832031 259.667969 185.59375 C 259.40625 184 258.550781 182.289062 259.597656 180.609375 C 259.902344 180.113281 259.539062 179.539062 259.289062 179.050781 C 259.144531 178.804688 259.164062 178.449219 259.144531 178.132812 C 258.777344 178.308594 258.992188 178.675781 258.863281 178.90625 C 257.960938 180.160156 258.3125 181.644531 258.195312 183.019531 Z M 85.03125 138.152344 C 85.066406 138.269531 85.417969 138.332031 85.613281 138.382812 C 85.730469 138.386719 85.894531 138.277344 86.019531 138.207031 C 85.515625 137.308594 86.289062 136.917969 86.714844 136.347656 C 86.886719 136.121094 86.871094 135.722656 86.648438 135.472656 C 86.347656 135.140625 85.988281 135.199219 85.585938 135.375 C 84.894531 135.730469 84.976562 136.367188 84.941406 137 C 84.953125 137.433594 84.933594 137.828125 85.03125 138.152344 Z M 165.136719 135.332031 C 165.621094 135.160156 165.714844 134.847656 165.621094 134.449219 C 165.488281 133.964844 165.054688 133.941406 164.695312 134 C 164.019531 134.082031 163.203125 135.261719 163.445312 135.867188 C 163.476562 135.988281 163.671875 136.039062 163.785156 136.125 C 164.238281 135.832031 164.652344 135.5 165.136719 135.332031 Z M 195.539062 196.792969 C 195.292969 196.9375 194.945312 196.835938 194.625 196.898438 C 194.382812 196.964844 194.207031 197.308594 194.359375 197.398438 C 194.933594 197.707031 195.769531 197.636719 195.914062 198.59375 C 195.945312 198.710938 196.351562 198.539062 196.402344 198.304688 C 196.457031 198.070312 196.429688 197.832031 196.414062 198.105469 C 196.566406 196.847656 196.601562 196.21875 195.539062 196.792969 Z M 179.191406 134.980469 C 179.113281 135.648438 179.640625 136.113281 180.3125 136.109375 C 180.867188 136.101562 180.851562 135.707031 180.871094 135.3125 C 180.992188 134.605469 180.609375 134.347656 179.9375 134.390625 C 179.542969 134.328125 179.257812 134.507812 179.191406 134.980469 Z M 178.554688 128.777344 C 178.992188 128.722656 179.023438 128.167969 178.804688 127.839844 C 178.546875 127.46875 178.074219 127.445312 177.78125 127.742188 C 177.359375 128.195312 177.054688 128.730469 176.746094 129.265625 C 176.703125 129.34375 176.847656 129.550781 176.921875 129.632812 C 176.960938 129.675781 177.082031 129.640625 177.277344 129.691406 C 177.359375 128.945312 177.878906 128.855469 178.554688 128.777344 Z M 190.042969 134.644531 C 190.03125 134.167969 189.808594 133.917969 189.328125 133.972656 C 188.613281 134.050781 188.234375 134.464844 188.269531 135.214844 C 188.296875 135.457031 188.402344 135.660156 188.722656 135.636719 C 189.171875 135.347656 190.03125 135.554688 190.042969 134.644531 Z M 176.21875 135.089844 C 176.019531 135.117188 175.773438 135.300781 175.835938 135.582031 C 175.902344 135.820312 176.164062 136.074219 176.332031 135.925781 C 176.953125 135.367188 177.246094 135.816406 177.578125 136.230469 C 177.761719 136.480469 178.023438 136.730469 178.316406 136.472656 C 178.773438 136.101562 178.394531 135.804688 178.175781 135.476562 C 177.84375 135.023438 177.363281 135.152344 176.964844 135.167969 C 176.652344 135.113281 176.417969 135.058594 176.21875 135.089844 Z M 84.171875 141.460938 C 83.902344 141.367188 83.085938 142.507812 83.226562 142.792969 C 83.296875 142.953125 83.566406 143.089844 83.804688 143.101562 C 84.429688 143.175781 84.804688 142.84375 84.917969 142.296875 C 84.78125 141.890625 84.5625 141.5625 84.171875 141.460938 Z M 179.261719 141.386719 C 179.242188 141.78125 179.179688 142.136719 179.199219 142.53125 C 179.179688 142.847656 179.242188 143.167969 179.59375 143.226562 C 179.945312 143.285156 180.160156 143.019531 180.367188 142.835938 C 180.621094 142.574219 180.59375 142.292969 180.414062 142.007812 C 180.125 141.554688 179.691406 141.492188 179.222656 141.425781 Z M 252.953125 182.011719 C 252.1875 181.574219 251.167969 182.148438 251.03125 183.128906 C 251.023438 183.285156 251.09375 183.410156 251.125 183.570312 C 251.746094 183.089844 252.363281 182.652344 252.984375 182.171875 C 253.265625 182.109375 253.183594 182.144531 252.953125 182.011719 Z M 93.769531 130.460938 C 93.734375 130.417969 93.609375 130.492188 93.570312 130.527344 C 93.207031 131.300781 93.96875 131.855469 93.929688 132.566406 C 93.925781 132.605469 94.195312 132.699219 94.316406 132.667969 C 94.4375 132.632812 94.527344 132.480469 94.65625 132.289062 C 94.085938 131.863281 94.496094 130.9375 93.769531 130.460938 Z M 96.433594 133.695312 C 96.496094 133.265625 96.316406 132.976562 95.847656 132.910156 C 95.414062 132.847656 95.128906 133.027344 95.0625 133.5 C 94.996094 133.929688 95.140625 134.214844 95.726562 134.289062 C 96.082031 134.347656 96.367188 134.167969 96.433594 133.695312 Z M 112.308594 141 C 112.320312 140.839844 112.328125 140.683594 112.335938 140.527344 C 112.449219 139.898438 112.277344 139.457031 111.523438 139.492188 C 111.167969 139.511719 110.996094 139.738281 110.941406 140.050781 C 110.816406 140.835938 111.285156 140.941406 111.878906 140.933594 C 112.035156 140.945312 112.195312 140.914062 112.355469 140.921875 C 112.351562 140.960938 112.308594 141 112.308594 141 Z M 186.84375 135.253906 C 186.605469 135.28125 186.367188 135.347656 186.425781 135.664062 C 186.523438 136.027344 186.742188 136.394531 187.132812 136.457031 C 187.523438 136.519531 187.585938 136.167969 187.640625 135.851562 C 187.550781 135.375 187.242188 135.238281 186.84375 135.253906 Z M 179.222656 141.425781 C 179.234375 141.1875 179.207031 140.988281 179.21875 140.753906 C 179.238281 140.4375 179.21875 140.082031 178.863281 140.0625 C 178.351562 140.03125 178.015625 140.410156 177.949219 140.878906 C 177.886719 141.269531 178.28125 141.292969 178.554688 141.308594 C 178.792969 141.324219 179.027344 141.375 179.222656 141.386719 Z M 93.917969 134.859375 C 93.929688 134.660156 93.828125 134.339844 93.714844 134.253906 C 93.367188 134.113281 93.117188 134.296875 93.097656 134.691406 C 93.082031 134.96875 92.980469 135.320312 93.367188 135.460938 C 93.839844 135.484375 93.9375 135.175781 93.917969 134.859375 Z M 92.109375 137.445312 C 92.175781 137.683594 92.320312 137.890625 92.566406 137.785156 C 92.886719 137.6875 92.984375 137.375 92.882812 137.054688 C 92.816406 136.851562 92.707031 136.648438 92.429688 136.671875 C 92.105469 136.851562 92.007812 137.121094 92.109375 137.445312 Z M 191.117188 142.929688 C 191.09375 143.324219 191.359375 143.535156 191.679688 143.4375 C 192.003906 143.335938 192.023438 142.941406 191.960938 142.660156 C 191.933594 142.421875 191.828125 142.21875 191.550781 142.242188 C 191.191406 142.300781 191.132812 142.613281 191.117188 142.929688 Z M 173.347656 136.941406 C 173.414062 137.144531 173.644531 137.273438 173.886719 137.171875 C 174.011719 137.097656 174.097656 136.945312 174.105469 136.828125 C 174.078125 136.585938 173.929688 136.421875 173.652344 136.40625 C 173.410156 136.511719 173.238281 136.738281 173.347656 136.941406 Z M 181.691406 138.324219 C 181.570312 138.355469 181.445312 138.46875 181.398438 138.582031 C 181.304688 138.816406 181.453125 139.023438 181.691406 139.035156 C 181.921875 139.085938 182.089844 138.9375 182.105469 138.703125 C 182.078125 138.464844 181.96875 138.300781 181.691406 138.324219 Z M 88.558594 147.800781 C 88.167969 147.738281 87.992188 148.003906 88.054688 148.324219 C 88.082031 148.523438 88.226562 148.769531 88.546875 148.707031 C 88.789062 148.644531 88.949219 148.574219 88.964844 148.296875 C 88.941406 148.019531 88.792969 147.851562 88.558594 147.800781 Z M 250.691406 180.777344 C 250.636719 181.050781 250.785156 181.21875 251.058594 181.234375 C 251.179688 181.238281 251.304688 181.128906 251.425781 181.054688 C 251.277344 180.890625 251.132812 180.683594 250.949219 180.4375 C 250.820312 180.585938 250.695312 180.699219 250.691406 180.777344 Z M 254.167969 180.105469 C 253.96875 180.132812 253.765625 180.238281 253.566406 180.269531 C 253.605469 180.308594 253.679688 180.394531 253.714844 180.433594 C 253.90625 180.5625 254.097656 180.652344 254.3125 180.390625 C 254.277344 180.308594 254.207031 180.105469 254.167969 180.105469 Z M 266.84375 181.808594 C 266.722656 181.804688 266.597656 181.914062 266.441406 181.945312 C 266.554688 182.03125 266.664062 182.15625 266.78125 182.164062 C 266.902344 182.167969 267.027344 182.058594 267.148438 182.023438 C 267.074219 181.941406 266.960938 181.816406 266.84375 181.808594 Z M 265.191406 186.539062 C 265.1875 186.578125 265.261719 186.664062 265.296875 186.742188 C 265.382812 186.628906 265.46875 186.554688 265.511719 186.441406 C 265.515625 186.359375 265.402344 186.273438 265.332031 186.152344 C 265.285156 186.269531 265.199219 186.421875 265.191406 186.539062 Z M 182.046875 142.535156 C 182.078125 142.65625 182.148438 142.777344 182.179688 142.9375 C 182.261719 142.863281 182.304688 142.824219 182.386719 142.75 C 182.273438 142.664062 182.121094 142.617188 182.046875 142.535156 Z M 92 204.335938 C 92.085938 204.21875 92.550781 204.40625 92.253906 204.03125 C 92.167969 204.144531 92.125 204.261719 92.039062 204.375 Z M 92.039062 204.375 C 91.914062 204.449219 91.488281 204.304688 91.78125 204.71875 C 91.867188 204.601562 91.914062 204.488281 92 204.335938 Z M 182.003906 142.53125 C 181.972656 142.410156 181.902344 142.289062 181.867188 142.167969 C 181.785156 142.242188 181.742188 142.28125 181.660156 142.355469 C 181.816406 142.402344 181.929688 142.488281 182.003906 142.53125 Z M 200.703125 199.890625 C 200.523438 200.238281 200.65625 200.71875 200.671875 201.152344 C 201.066406 201.136719 201.460938 201.160156 201.855469 201.140625 C 202.175781 201.121094 202.523438 201.21875 202.730469 201.074219 C 202.976562 200.890625 203.285156 200.351562 203.175781 200.1875 C 202.921875 199.820312 202.5 199.558594 201.96875 199.132812 C 201.398438 199.496094 200.878906 199.585938 200.703125 199.890625 Z M 202.050781 211.710938 C 201.355469 212.105469 200.769531 212.664062 200.1875 213.1875 C 200.410156 213.394531 200.742188 213.851562 200.863281 213.816406 C 201.585938 213.582031 202.242188 213.222656 203.417969 212.695312 C 202.695312 212.140625 202.214844 211.601562 202.050781 211.710938 Z M 203.078125 206.785156 C 203.417969 207.121094 203.792969 207.417969 204.214844 207.679688 C 204.292969 207.726562 204.589844 207.347656 204.757812 207.15625 C 204.421875 206.824219 204.085938 206.449219 203.601562 205.945312 C 203.339844 206.367188 203.042969 206.746094 203.078125 206.785156 Z M 201.039062 217.703125 C 201.292969 217.359375 201.664062 217.105469 201.765625 216.714844 C 201.816406 216.519531 201.414062 215.984375 201.253906 215.972656 C 200.894531 216.03125 200.566406 216.289062 200.074219 216.578125 C 200.519531 217.078125 200.78125 217.371094 201.039062 217.703125 Z M 203.949219 198.375 C 203.929688 198.058594 203.550781 197.757812 203.328125 197.46875 C 203.078125 197.691406 202.675781 197.867188 202.660156 198.105469 C 202.605469 198.378906 202.902344 198.710938 203.363281 199.644531 C 203.636719 199.027344 203.972656 198.691406 203.949219 198.375 Z M 204.121094 203.722656 C 204.21875 204.121094 204.515625 204.457031 204.691406 204.820312 C 204.945312 204.558594 205.394531 204.308594 205.367188 204.070312 C 205.308594 203.710938 204.96875 203.414062 204.566406 202.835938 C 204.347656 203.261719 204.09375 203.523438 204.121094 203.722656 Z M 206.667969 206.238281 C 206.683594 206 206.300781 205.742188 206.078125 205.492188 C 205.828125 205.714844 205.421875 205.929688 205.40625 206.167969 C 205.390625 206.441406 205.691406 206.738281 205.980469 207.1875 C 206.320312 206.773438 206.695312 206.476562 206.667969 206.238281 Z M 207.527344 211.347656 C 207.867188 211.605469 208.167969 211.898438 208.554688 212.039062 C 208.671875 212.085938 209.125 211.714844 209.097656 211.554688 C 209.042969 211.117188 208.828125 210.710938 208.621094 210.144531 C 207.945312 210.898438 207.738281 211.121094 207.527344 211.347656 Z M 198.375 215.179688 C 198.15625 214.851562 197.816406 214.554688 197.554688 214.261719 C 197.386719 214.449219 197.015625 214.707031 197.050781 214.828125 C 197.148438 215.1875 197.410156 215.441406 197.773438 215.976562 C 198.113281 215.558594 198.449219 215.222656 198.375 215.179688 Z M 204.671875 208.695312 C 204.714844 208.617188 204.382812 208.203125 204.1875 208.152344 C 203.953125 208.101562 203.703125 208.324219 203.421875 208.425781 C 203.5625 208.75 203.660156 209.074219 203.867188 209.597656 C 204.246094 209.222656 204.535156 209.003906 204.671875 208.695312 Z M 204.671875 208.695312 " fill-opacity="1" fill-rule="nonzero"/></g></g></g><g fill="#2b2b2b" fill-opacity="1"><g transform="translate(73.722656, 182.32849)"><g><path d="M 4.183594 -9.195312 C 4.039062 -7.597656 3.972656 -5.625 3.992188 -3.277344 L 4.046875 -0.304688 L 4.101562 2.671875 L 4.074219 2.972656 L 4.019531 3.277344 C 3.945312 3.496094 3.789062 3.589844 3.550781 3.550781 C 2.503906 3.351562 1.835938 2.917969 1.542969 2.257812 C 1.265625 1.671875 1.09375 0.945312 1.019531 0.0820312 L 0.9375 -1.019531 L 0.882812 -2.148438 C 0.292969 -7.78125 0.046875 -12.335938 0.136719 -15.804688 L 0.304688 -20.8125 L 0.578125 -25.824219 C 0.597656 -26.171875 0.6875 -26.632812 0.851562 -27.203125 C 0.964844 -27.625 1.238281 -27.824219 1.679688 -27.808594 C 2.082031 -27.789062 2.320312 -27.558594 2.394531 -27.117188 C 2.523438 -26.421875 2.855469 -25.796875 3.386719 -25.246094 L 3.9375 -26.046875 L 4.460938 -26.84375 C 6.9375 -31.082031 10.699219 -32.9375 15.75 -32.40625 C 16.539062 -32.332031 17.214844 -31.992188 17.785156 -31.386719 C 18.152344 -30.964844 18.539062 -30.3125 18.941406 -29.429688 C 19.199219 -28.917969 19.4375 -28.660156 19.65625 -28.660156 C 19.804688 -28.679688 20.078125 -28.878906 20.484375 -29.265625 C 23.769531 -32.332031 26.808594 -34.058594 29.597656 -34.441406 C 30.84375 -34.605469 31.78125 -34.535156 32.40625 -34.222656 C 33.046875 -33.890625 33.625 -33.167969 34.140625 -32.046875 C 35.113281 -29.863281 35.765625 -27.203125 36.09375 -24.0625 C 36.203125 -23.070312 36.3125 -21.714844 36.425781 -19.988281 L 36.699219 -15.886719 L 37.003906 -12.335938 L 37.25 -8.78125 C 37.378906 -6.140625 37.378906 -3.761719 37.25 -1.652344 C 36.976562 2.789062 36.046875 6.277344 34.46875 8.808594 C 33.71875 10.023438 32.734375 10.269531 31.523438 9.554688 L 30.476562 8.921875 L 29.457031 8.230469 C 28.726562 7.699219 28.148438 7.128906 27.722656 6.523438 C 26.734375 5.113281 26.355469 3.449219 26.59375 1.542969 C 26.652344 1.121094 26.660156 0.613281 26.625 0.0273438 L 26.457031 -1.515625 C 26.3125 -3.40625 26.257812 -5.636719 26.292969 -8.203125 L 26.347656 -11.5625 L 26.429688 -14.921875 L 26.539062 -17.457031 L 26.679688 -19.988281 C 26.789062 -22.023438 26.796875 -23.714844 26.707031 -25.054688 L 26.679688 -25.496094 L 26.652344 -25.960938 C 26.578125 -26.292969 26.414062 -26.511719 26.15625 -26.625 C 25.878906 -26.734375 25.613281 -26.6875 25.355469 -26.484375 L 25.054688 -26.15625 L 24.777344 -25.824219 L 24.035156 -25 L 23.292969 -24.199219 C 22.722656 -23.613281 22.171875 -23.144531 21.640625 -22.796875 C 21.164062 -22.503906 20.925781 -22.082031 20.925781 -21.53125 L 20.953125 -14.097656 C 20.953125 -11.195312 21.070312 -8.746094 21.308594 -6.746094 C 21.660156 -3.699219 21.402344 -0.640625 20.539062 2.421875 C 20.355469 3.082031 19.933594 3.726562 19.273438 4.351562 C 18.574219 5.027344 17.804688 5.488281 16.960938 5.726562 L 16.105469 5.945312 L 15.28125 6.167969 C 13.738281 6.644531 12.914062 6.03125 12.800781 4.324219 C 12.617188 1.09375 12.5 -3.304688 12.445312 -8.863281 L 12.363281 -15.472656 L 12.195312 -22.054688 C 12.179688 -22.695312 12.09375 -23.4375 11.949219 -24.28125 L 11.507812 -26.457031 C 11.398438 -27.007812 11.09375 -27.136719 10.601562 -26.84375 C 9.222656 -26.015625 8.378906 -25.0625 8.066406 -23.980469 C 7.863281 -23.300781 7.480469 -22.503906 6.910156 -21.585938 L 6.195312 -20.484375 L 5.507812 -19.355469 C 4.972656 -18.382812 4.625 -17.226562 4.460938 -15.886719 L 4.296875 -14.125 L 4.210938 -12.363281 L 4.15625 -10.792969 Z M 4.183594 -9.195312 "/></g></g></g><g fill="#2b2b2b" fill-opacity="1"><g transform="translate(116.667523, 182.32849)"><g><path d="M 17.484375 -9.445312 C 17.59375 -10.195312 17.253906 -10.691406 16.464844 -10.929688 C 8.039062 -13.425781 3.011719 -18.445312 1.375 -25.988281 C 1.101562 -27.3125 0.851562 -28.925781 0.632812 -30.835938 L 0.359375 -33.230469 L 0.0820312 -35.679688 L 0.0273438 -36.121094 L 0 -36.5625 C 0.0546875 -36.929688 0.273438 -37.140625 0.660156 -37.195312 C 1.339844 -37.324219 1.871094 -36.984375 2.257812 -36.175781 C 2.644531 -35.332031 3.046875 -34.351562 3.46875 -33.230469 L 4.542969 -30.257812 C 5.460938 -27.761719 6.304688 -25.824219 7.074219 -24.449219 L 8.011719 -22.660156 L 8.976562 -20.8125 C 9.726562 -19.417969 10.507812 -18.355469 11.316406 -17.621094 L 12.308594 -16.710938 L 13.40625 -15.832031 C 14.308594 -15.171875 15.179688 -14.765625 16.023438 -14.621094 C 17.527344 -14.324219 18.398438 -14.902344 18.640625 -16.355469 L 20.207031 -25.632812 C 20.796875 -29.339844 21.21875 -32.15625 21.476562 -34.085938 C 21.660156 -35.425781 22.308594 -36.09375 23.429688 -36.09375 L 24.308594 -36.175781 L 25.273438 -36.257812 C 25.988281 -36.257812 26.613281 -36.003906 27.144531 -35.488281 C 27.863281 -34.753906 28.230469 -33.761719 28.246094 -32.515625 C 28.265625 -31.210938 28.550781 -29.53125 29.101562 -27.476562 C 29.136719 -27.273438 29.15625 -27.007812 29.15625 -26.679688 L 29.128906 -26.320312 L 29.15625 -25.933594 C 29.835938 -23.144531 30.09375 -19.988281 29.925781 -16.464844 C 29.855469 -15.105469 29.714844 -13.535156 29.515625 -11.757812 L 28.9375 -7.046875 L 28.136719 -0.964844 L 27.394531 5.148438 C 26.75 9.847656 26.089844 13.886719 25.410156 17.261719 C 24.804688 20.179688 22.714844 23.183594 19.132812 26.265625 C 17.996094 27.21875 16.921875 26.972656 15.914062 25.523438 C 15.289062 24.621094 14.886719 23.546875 14.703125 22.300781 L 14.535156 20.59375 L 14.535156 18.886719 C 14.519531 12.445312 15.113281 5.210938 16.328125 -2.808594 Z M 17.484375 -9.445312 "/></g></g></g><g fill="#2b2b2b" fill-opacity="1"><g transform="translate(152.840315, 182.32849)"><g/></g></g><g fill="#2b2b2b" fill-opacity="1"><g transform="translate(169.357571, 182.32849)"><g><path d="M 27.78125 -8.148438 C 27.414062 -4.460938 26.777344 -1.128906 25.878906 1.84375 L 25.769531 2.09375 L 25.632812 2.394531 C 25.578125 2.617188 25.652344 2.773438 25.851562 2.863281 C 26 2.9375 26.136719 2.890625 26.265625 2.726562 L 26.429688 2.476562 L 26.566406 2.257812 L 26.789062 2.066406 L 27.035156 1.898438 L 27.0625 2.230469 L 27.035156 2.503906 C 26.246094 4.394531 25.015625 5.882812 23.347656 6.964844 C 21.511719 8.140625 19.628906 8.5 17.703125 8.039062 C 9.957031 6.183594 5.734375 0.964844 5.039062 -7.625 C 4.414062 -15.480469 4.257812 -23.0625 4.570312 -30.367188 C 4.605469 -31.066406 4.175781 -31.378906 3.277344 -31.304688 L 1.433594 -31.136719 L -0.414062 -30.972656 C -1.84375 -30.84375 -3.074219 -30.808594 -4.101562 -30.863281 L -4.515625 -30.890625 L -4.957031 -30.945312 C -5.285156 -31.019531 -5.460938 -31.183594 -5.480469 -31.441406 C -5.496094 -31.660156 -5.359375 -31.835938 -5.066406 -31.964844 L -4.652344 -32.101562 L -4.265625 -32.210938 C -1.238281 -32.945312 1.320312 -33.378906 3.414062 -33.507812 C 4.40625 -33.5625 4.929688 -34.085938 4.984375 -35.074219 C 5.277344 -40.195312 5.699219 -44.636719 6.25 -48.402344 L 6.304688 -49.171875 L 6.359375 -49.996094 C 6.453125 -50.601562 6.734375 -50.898438 7.214844 -50.878906 L 8.535156 -50.90625 C 9.085938 -50.90625 9.535156 -50.878906 9.882812 -50.824219 C 10.894531 -50.675781 11.644531 -50.179688 12.140625 -49.335938 C 12.839844 -48.179688 13.351562 -46.757812 13.683594 -45.070312 L 14.011719 -42.839844 L 14.289062 -40.582031 C 14.5625 -38.488281 14.785156 -36.46875 14.949219 -34.523438 C 15.003906 -33.902344 15.410156 -33.589844 16.160156 -33.589844 L 18.335938 -33.589844 L 20.511719 -33.617188 C 22.179688 -33.578125 23.621094 -33.414062 24.832031 -33.121094 L 25.136719 -33.066406 L 25.4375 -33.039062 C 25.679688 -32.984375 25.851562 -32.855469 25.960938 -32.652344 L 25.355469 -32.433594 L 24.777344 -32.265625 L 16.628906 -31.414062 C 15.785156 -31.320312 15.363281 -30.898438 15.363281 -30.148438 L 15.28125 -17.015625 L 15.253906 -3.910156 C 15.269531 -2.953125 15.371094 -1.78125 15.554688 -0.386719 L 15.804688 1.402344 L 16.050781 3.167969 L 16.132812 3.550781 L 16.269531 3.910156 C 16.894531 5.761719 17.839844 6 19.105469 4.625 C 23.070312 0.3125 25.558594 -4.550781 26.566406 -9.964844 L 26.59375 -10.351562 L 26.652344 -10.738281 C 26.722656 -11.011719 26.878906 -11.148438 27.117188 -11.148438 C 27.429688 -11.132812 27.578125 -10.984375 27.558594 -10.710938 L 27.476562 -10.351562 L 27.476562 -9.992188 L 27.640625 -9.003906 Z M 27.78125 -8.148438 "/></g></g></g><g fill="#2b2b2b" fill-opacity="1"><g transform="translate(202.639849, 182.32849)"><g><path d="M 18.253906 -19.601562 C 18.179688 -21.824219 17.226562 -23.519531 15.390625 -24.695312 C 14.492188 -25.265625 13.464844 -25.328125 12.308594 -24.890625 C 11.148438 -24.449219 10.507812 -23.703125 10.378906 -22.660156 C 10.304688 -22.109375 10.195312 -21.476562 10.050781 -20.757812 L 9.609375 -18.886719 C 9.242188 -17.308594 9.03125 -16.050781 8.976562 -15.113281 C 8.882812 -13.296875 9.242188 -11.617188 10.050781 -10.078125 C 10.894531 -8.5 12.066406 -7.351562 13.574219 -6.636719 C 14.675781 -6.085938 15.5 -6.304688 16.050781 -7.296875 C 17.8125 -10.507812 18.582031 -13.847656 18.363281 -17.316406 Z M 0 -15.085938 C -0.0351562 -19.988281 1.265625 -24.015625 3.910156 -27.171875 C 5.15625 -28.640625 6.691406 -29.640625 8.507812 -30.175781 C 10.433594 -30.726562 12.324219 -30.632812 14.179688 -29.898438 C 17.207031 -28.6875 19.34375 -26.171875 20.59375 -22.355469 C 20.925781 -21.363281 21.109375 -20.179688 21.144531 -18.804688 L 21.171875 -16.988281 L 21.117188 -15.140625 C 21.023438 -9.414062 19.953125 -5.167969 17.894531 -2.394531 C 16.261719 -0.175781 14.234375 0.503906 11.8125 -0.359375 L 9.992188 -0.9375 L 8.175781 -1.515625 C 6.761719 -1.992188 5.636719 -2.617188 4.789062 -3.386719 C 1.671875 -6.230469 0.0742188 -10.132812 0 -15.085938 Z M 0 -15.085938 "/></g></g></g><g fill="#2b2b2b" fill-opacity="1"><g transform="translate(229.315224, 182.32849)"><g/></g></g><g fill="#2b2b2b" fill-opacity="1"><g transform="translate(245.83248, 182.32849)"><g><path d="M 12.746094 -13.546875 L 12.800781 -16.765625 L 12.914062 -19.960938 C 12.949219 -20.859375 12.535156 -21.171875 11.671875 -20.898438 C 10.351562 -20.457031 8.9375 -19.742188 7.433594 -18.75 C 6.441406 -18.105469 5.882812 -17.410156 5.753906 -16.65625 C 5.367188 -14.507812 5.257812 -12.710938 5.421875 -11.261719 C 5.734375 -8.5625 7.195312 -7.496094 9.800781 -8.066406 L 10.460938 -8.230469 L 11.09375 -8.425781 C 12.066406 -8.664062 12.5625 -9.289062 12.582031 -10.296875 L 12.800781 -13.546875 Z M 22.546875 -19.601562 C 22.546875 -16.921875 22.640625 -13.832031 22.824219 -10.324219 C 23.117188 -4.726562 22.347656 -0.164062 20.511719 3.359375 L 20.125 4.210938 L 19.742188 5.09375 C 19.390625 5.773438 19.070312 6.367188 18.777344 6.882812 C 18.355469 7.5625 17.941406 8.140625 17.539062 8.617188 C 16.472656 9.828125 15.410156 10.34375 14.34375 10.160156 C 13.921875 10.085938 13.582031 9.535156 13.324219 8.507812 C 13.085938 7.515625 13.058594 6.71875 13.242188 6.113281 C 13.335938 5.746094 13.269531 5.3125 13.050781 4.816406 L 12.746094 4.238281 C 12.65625 4 12.609375 3.789062 12.609375 3.605469 L 12.417969 1.128906 L 12.222656 -1.347656 C 12.207031 -1.828125 11.949219 -2.011719 11.453125 -1.898438 C 9.433594 -1.496094 7.285156 -2.109375 5.011719 -3.746094 C 2.773438 -5.359375 1.449219 -7.214844 1.046875 -9.304688 C 0.347656 -12.792969 0.835938 -15.472656 2.503906 -17.34375 C 4.964844 -20.097656 8.066406 -21.988281 11.8125 -23.015625 C 12.601562 -23.238281 13.011719 -23.742188 13.050781 -24.53125 C 13.363281 -30.753906 13.675781 -36.460938 13.984375 -41.65625 C 14.042969 -42.480469 14.59375 -43.261719 15.636719 -43.996094 C 16.664062 -44.730469 17.695312 -45.070312 18.722656 -45.015625 C 19.621094 -44.976562 20.375 -44.691406 20.980469 -44.160156 C 21.585938 -43.628906 21.878906 -42.976562 21.859375 -42.207031 C 21.824219 -41.527344 21.851562 -40.71875 21.941406 -39.785156 L 22.082031 -38.570312 L 22.21875 -37.359375 C 22.824219 -31.230469 22.933594 -25.3125 22.546875 -19.601562 Z M 22.546875 -19.601562 "/></g></g></g><g fill="#2b2b2b" fill-opacity="1"><g transform="translate(274.600053, 182.32849)"><g><path d="M 18.253906 -19.601562 C 18.179688 -21.824219 17.226562 -23.519531 15.390625 -24.695312 C 14.492188 -25.265625 13.464844 -25.328125 12.308594 -24.890625 C 11.148438 -24.449219 10.507812 -23.703125 10.378906 -22.660156 C 10.304688 -22.109375 10.195312 -21.476562 10.050781 -20.757812 L 9.609375 -18.886719 C 9.242188 -17.308594 9.03125 -16.050781 8.976562 -15.113281 C 8.882812 -13.296875 9.242188 -11.617188 10.050781 -10.078125 C 10.894531 -8.5 12.066406 -7.351562 13.574219 -6.636719 C 14.675781 -6.085938 15.5 -6.304688 16.050781 -7.296875 C 17.8125 -10.507812 18.582031 -13.847656 18.363281 -17.316406 Z M 0 -15.085938 C -0.0351562 -19.988281 1.265625 -24.015625 3.910156 -27.171875 C 5.15625 -28.640625 6.691406 -29.640625 8.507812 -30.175781 C 10.433594 -30.726562 12.324219 -30.632812 14.179688 -29.898438 C 17.207031 -28.6875 19.34375 -26.171875 20.59375 -22.355469 C 20.925781 -21.363281 21.109375 -20.179688 21.144531 -18.804688 L 21.171875 -16.988281 L 21.117188 -15.140625 C 21.023438 -9.414062 19.953125 -5.167969 17.894531 -2.394531 C 16.261719 -0.175781 14.234375 0.503906 11.8125 -0.359375 L 9.992188 -0.9375 L 8.175781 -1.515625 C 6.761719 -1.992188 5.636719 -2.617188 4.789062 -3.386719 C 1.671875 -6.230469 0.0742188 -10.132812 0 -15.085938 Z M 0 -15.085938 "/></g></g></g></svg>