<svg xmlns="http://www.w3.org/2000/svg" xmlns:xlink="http://www.w3.org/1999/xlink" width="500" zoomAndPan="magnify" viewBox="0 0 375 374.999991" height="500" preserveAspectRatio="xMidYMid meet" version="1.0"><defs><clipPath id="d05a44d714"><path d="M 88 55 L 300 55 L 300 305 L 88 305 Z M 88 55 " clip-rule="nonzero"/></clipPath><clipPath id="be24401262"><path d="M 58.765625 286.910156 L 172.828125 9.441406 L 316.421875 68.46875 L 202.355469 345.9375 Z M 58.765625 286.910156 " clip-rule="nonzero"/></clipPath><clipPath id="a1e8691e85"><path d="M 58.765625 286.910156 L 172.828125 9.441406 L 316.421875 68.46875 L 202.355469 345.9375 Z M 58.765625 286.910156 " clip-rule="nonzero"/></clipPath><clipPath id="82d8e51d47"><path d="M 58.765625 286.910156 L 172.828125 9.441406 L 316.421875 68.46875 L 202.355469 345.9375 Z M 58.765625 286.910156 " clip-rule="nonzero"/></clipPath></defs><g clip-path="url(#d05a44d714)"><g clip-path="url(#be24401262)"><g clip-path="url(#a1e8691e85)"><g clip-path="url(#82d8e51d47)"><path fill="#010101" d="M 155.035156 200.820312 L 158.550781 200.777344 C 158.558594 204.535156 158.378906 208.28125 157.875 212.023438 L 154.402344 211.5 C 154.902344 208.082031 155.035156 204.445312 155.035156 200.820312 Z M 148.582031 226.914062 L 151.5 228.953125 C 153.707031 225.785156 155.410156 222.277344 156.503906 218.515625 L 153.097656 217.503906 C 152.164062 220.875 150.601562 224.054688 148.582031 226.914062 Z M 134.859375 237.457031 L 136.667969 240.46875 C 139.933594 238.507812 143.003906 236.078125 145.675781 233.359375 L 143.128906 230.886719 C 140.714844 233.457031 137.867188 235.652344 134.859375 237.457031 Z M 119.332031 242.792969 L 119.699219 246.308594 C 123.558594 245.890625 127.273438 244.890625 130.84375 243.449219 L 129.476562 240.164062 C 126.191406 241.535156 122.769531 242.457031 119.332031 242.792969 Z M 103.511719 239.851562 L 101.890625 243.003906 C 105.355469 244.816406 109.148438 245.988281 113.046875 246.425781 L 113.457031 242.902344 C 109.9375 242.492188 106.554688 241.425781 103.511719 239.851562 Z M 92.859375 228.285156 L 89.566406 229.519531 C 90.941406 233.257812 93.390625 236.597656 96.347656 239.171875 L 98.671875 236.503906 C 96.039062 234.253906 94.03125 231.421875 92.859375 228.285156 Z M 91.902344 217.535156 C 92.1875 215.902344 92.570312 214.183594 93.296875 212.730469 L 90.097656 211.222656 C 88.425781 214.808594 87.898438 218.929688 88.082031 222.890625 L 91.609375 222.65625 C 91.539062 220.945312 91.597656 219.222656 91.902344 217.535156 Z M 100.75 205.308594 C 102.246094 204.5 103.867188 203.871094 105.527344 203.453125 L 104.601562 200.03125 C 100.757812 201.039062 97.160156 202.859375 94.21875 205.601562 L 96.664062 208.160156 C 97.875 207.105469 99.21875 206.039062 100.75 205.308594 Z M 116.585938 202.691406 C 118.273438 202.996094 119.960938 203.300781 121.589844 203.90625 L 122.769531 200.570312 C 120.917969 199.875 119.007812 199.476562 117.054688 199.191406 C 115.132812 198.984375 113.1875 198.832031 111.183594 198.980469 L 111.363281 202.484375 C 113.097656 202.355469 114.855469 202.496094 116.585938 202.691406 Z M 135.003906 213.175781 L 137.59375 210.808594 C 134.996094 207.992188 132.097656 205.441406 128.777344 203.429688 L 126.960938 206.4375 C 129.890625 208.289062 132.636719 210.582031 135.003906 213.175781 Z M 144.199219 227.183594 L 147.394531 225.714844 C 145.769531 222.261719 143.886719 218.964844 141.726562 215.875 L 138.871094 217.9375 C 140.914062 220.847656 142.671875 223.964844 144.199219 227.183594 Z M 149.523438 243.679688 L 153.042969 243.3125 C 152.601562 239.507812 151.789062 235.808594 150.613281 232.214844 L 147.253906 233.296875 C 148.335938 236.652344 149.101562 240.140625 149.523438 243.679688 Z M 148.519531 260.296875 L 151.9375 261.117188 C 152.820312 257.402344 153.289062 253.582031 153.304688 249.765625 L 149.757812 249.734375 C 149.777344 253.300781 149.367188 256.824219 148.519531 260.296875 Z M 142.058594 275.703125 L 145.042969 277.578125 C 147.085938 274.339844 148.796875 270.960938 150.089844 267.351562 L 146.777344 266.117188 C 145.574219 269.507812 143.957031 272.664062 142.058594 275.703125 Z M 130.976562 288.171875 L 133.21875 290.90625 C 136.152344 288.488281 138.882812 285.792969 141.246094 282.878906 L 138.53125 280.660156 C 136.234375 283.410156 133.710938 285.929688 130.976562 288.171875 Z M 116.570312 296.753906 L 117.886719 300.015625 C 121.402344 298.546875 124.765625 296.820312 127.945312 294.761719 L 125.980469 291.816406 C 123.039062 293.78125 119.851562 295.382812 116.570312 296.753906 Z M 100.253906 300.535156 L 100.488281 304.0625 C 104.28125 303.808594 108.046875 303.15625 111.703125 302.132812 L 110.78125 298.710938 C 107.335938 299.691406 103.804688 300.246094 100.253906 300.535156 Z M 287.011719 67.191406 L 290.207031 65.722656 C 288.671875 62.371094 287.003906 59.03125 285.386719 55.710938 L 282.226562 57.261719 C 283.839844 60.578125 285.476562 63.84375 287.011719 67.191406 Z M 293.234375 83.085938 L 296.625 82.085938 C 295.523438 78.460938 294.246094 74.957031 292.808594 71.519531 L 289.527344 72.886719 C 290.929688 76.25 292.175781 79.675781 293.234375 83.085938 Z M 296.042969 99.714844 L 299.582031 99.617188 C 299.460938 95.8125 299.019531 92.003906 298.210938 88.304688 L 294.746094 89.015625 C 295.488281 92.558594 295.96875 96.125 296.042969 99.714844 Z M 293.054688 115.96875 L 296.320312 117.308594 C 297.722656 113.742188 298.683594 109.992188 299.207031 106.195312 L 295.710938 105.726562 C 295.296875 109.25 294.398438 112.699219 293.054688 115.96875 Z M 283.675781 129.332031 L 285.917969 132.066406 C 288.957031 129.5625 291.441406 126.503906 293.429688 123.242188 L 290.421875 121.425781 C 288.570312 124.351562 286.332031 127.121094 283.675781 129.332031 Z M 268.820312 135.074219 L 268.996094 138.578125 C 272.902344 138.371094 276.804688 137.386719 280.300781 135.648438 L 278.753906 132.488281 C 275.644531 134.058594 272.246094 134.929688 268.820312 135.074219 Z M 252.851562 131.550781 L 251.398438 134.773438 C 254.820312 136.375 258.507812 137.632812 262.339844 138.238281 L 262.917969 134.785156 C 259.464844 134.207031 256.074219 133.007812 252.851562 131.550781 Z M 238.167969 122.859375 L 236.183594 125.800781 C 239.265625 127.910156 242.390625 129.90625 245.644531 131.761719 L 247.40625 128.730469 C 244.265625 126.921875 241.195312 124.949219 238.167969 122.859375 Z M 223.726562 113.105469 L 221.851562 116.089844 C 224.925781 118.066406 227.972656 120.09375 230.976562 122.238281 L 233.019531 119.320312 C 229.9375 117.210938 226.855469 115.101562 223.726562 113.105469 Z M 207.910156 105.113281 L 206.789062 108.472656 C 210.148438 109.59375 213.402344 111.128906 216.566406 112.882812 L 218.296875 109.773438 C 214.945312 108.007812 211.492188 106.328125 207.910156 105.113281 Z M 189.910156 103.542969 L 190.546875 107.039062 C 193.964844 106.4375 197.457031 106.449219 200.910156 107.027344 L 201.511719 103.519531 C 197.703125 102.859375 193.777344 102.800781 189.910156 103.542969 Z M 173.65625 111.425781 L 175.921875 114.105469 C 178.601562 111.839844 181.632812 109.980469 184.835938 108.640625 L 183.523438 105.382812 C 179.925781 106.882812 176.617188 108.953125 173.65625 111.425781 Z M 162.46875 125.410156 L 165.601562 127.085938 C 167.277344 123.953125 169.316406 121.039062 171.644531 118.371094 L 168.976562 116.042969 C 166.445312 118.886719 164.238281 122.058594 162.46875 125.410156 Z M 156.539062 142.199219 L 160 142.910156 C 160.734375 139.394531 161.714844 135.910156 163.023438 132.566406 L 159.734375 131.277344 C 158.308594 134.898438 157.320312 138.570312 156.539062 142.199219 Z M 154.449219 159.726562 L 158.003906 159.894531 C 158.195312 156.28125 158.464844 152.636719 158.976562 149.027344 L 155.476562 148.5625 C 154.917969 152.28125 154.628906 155.980469 154.449219 159.726562 Z M 154.144531 171.644531 C 154.09375 173.5 154.121094 175.324219 154.125 177.203125 L 157.640625 177.160156 C 157.613281 175.335938 157.640625 173.535156 157.691406 171.679688 L 157.824219 166.164062 L 154.300781 166.074219 Z M 154.871094 194.605469 L 158.433594 194.449219 C 158.269531 190.753906 158.046875 187.039062 157.859375 183.402344 L 154.355469 183.578125 C 154.519531 187.273438 154.761719 190.933594 154.871094 194.605469 Z M 154.871094 194.605469 " fill-opacity="1" fill-rule="nonzero"/></g></g></g></g></svg>