<svg xmlns="http://www.w3.org/2000/svg" xmlns:xlink="http://www.w3.org/1999/xlink" width="500" zoomAndPan="magnify" viewBox="0 0 375 374.999991" height="500" preserveAspectRatio="xMidYMid meet" version="1.0"><defs><clipPath id="be1502a434"><path d="M 57.160156 42.40625 L 311 42.40625 L 311 324 L 57.160156 324 Z M 57.160156 42.40625 " clip-rule="nonzero"/></clipPath><clipPath id="06093be8cb"><path d="M 135 49 L 324 49 L 324 325.90625 L 135 325.90625 Z M 135 49 " clip-rule="nonzero"/></clipPath></defs><path fill="#f0ebe3" d="M 78.539062 105.183594 C 79.3125 102.722656 77.628906 100.441406 75.257812 99.820312 C 72.53125 99.105469 70.375 100.523438 69.195312 102.957031 C 68.222656 104.96875 68.0625 107.476562 70.265625 108.597656 C 73.304688 109.574219 77.46875 108.59375 78.542969 105.183594 Z M 78.539062 105.183594 " fill-opacity="1" fill-rule="nonzero"/><path fill="#f0ebe3" d="M 164.535156 86.28125 C 164.359375 89.457031 166.734375 92.8125 170.109375 93.394531 C 174.085938 94.082031 174.945312 87.726562 174.445312 85.039062 C 174.003906 82.664062 171.675781 77.054688 168.394531 78.464844 C 167.855469 78.695312 167.34375 78.628906 166.925781 78.398438 C 165.054688 79.941406 164.648438 84.175781 164.535156 86.28125 Z M 164.535156 86.28125 " fill-opacity="1" fill-rule="nonzero"/><path fill="#f0ebe3" d="M 157.019531 88.582031 C 156.523438 85.753906 154.691406 82.707031 151.523438 82.527344 C 150.164062 82.449219 148.730469 82.90625 147.40625 83.355469 C 148.410156 88.5625 149.621094 93.710938 151.054688 98.816406 C 151.125 98.773438 151.199219 98.734375 151.28125 98.699219 C 155.335938 97.015625 157.792969 92.957031 157.023438 88.582031 Z M 157.019531 88.582031 " fill-opacity="1" fill-rule="nonzero"/><path fill="#f0ebe3" d="M 127.210938 105.085938 C 131.714844 103.675781 133.273438 100.457031 132.597656 96.046875 C 132.167969 93.253906 130.589844 88.769531 127.511719 87.851562 C 127.03125 87.707031 126.71875 87.414062 126.554688 87.0625 C 126.492188 87.070312 126.429688 87.074219 126.363281 87.074219 C 119.988281 87.226562 118.394531 107.84375 127.207031 105.085938 Z M 127.210938 105.085938 " fill-opacity="1" fill-rule="nonzero"/><path fill="#f0ebe3" d="M 143.078125 200.863281 C 141.425781 200.753906 138.871094 202.238281 137.195312 202.628906 C 136.429688 202.804688 132.257812 203.109375 132.074219 203.429688 C 131.9375 203.667969 134.777344 208.542969 134.980469 209.019531 C 135.578125 210.453125 136.015625 211.925781 136.480469 213.410156 C 137.042969 215.207031 136.863281 214.851562 138.433594 215.035156 C 139.261719 215.128906 140.339844 214.832031 141.167969 214.726562 C 143.363281 214.457031 145.542969 214.101562 147.714844 213.710938 C 147.222656 210.308594 146.328125 201.085938 143.078125 200.863281 Z M 143.078125 200.863281 " fill-opacity="1" fill-rule="nonzero"/><path fill="#f0ebe3" d="M 129.1875 179.621094 C 131.222656 179.6875 133.882812 178.519531 135.882812 178.046875 C 136.929688 177.796875 138.242188 177.707031 139.230469 177.257812 C 140.90625 176.492188 140.5 176.953125 139.972656 175.25 C 139.207031 172.769531 138.566406 170.15625 138.003906 167.613281 C 137.96875 167.464844 137.613281 165.152344 137.632812 165.160156 C 137.535156 165.113281 135.664062 166.128906 135.332031 166.253906 C 132.042969 167.484375 128.15625 166.664062 125.042969 168.1875 C 125.433594 170.179688 125.824219 172.175781 126.21875 174.167969 C 126.652344 176.390625 126.496094 179.535156 129.1875 179.625 Z M 129.1875 179.621094 " fill-opacity="1" fill-rule="nonzero"/><path fill="#f0ebe3" d="M 117.757812 146.347656 C 119.324219 149.152344 121.507812 147.664062 123.707031 146.933594 C 125.425781 146.363281 128.238281 146.28125 129.761719 145.40625 C 131.058594 144.660156 130.648438 145.273438 130.15625 143.730469 C 129.867188 142.828125 129.324219 141.945312 128.953125 141.070312 C 128.15625 139.179688 127.480469 137.238281 126.941406 135.265625 C 126.730469 134.496094 126.6875 133.070312 126.257812 132.425781 C 124.953125 130.449219 122.648438 131.246094 120.769531 131.550781 C 118.886719 131.851562 117.019531 132.21875 115.15625 132.625 C 115.511719 134.972656 115.894531 137.316406 116.339844 139.65625 C 116.699219 141.566406 116.789062 144.621094 117.753906 146.355469 Z M 117.757812 146.347656 " fill-opacity="1" fill-rule="nonzero"/><path fill="#f0ebe3" d="M 144.0625 239.78125 C 144.570312 241.960938 145.675781 244.128906 146.457031 246.226562 C 146.601562 246.617188 147.375 249.550781 147.484375 249.613281 C 147.785156 249.773438 149.789062 248.699219 150.152344 248.554688 C 152.371094 247.675781 154.582031 246.757812 156.816406 245.914062 C 157.003906 245.84375 158.925781 245.316406 158.984375 245.167969 C 159.003906 245.105469 157.667969 243.085938 157.523438 242.785156 C 156.058594 239.808594 156.371094 235.925781 154.515625 233.171875 C 152.507812 233.832031 150.5 234.492188 148.496094 235.152344 C 145.515625 236.136719 143.222656 236.175781 144.058594 239.777344 Z M 144.0625 239.78125 " fill-opacity="1" fill-rule="nonzero"/><path fill="#f0ebe3" d="M 87.730469 139.070312 C 81.726562 137.65625 78.460938 147.996094 84.316406 150.382812 C 91.308594 152.402344 93.417969 140.417969 87.730469 139.070312 Z M 87.730469 139.070312 " fill-opacity="1" fill-rule="nonzero"/><path fill="#f0ebe3" d="M 156.894531 283.296875 C 158.925781 283.363281 161.589844 282.191406 163.589844 281.71875 C 164.636719 281.472656 165.949219 281.382812 166.933594 280.933594 C 168.613281 280.167969 168.203125 280.625 167.679688 278.925781 C 166.914062 276.441406 166.273438 273.828125 165.707031 271.289062 C 165.675781 271.140625 165.320312 268.824219 165.335938 268.832031 C 165.242188 268.785156 163.367188 269.804688 163.039062 269.925781 C 159.746094 271.160156 155.863281 270.335938 152.75 271.859375 C 153.140625 273.855469 153.53125 275.847656 153.921875 277.84375 C 154.359375 280.066406 154.203125 283.210938 156.894531 283.296875 Z M 156.894531 283.296875 " fill-opacity="1" fill-rule="nonzero"/><path fill="#f0ebe3" d="M 280.015625 278.164062 C 289.078125 275.730469 298.210938 273.425781 307.171875 270.648438 C 307.84375 270.441406 308.527344 270.253906 309.191406 270.027344 C 309.117188 269.851562 309.015625 269.632812 308.878906 269.351562 C 306.019531 263.429688 305.464844 254.921875 303.894531 248.550781 C 287.199219 180.742188 267.878906 113.578125 250.070312 46.054688 C 223.609375 52.722656 196.902344 58.355469 170.183594 63.894531 C 144.761719 69.160156 119.355469 74.492188 93.953125 79.828125 C 84.867188 81.734375 75.78125 83.648438 66.695312 85.558594 C 65.476562 85.8125 60.71875 86.023438 59.90625 86.984375 C 59.457031 87.515625 60.4375 88.664062 60.847656 89.964844 C 62.339844 94.675781 61.96875 100.585938 62.71875 105.507812 C 68.738281 145.046875 83.320312 182.546875 94.8125 220.667969 C 104.664062 253.371094 113.074219 286.527344 121.160156 319.703125 C 142.691406 314.152344 164.214844 308.566406 185.734375 302.964844 C 217.183594 294.78125 248.632812 286.59375 280.015625 278.160156 Z M 248.167969 85.027344 C 200.671875 99.085938 152.457031 109.425781 103.972656 119.398438 C 102.980469 119.601562 102.558594 118.082031 103.550781 117.875 C 152.035156 107.90625 200.246094 97.5625 247.75 83.503906 C 248.726562 83.214844 249.140625 84.738281 248.167969 85.027344 Z M 123.96875 166.0625 C 125.40625 165.347656 126.902344 165.09375 128.5625 164.953125 C 129.890625 164.84375 131.246094 164.871094 132.558594 164.597656 C 134.03125 164.296875 135.320312 163.28125 136.71875 162.988281 C 140.265625 162.238281 140.101562 166.265625 140.824219 169.066406 C 141.445312 171.476562 142.871094 174.523438 142.839844 177.015625 C 142.824219 178.082031 142.648438 178.492188 141.683594 179.0625 C 139.804688 180.167969 136.667969 180.292969 134.503906 180.800781 C 132.023438 181.386719 129.195312 182.480469 126.628906 182.390625 C 126.230469 182.375 125.792969 182.179688 125.605469 181.804688 C 123.585938 177.730469 123.382812 171.988281 122.507812 167.527344 C 122.316406 166.550781 123.234375 165.945312 123.96875 166.066406 Z M 117.496094 150.738281 C 115.578125 149.675781 115.375 146.601562 114.972656 144.75 C 114.105469 140.785156 113.402344 136.789062 112.800781 132.777344 C 112.789062 132.695312 112.789062 132.621094 112.789062 132.546875 C 112.25 131.949219 112.28125 130.832031 113.289062 130.605469 C 117.085938 129.753906 121.15625 128.710938 125.066406 128.585938 C 127.714844 128.496094 127.976562 129.335938 128.546875 131.792969 C 129.539062 136.078125 131.378906 139.746094 132.871094 143.832031 C 133.339844 145.128906 133.601562 146.074219 132.402344 147.050781 C 131.535156 147.753906 130.074219 147.730469 129.03125 147.949219 C 127.21875 148.328125 125.429688 148.820312 123.683594 149.441406 C 121.902344 150.078125 119.449219 151.816406 117.5 150.738281 Z M 129.949219 202.132812 C 131.261719 200.324219 135.917969 200.535156 137.898438 200.015625 C 139.933594 199.480469 142.753906 197.730469 144.894531 198.394531 C 146.746094 198.96875 147.171875 200.941406 147.632812 202.601562 C 148.648438 206.257812 149.425781 209.976562 150.097656 213.710938 C 150.105469 213.761719 150.105469 213.804688 150.109375 213.851562 C 150.65625 214.460938 150.625 215.570312 149.609375 215.761719 C 146.128906 216.417969 142.636719 216.953125 139.117188 217.332031 C 137.011719 217.554688 135.507812 217.925781 134.625 215.835938 C 133.199219 212.460938 132.570312 208.980469 130.695312 205.710938 C 130.054688 204.597656 129.039062 203.386719 129.945312 202.132812 Z M 229.1875 61.378906 C 231.546875 61.492188 234.183594 60.214844 236.457031 59.582031 C 238.566406 59 240.5625 58.542969 242.765625 58.722656 C 244.777344 58.886719 244.789062 62.042969 242.765625 61.878906 C 240.957031 61.730469 239.226562 62.117188 237.515625 62.636719 C 239.058594 68.519531 240.550781 74.414062 241.984375 80.324219 C 242.464844 82.300781 239.421875 83.136719 238.941406 81.164062 C 237.515625 75.300781 236.035156 69.453125 234.503906 63.617188 C 232.757812 64.171875 231 64.625 229.1875 64.539062 C 227.160156 64.441406 227.15625 61.28125 229.1875 61.378906 Z M 217.113281 63.496094 C 220.75 62.675781 224.113281 65.253906 226.613281 67.566406 C 228.105469 68.949219 225.871094 71.179688 224.378906 69.796875 C 223.21875 68.722656 221.53125 66.976562 219.851562 66.742188 C 215.699219 67.765625 214.855469 69.132812 217.316406 70.847656 C 217.773438 72.054688 218.542969 72.507812 219.617188 72.210938 C 221.375 72.546875 223.050781 71.78125 224.824219 72.558594 C 227.207031 73.601562 228.90625 76.597656 229.292969 79.089844 C 229.714844 81.796875 227.511719 84.320312 225.113281 85.320312 C 222.03125 86.601562 219.015625 85.140625 216.351562 83.570312 C 214.601562 82.539062 216.191406 79.8125 217.945312 80.847656 C 219.035156 81.488281 220.339844 82.382812 221.625 82.574219 C 224.464844 83 226.910156 80.828125 225.628906 78.070312 C 223.96875 74.488281 220.644531 75.726562 217.628906 75.347656 C 214.953125 75.007812 213.058594 73.289062 212.851562 70.523438 C 212.628906 67.523438 213.933594 64.214844 217.109375 63.496094 Z M 208.578125 67.328125 C 209.550781 73.5625 210.789062 79.738281 212.292969 85.871094 C 212.777344 87.847656 209.730469 88.679688 209.246094 86.710938 C 207.742188 80.578125 206.503906 74.402344 205.53125 68.167969 C 205.222656 66.175781 208.265625 65.324219 208.578125 67.328125 Z M 193.066406 71.042969 C 193.34375 74.273438 193.714844 77.488281 194.246094 80.691406 C 194.648438 83.109375 195.753906 85.910156 195.777344 88.339844 C 195.792969 90.09375 195.078125 89.863281 196.738281 89.535156 C 197.925781 89.300781 199.308594 88.472656 200.457031 88.066406 C 202.277344 87.417969 204.082031 87.015625 205.992188 86.765625 C 208.003906 86.5 207.980469 89.664062 205.992188 89.921875 C 202.507812 90.378906 199.273438 92.875 195.90625 93.175781 C 194.671875 93.285156 194.066406 92.882812 193.449219 91.832031 C 191.980469 89.339844 191.828125 85.171875 191.328125 82.300781 C 190.679688 78.570312 190.230469 74.8125 189.90625 71.042969 C 189.734375 69.015625 192.890625 69.035156 193.066406 71.042969 Z M 165.832031 75.339844 C 166.457031 75.03125 167.058594 75.152344 167.5 75.476562 C 177.316406 72.304688 182.140625 92.851562 172.453125 96.328125 C 168.292969 97.820312 162.527344 93.480469 161.5625 89.5 C 160.574219 85.421875 161.683594 77.398438 165.832031 75.339844 Z M 145.113281 80.960938 C 145.277344 80.808594 145.480469 80.683594 145.730469 80.59375 C 148.640625 79.617188 151.949219 78.691406 154.867188 80.140625 C 157.59375 81.492188 159.367188 84.492188 160.019531 87.386719 C 161.445312 93.695312 157.882812 99.351562 152.109375 101.75 C 151.796875 101.878906 151.515625 101.898438 151.269531 101.847656 C 150.558594 102.695312 148.878906 102.726562 148.472656 101.332031 C 146.703125 95.222656 145.242188 89.050781 144.085938 82.800781 C 143.917969 81.902344 144.453125 81.238281 145.113281 80.964844 Z M 118.238281 96.703125 C 118.527344 91.558594 119.980469 84.074219 126.359375 83.921875 C 127.058594 83.902344 127.515625 84.261719 127.734375 84.742188 C 127.921875 84.722656 128.128906 84.742188 128.347656 84.808594 C 133.761719 86.421875 136.195312 93.871094 135.90625 98.96875 C 135.597656 104.480469 130.796875 108.625 125.203125 108.648438 C 118.835938 108.675781 117.957031 101.664062 118.234375 96.703125 Z M 98.597656 91.4375 C 102.992188 90.371094 107.386719 89.304688 111.777344 88.242188 C 113.753906 87.761719 114.59375 90.808594 112.617188 91.285156 C 110.4375 91.816406 108.257812 92.34375 106.078125 92.875 C 106.710938 95.394531 107.34375 97.917969 107.972656 100.4375 C 108.292969 101.703125 108.605469 102.972656 108.925781 104.238281 C 109.128906 105.058594 109.335938 107.46875 109.898438 108.066406 C 111.292969 109.542969 109.0625 111.78125 107.667969 110.296875 C 106.070312 108.605469 105.949219 105.347656 105.40625 103.175781 C 104.605469 99.988281 103.808594 96.804688 103.011719 93.617188 C 101.820312 93.910156 100.628906 94.195312 99.4375 94.484375 C 97.460938 94.964844 96.625 91.917969 98.597656 91.441406 Z M 69.480469 110.832031 C 69.40625 110.804688 69.339844 110.773438 69.273438 110.738281 C 69.25 110.726562 69.226562 110.726562 69.195312 110.710938 C 65.652344 109.070312 65.585938 104.871094 67.148438 101.761719 C 68.929688 98.21875 72.503906 96.390625 76.367188 97.679688 C 79.820312 98.832031 81.953125 102.492188 80.753906 106.023438 C 79.214844 110.558594 73.707031 112.296875 69.480469 110.828125 Z M 83.683594 152.664062 C 83.570312 152.628906 83.472656 152.585938 83.382812 152.53125 C 79.566406 150.816406 77.871094 146.941406 79.1875 142.871094 C 80.375 139.199219 84.363281 135.730469 88.445312 136.796875 C 92.433594 137.84375 93.585938 142.777344 93.070312 146.34375 C 92.417969 150.859375 88.527344 153.867188 84.003906 152.746094 C 83.902344 152.738281 83.796875 152.710938 83.683594 152.664062 Z M 92.21875 190.03125 C 92.144531 190.007812 92.078125 189.972656 92.015625 189.941406 C 91.992188 189.929688 91.964844 189.925781 91.9375 189.910156 C 88.394531 188.273438 88.324219 184.070312 89.890625 180.960938 C 91.671875 177.421875 95.246094 175.589844 99.109375 176.878906 C 102.558594 178.03125 104.691406 181.691406 103.492188 185.226562 C 101.957031 189.761719 96.449219 191.5 92.222656 190.027344 Z M 109.40625 237.027344 C 109.355469 237.023438 109.316406 237.007812 109.269531 237 C 109.210938 237 109.15625 236.996094 109.09375 236.984375 C 100.066406 235.363281 103.511719 221.589844 111.855469 222.535156 C 120.859375 223.554688 117.769531 237.894531 109.410156 237.03125 Z M 131.78125 276.070312 C 131.128906 280.585938 127.238281 283.59375 122.714844 282.476562 C 122.613281 282.464844 122.507812 282.441406 122.398438 282.390625 C 122.28125 282.359375 122.183594 282.3125 122.09375 282.261719 C 118.28125 280.546875 116.582031 276.667969 117.898438 272.597656 C 119.089844 268.925781 123.078125 265.457031 127.15625 266.527344 C 131.144531 267.570312 132.296875 272.507812 131.78125 276.070312 Z M 142.023438 288.992188 C 128.660156 251.347656 119.839844 212.003906 109.636719 173.421875 C 102.34375 145.835938 94.386719 118.3125 88.882812 90.292969 C 88.6875 89.300781 90.207031 88.875 90.402344 89.875 C 95.90625 117.894531 103.867188 145.421875 111.160156 173.003906 C 121.363281 211.585938 130.183594 250.925781 143.542969 288.570312 C 143.886719 289.53125 142.359375 289.941406 142.023438 288.992188 Z M 145.847656 251.183594 C 144.554688 249.742188 144.0625 246.558594 143.375 244.710938 C 142.398438 242.085938 140.84375 239.179688 140.59375 236.367188 C 140.554688 235.945312 140.851562 235.5625 141.179688 235.34375 C 144.765625 232.96875 150.144531 232.03125 154.347656 230.726562 C 154.546875 230.585938 154.78125 230.507812 155.015625 230.519531 C 155.917969 230.246094 156.488281 231.054688 156.417969 231.800781 C 158.703125 235.25 158.609375 239.847656 160.707031 243.511719 C 162.644531 246.898438 159.765625 247.277344 156.78125 248.460938 C 154.234375 249.46875 150.859375 251.617188 148.117188 251.894531 C 147.054688 252.003906 146.632812 252.050781 145.847656 251.175781 Z M 169.386719 282.738281 C 167.507812 283.84375 164.367188 283.972656 162.207031 284.480469 C 159.726562 285.0625 156.898438 286.15625 154.332031 286.066406 C 153.933594 286.050781 153.492188 285.855469 153.308594 285.480469 C 151.289062 281.40625 151.085938 275.664062 150.210938 271.203125 C 150.019531 270.226562 150.9375 269.621094 151.671875 269.742188 C 153.109375 269.027344 154.605469 268.773438 156.265625 268.632812 C 157.59375 268.519531 158.945312 268.550781 160.261719 268.277344 C 161.734375 267.976562 163.023438 266.960938 164.421875 266.667969 C 167.96875 265.917969 167.804688 269.945312 168.527344 272.746094 C 169.148438 275.152344 170.574219 278.203125 170.542969 280.695312 C 170.527344 281.761719 170.347656 282.171875 169.386719 282.742188 Z M 169.386719 282.738281 " fill-opacity="1" fill-rule="nonzero"/><path fill="#f0ebe3" d="M 101.277344 184.382812 C 102.050781 181.921875 100.367188 179.640625 97.996094 179.019531 C 95.269531 178.304688 93.113281 179.726562 91.933594 182.15625 C 90.960938 184.171875 90.796875 186.675781 93.003906 187.796875 C 96.042969 188.777344 100.207031 187.792969 101.277344 184.382812 Z M 101.277344 184.382812 " fill-opacity="1" fill-rule="nonzero"/><path fill="#f0ebe3" d="M 111.40625 224.851562 C 108.796875 224.65625 106.769531 226.917969 106.175781 229.28125 C 105.480469 232.070312 106.84375 234.109375 109.570312 234.664062 C 115.089844 235.046875 117.558594 225.320312 111.410156 224.851562 Z M 111.40625 224.851562 " fill-opacity="1" fill-rule="nonzero"/><path fill="#f0ebe3" d="M 126.441406 268.796875 C 120.4375 267.378906 117.171875 277.71875 123.027344 280.109375 C 130.023438 282.128906 132.132812 270.140625 126.441406 268.796875 Z M 126.441406 268.796875 " fill-opacity="1" fill-rule="nonzero"/><g clip-path="url(#be1502a434)"><path fill="#000000" d="M 118.484375 322.054688 C 118.640625 322.691406 119.0625 323.03125 119.542969 323.144531 C 118.257812 322.71875 117.949219 320.539062 119.585938 320.113281 C 120.113281 319.976562 120.636719 319.84375 121.160156 319.707031 C 113.074219 286.527344 104.664062 253.371094 94.8125 220.671875 C 83.324219 182.546875 68.738281 145.050781 62.71875 105.507812 C 61.96875 100.589844 62.339844 94.679688 60.847656 89.96875 C 60.4375 88.667969 59.457031 87.519531 59.90625 86.988281 C 60.71875 86.027344 65.476562 85.816406 66.695312 85.558594 C 75.78125 83.648438 84.863281 81.738281 93.953125 79.832031 C 119.355469 74.496094 144.761719 69.167969 170.183594 63.894531 C 196.902344 58.355469 223.609375 52.726562 250.070312 46.054688 C 249.941406 45.558594 249.808594 45.0625 249.675781 44.5625 C 250.324219 44.933594 250.96875 45.296875 251.617188 45.664062 C 251.101562 45.796875 250.585938 45.925781 250.070312 46.054688 C 267.875 113.578125 287.195312 180.742188 303.890625 248.550781 C 305.457031 254.921875 306.011719 263.429688 308.878906 269.351562 C 309.011719 269.632812 309.113281 269.855469 309.191406 270.027344 C 309.40625 269.953125 309.621094 269.875 309.835938 269.792969 C 309.015625 270.113281 309.734375 271.265625 309.191406 270.027344 C 308.523438 270.253906 307.839844 270.441406 307.171875 270.648438 C 298.207031 273.425781 289.078125 275.730469 280.015625 278.164062 C 248.632812 286.59375 217.183594 294.785156 185.734375 302.96875 C 164.214844 308.570312 142.695312 314.152344 121.160156 319.707031 C 121.285156 320.210938 121.40625 320.714844 121.527344 321.214844 C 121.855469 322.558594 120.5625 323.371094 119.542969 323.140625 C 119.800781 323.226562 120.097656 323.242188 120.425781 323.15625 C 125.285156 321.90625 130.140625 320.652344 135 319.398438 L 134.371094 317.925781 C 134.371094 317.925781 144.839844 315.214844 150 313.878906 C 155.160156 312.542969 310.820312 271.042969 310.820312 271.042969 L 253.542969 53.039062 L 255.015625 52.433594 C 254.25 49.53125 253.484375 46.628906 252.71875 43.726562 C 252.5 42.890625 251.597656 42.414062 250.777344 42.625 C 187.28125 58.730469 122.601562 70.558594 58.507812 84.0625 C 57.871094 84.195312 57.296875 84.929688 57.34375 85.585938 C 60.578125 128.9375 75.585938 169.789062 88.507812 210.933594 C 100 247.53125 109.414062 284.796875 118.484375 322.054688 Z M 118.484375 322.054688 " fill-opacity="1" fill-rule="nonzero"/></g><path fill="#000000" d="M 249.675781 44.5625 C 249.808594 45.058594 249.941406 45.554688 250.070312 46.054688 C 250.589844 45.925781 251.105469 45.800781 251.621094 45.667969 C 250.972656 45.300781 250.324219 44.933594 249.679688 44.566406 Z M 249.675781 44.5625 " fill-opacity="1" fill-rule="nonzero"/><path fill="#000000" d="M 121.53125 321.214844 C 121.410156 320.714844 121.285156 320.210938 121.164062 319.707031 C 120.640625 319.84375 120.113281 319.976562 119.589844 320.113281 C 117.953125 320.535156 118.257812 322.71875 119.546875 323.144531 C 120.5625 323.371094 121.859375 322.558594 121.53125 321.21875 Z M 121.53125 321.214844 " fill-opacity="1" fill-rule="nonzero"/><path fill="#000000" d="M 309.835938 269.796875 C 309.621094 269.878906 309.40625 269.953125 309.191406 270.03125 C 309.734375 271.269531 309.015625 270.121094 309.835938 269.796875 Z M 309.835938 269.796875 " fill-opacity="1" fill-rule="nonzero"/><path fill="#000000" d="M 126.558594 87.0625 C 127.742188 86.90625 128.140625 85.621094 127.738281 84.738281 C 126.664062 84.84375 126.125 86.144531 126.558594 87.0625 Z M 126.558594 87.0625 " fill-opacity="1" fill-rule="nonzero"/><path fill="#000000" d="M 125.207031 108.648438 C 130.804688 108.628906 135.605469 104.480469 135.914062 98.96875 C 136.199219 93.871094 133.769531 86.421875 128.355469 84.808594 C 128.132812 84.738281 127.925781 84.722656 127.738281 84.742188 C 128.140625 85.621094 127.742188 86.910156 126.558594 87.0625 C 126.726562 87.414062 127.035156 87.710938 127.515625 87.851562 C 130.589844 88.769531 132.171875 93.257812 132.601562 96.050781 C 133.277344 100.460938 131.71875 103.675781 127.214844 105.085938 C 118.398438 107.847656 119.988281 87.230469 126.367188 87.078125 C 126.433594 87.078125 126.5 87.070312 126.5625 87.0625 C 126.128906 86.152344 126.667969 84.847656 127.742188 84.742188 C 127.519531 84.261719 127.066406 83.902344 126.367188 83.921875 C 119.988281 84.074219 118.535156 91.558594 118.246094 96.703125 C 117.96875 101.664062 118.847656 108.675781 125.214844 108.648438 Z M 125.207031 108.648438 " fill-opacity="1" fill-rule="nonzero"/><path fill="#000000" d="M 99.445312 94.480469 C 100.636719 94.191406 101.824219 93.902344 103.015625 93.613281 C 102.917969 93.207031 102.816406 92.804688 102.710938 92.398438 C 102.21875 90.425781 105.265625 89.589844 105.757812 91.558594 C 105.867188 91.996094 105.976562 92.429688 106.085938 92.867188 C 108.261719 92.339844 110.445312 91.8125 112.625 91.28125 C 114.597656 90.800781 113.761719 87.753906 111.785156 88.234375 C 107.390625 89.300781 102.996094 90.367188 98.605469 91.429688 C 96.628906 91.910156 97.464844 94.957031 99.445312 94.476562 Z M 99.445312 94.480469 " fill-opacity="1" fill-rule="nonzero"/><path fill="#000000" d="M 105.40625 103.175781 C 105.953125 105.347656 106.074219 108.605469 107.667969 110.296875 C 109.066406 111.777344 111.296875 109.542969 109.902344 108.0625 C 109.335938 107.464844 109.132812 105.054688 108.925781 104.238281 C 108.609375 102.96875 108.292969 101.703125 107.976562 100.433594 C 107.347656 97.914062 106.710938 95.390625 106.082031 92.871094 C 105.058594 93.117188 104.039062 93.367188 103.015625 93.617188 C 103.8125 96.800781 104.609375 99.988281 105.40625 103.175781 Z M 105.40625 103.175781 " fill-opacity="1" fill-rule="nonzero"/><path fill="#000000" d="M 102.710938 92.402344 C 102.8125 92.804688 102.914062 93.210938 103.015625 93.617188 C 104.039062 93.367188 105.0625 93.117188 106.085938 92.871094 C 105.976562 92.4375 105.867188 92 105.757812 91.5625 C 105.265625 89.59375 102.21875 90.425781 102.710938 92.402344 Z M 102.710938 92.402344 " fill-opacity="1" fill-rule="nonzero"/><path fill="#000000" d="M 148.480469 101.324219 C 148.882812 102.722656 150.5625 102.691406 151.273438 101.839844 C 150.105469 101.582031 149.769531 99.566406 151.050781 98.816406 C 149.621094 93.710938 148.40625 88.5625 147.402344 83.355469 C 147.121094 83.453125 146.84375 83.550781 146.574219 83.636719 C 144.894531 84.203125 144.054688 81.972656 145.117188 80.957031 C 144.453125 81.234375 143.921875 81.898438 144.089844 82.796875 C 145.246094 89.046875 146.707031 95.21875 148.476562 101.324219 Z M 148.480469 101.324219 " fill-opacity="1" fill-rule="nonzero"/><path fill="#000000" d="M 147.132812 81.957031 C 147.222656 82.421875 147.3125 82.890625 147.402344 83.355469 C 148.726562 82.90625 150.160156 82.449219 151.523438 82.527344 C 154.6875 82.707031 156.519531 85.753906 157.015625 88.582031 C 157.785156 92.957031 155.328125 97.015625 151.273438 98.699219 C 151.191406 98.734375 151.121094 98.773438 151.046875 98.816406 C 151.203125 99.371094 151.359375 99.929688 151.523438 100.488281 C 151.683594 101.042969 151.550781 101.507812 151.269531 101.84375 C 151.515625 101.898438 151.796875 101.878906 152.113281 101.746094 C 157.886719 99.347656 161.445312 93.691406 160.023438 87.382812 C 159.371094 84.488281 157.597656 81.492188 154.871094 80.136719 C 151.949219 78.6875 148.644531 79.617188 145.734375 80.59375 C 145.484375 80.675781 145.28125 80.804688 145.117188 80.957031 C 145.925781 80.625 146.929688 80.863281 147.132812 81.957031 Z M 147.132812 81.957031 " fill-opacity="1" fill-rule="nonzero"/><path fill="#000000" d="M 146.578125 83.636719 C 146.847656 83.550781 147.125 83.453125 147.40625 83.355469 C 147.316406 82.890625 147.222656 82.425781 147.136719 81.957031 C 146.933594 80.863281 145.929688 80.625 145.125 80.957031 C 144.058594 81.972656 144.898438 84.203125 146.578125 83.636719 Z M 146.578125 83.636719 " fill-opacity="1" fill-rule="nonzero"/><path fill="#000000" d="M 151.523438 100.488281 C 151.363281 99.929688 151.207031 99.371094 151.050781 98.816406 C 149.769531 99.570312 150.105469 101.585938 151.273438 101.839844 C 151.554688 101.503906 151.683594 101.039062 151.523438 100.484375 Z M 151.523438 100.488281 " fill-opacity="1" fill-rule="nonzero"/><path fill="#000000" d="M 166.925781 78.398438 C 167.082031 78.269531 167.25 78.15625 167.429688 78.066406 C 168.621094 77.472656 168.347656 76.097656 167.503906 75.476562 C 167.273438 75.550781 167.039062 75.636719 166.804688 75.734375 C 165.480469 76.300781 165.910156 77.835938 166.925781 78.398438 Z M 166.925781 78.398438 " fill-opacity="1" fill-rule="nonzero"/><path fill="#000000" d="M 172.457031 96.328125 C 182.144531 92.851562 177.324219 72.300781 167.503906 75.472656 C 168.347656 76.097656 168.621094 77.472656 167.429688 78.0625 C 167.25 78.152344 167.082031 78.261719 166.925781 78.394531 C 167.34375 78.625 167.859375 78.691406 168.398438 78.460938 C 171.675781 77.054688 174.003906 82.660156 174.445312 85.035156 C 174.945312 87.722656 174.089844 94.078125 170.113281 93.390625 C 166.738281 92.8125 164.363281 89.453125 164.539062 86.277344 C 164.652344 84.171875 165.0625 79.9375 166.929688 78.394531 C 165.910156 77.832031 165.484375 76.300781 166.808594 75.734375 C 167.042969 75.632812 167.277344 75.550781 167.507812 75.472656 C 167.0625 75.144531 166.464844 75.023438 165.839844 75.335938 C 161.691406 77.394531 160.585938 85.421875 161.570312 89.5 C 162.535156 93.476562 168.304688 97.820312 172.460938 96.328125 Z M 172.457031 96.328125 " fill-opacity="1" fill-rule="nonzero"/><path fill="#000000" d="M 191.332031 82.296875 C 191.832031 85.167969 191.984375 89.335938 193.453125 91.828125 C 194.070312 92.882812 194.675781 93.28125 195.914062 93.171875 C 199.28125 92.875 202.511719 90.378906 206 89.917969 C 207.984375 89.660156 208.011719 86.496094 206 86.761719 C 204.089844 87.011719 202.285156 87.414062 200.460938 88.0625 C 199.316406 88.46875 197.933594 89.296875 196.746094 89.53125 C 195.085938 89.859375 195.796875 90.089844 195.78125 88.339844 C 195.757812 85.910156 194.652344 83.105469 194.25 80.6875 C 193.71875 77.488281 193.351562 74.273438 193.074219 71.039062 C 192.902344 69.03125 189.742188 69.011719 189.917969 71.039062 C 190.238281 74.808594 190.6875 78.566406 191.335938 82.296875 Z M 191.332031 82.296875 " fill-opacity="1" fill-rule="nonzero"/><path fill="#000000" d="M 209.25 86.710938 C 209.738281 88.679688 212.78125 87.847656 212.296875 85.871094 C 210.792969 79.738281 209.554688 73.5625 208.582031 67.328125 C 208.269531 65.324219 205.226562 66.175781 205.535156 68.167969 C 206.507812 74.402344 207.746094 80.578125 209.25 86.710938 Z M 209.25 86.710938 " fill-opacity="1" fill-rule="nonzero"/><path fill="#000000" d="M 217.636719 75.347656 C 220.652344 75.726562 223.976562 74.488281 225.636719 78.070312 C 226.917969 80.828125 224.476562 83 221.632812 82.574219 C 220.347656 82.382812 219.042969 81.488281 217.953125 80.847656 C 216.199219 79.8125 214.605469 82.542969 216.359375 83.570312 C 219.023438 85.140625 222.039062 86.601562 225.121094 85.320312 C 227.519531 84.324219 229.722656 81.796875 229.304688 79.089844 C 228.914062 76.59375 227.214844 73.601562 224.832031 72.558594 C 223.054688 71.785156 221.382812 72.550781 219.628906 72.210938 C 218.554688 72.507812 217.785156 72.054688 217.324219 70.847656 C 214.863281 69.132812 215.707031 67.765625 219.859375 66.742188 C 221.542969 66.976562 223.226562 68.722656 224.386719 69.796875 C 225.875 71.175781 228.113281 68.949219 226.621094 67.566406 C 224.125 65.253906 220.757812 62.675781 217.121094 63.496094 C 213.949219 64.214844 212.644531 67.527344 212.867188 70.523438 C 213.070312 73.289062 214.964844 75.007812 217.640625 75.347656 Z M 217.636719 75.347656 " fill-opacity="1" fill-rule="nonzero"/><path fill="#000000" d="M 229.1875 64.535156 C 231 64.621094 232.757812 64.167969 234.503906 63.613281 C 234.414062 63.261719 234.320312 62.90625 234.230469 62.550781 C 233.710938 60.582031 236.757812 59.75 237.273438 61.710938 C 237.355469 62.023438 237.4375 62.328125 237.519531 62.636719 C 239.226562 62.121094 240.960938 61.734375 242.765625 61.878906 C 244.792969 62.042969 244.78125 58.886719 242.765625 58.722656 C 240.5625 58.542969 238.570312 58.996094 236.460938 59.582031 C 234.1875 60.214844 231.550781 61.492188 229.1875 61.378906 C 227.160156 61.28125 227.164062 64.4375 229.1875 64.535156 Z M 229.1875 64.535156 " fill-opacity="1" fill-rule="nonzero"/><path fill="#000000" d="M 238.941406 81.164062 C 239.417969 83.140625 242.464844 82.300781 241.984375 80.324219 C 240.550781 74.414062 239.058594 68.519531 237.515625 62.636719 C 236.507812 62.945312 235.507812 63.296875 234.503906 63.613281 C 236.035156 69.449219 237.515625 75.296875 238.941406 81.160156 Z M 238.941406 81.164062 " fill-opacity="1" fill-rule="nonzero"/><path fill="#000000" d="M 234.230469 62.550781 C 234.320312 62.90625 234.414062 63.261719 234.503906 63.613281 C 235.507812 63.296875 236.503906 62.941406 237.515625 62.636719 C 237.433594 62.328125 237.355469 62.023438 237.273438 61.710938 C 236.757812 59.75 233.707031 60.582031 234.226562 62.550781 Z M 234.230469 62.550781 " fill-opacity="1" fill-rule="nonzero"/><path fill="#000000" d="M 84.003906 152.746094 C 83.898438 152.722656 83.792969 152.695312 83.683594 152.664062 C 83.796875 152.707031 83.902344 152.738281 84.003906 152.746094 Z M 84.003906 152.746094 " fill-opacity="1" fill-rule="nonzero"/><path fill="#000000" d="M 83.683594 152.664062 C 83.582031 152.621094 83.484375 152.578125 83.382812 152.53125 C 83.472656 152.585938 83.570312 152.628906 83.683594 152.664062 Z M 83.683594 152.664062 " fill-opacity="1" fill-rule="nonzero"/><path fill="#000000" d="M 93.074219 146.34375 C 93.589844 142.777344 92.433594 137.84375 88.449219 136.796875 C 84.367188 135.730469 80.378906 139.199219 79.191406 142.871094 C 77.875 146.941406 79.566406 150.816406 83.386719 152.53125 C 82.328125 151.902344 82.960938 149.988281 84.316406 150.378906 C 78.464844 147.992188 81.730469 137.652344 87.730469 139.070312 C 93.421875 140.414062 91.3125 152.398438 84.316406 150.378906 C 85.601562 150.902344 85.183594 152.882812 84.007812 152.746094 C 88.53125 153.867188 92.421875 150.859375 93.074219 146.34375 Z M 93.074219 146.34375 " fill-opacity="1" fill-rule="nonzero"/><path fill="#000000" d="M 84.316406 150.378906 C 82.960938 149.988281 82.328125 151.902344 83.382812 152.53125 C 83.484375 152.578125 83.582031 152.621094 83.683594 152.664062 C 83.789062 152.695312 83.898438 152.71875 84.003906 152.746094 C 85.179688 152.882812 85.601562 150.902344 84.316406 150.378906 Z M 84.316406 150.378906 " fill-opacity="1" fill-rule="nonzero"/><path fill="#000000" d="M 123.027344 280.105469 C 121.675781 279.714844 121.039062 281.628906 122.09375 282.257812 C 122.195312 282.304688 122.292969 282.347656 122.398438 282.390625 C 122.503906 282.421875 122.609375 282.445312 122.714844 282.472656 C 123.890625 282.609375 124.308594 280.628906 123.023438 280.109375 Z M 123.027344 280.105469 " fill-opacity="1" fill-rule="nonzero"/><path fill="#000000" d="M 122.398438 282.390625 C 122.292969 282.347656 122.195312 282.304688 122.09375 282.257812 C 122.183594 282.3125 122.28125 282.355469 122.398438 282.390625 Z M 122.398438 282.390625 " fill-opacity="1" fill-rule="nonzero"/><path fill="#000000" d="M 122.71875 282.472656 C 122.613281 282.449219 122.503906 282.421875 122.398438 282.390625 C 122.511719 282.433594 122.617188 282.460938 122.71875 282.472656 Z M 122.71875 282.472656 " fill-opacity="1" fill-rule="nonzero"/><path fill="#000000" d="M 127.160156 266.523438 C 123.078125 265.457031 119.089844 268.921875 117.902344 272.597656 C 116.585938 276.664062 118.28125 280.542969 122.097656 282.257812 C 121.039062 281.628906 121.675781 279.714844 123.03125 280.105469 C 117.175781 277.71875 120.441406 267.378906 126.445312 268.792969 C 132.132812 270.140625 130.023438 282.125 123.03125 280.105469 C 124.3125 280.628906 123.894531 282.609375 122.71875 282.46875 C 127.246094 283.589844 131.136719 280.582031 131.789062 276.066406 C 132.304688 272.5 131.148438 267.566406 127.164062 266.519531 Z M 127.160156 266.523438 " fill-opacity="1" fill-rule="nonzero"/><path fill="#000000" d="M 93.132812 187.863281 C 93.085938 187.84375 93.046875 187.816406 93.003906 187.792969 C 92.953125 187.777344 92.898438 187.765625 92.851562 187.746094 C 91.484375 187.265625 90.859375 189.296875 92.019531 189.9375 C 93.359375 190.460938 94.492188 188.492188 93.136719 187.863281 Z M 93.132812 187.863281 " fill-opacity="1" fill-rule="nonzero"/><path fill="#000000" d="M 99.109375 176.878906 C 95.25 175.589844 91.671875 177.421875 89.890625 180.960938 C 88.324219 184.070312 88.394531 188.273438 91.9375 189.910156 C 91.964844 189.921875 91.992188 189.929688 92.015625 189.941406 C 90.855469 189.304688 91.484375 187.273438 92.851562 187.746094 C 92.898438 187.765625 92.949219 187.78125 93 187.796875 C 90.796875 186.675781 90.960938 184.171875 91.933594 182.15625 C 93.105469 179.726562 95.261719 178.304688 97.992188 179.019531 C 100.367188 179.640625 102.050781 181.921875 101.273438 184.382812 C 100.203125 187.792969 96.039062 188.773438 93 187.796875 C 93.046875 187.820312 93.085938 187.84375 93.132812 187.867188 C 94.488281 188.496094 93.355469 190.464844 92.011719 189.941406 C 92.078125 189.972656 92.144531 190.007812 92.21875 190.03125 C 96.445312 191.5 101.953125 189.765625 103.488281 185.230469 C 104.6875 181.695312 102.554688 178.035156 99.105469 176.882812 Z M 99.109375 176.878906 " fill-opacity="1" fill-rule="nonzero"/><path fill="#000000" d="M 80.753906 106.027344 C 81.957031 102.492188 79.820312 98.835938 76.371094 97.683594 C 72.511719 96.394531 68.933594 98.222656 67.152344 101.761719 C 65.585938 104.871094 65.65625 109.074219 69.199219 110.714844 C 69.226562 110.726562 69.253906 110.730469 69.277344 110.742188 C 68.117188 110.105469 68.746094 108.074219 70.113281 108.550781 C 70.164062 108.566406 70.210938 108.582031 70.261719 108.597656 C 68.058594 107.476562 68.222656 104.972656 69.195312 102.960938 C 70.367188 100.527344 72.527344 99.109375 75.253906 99.820312 C 77.628906 100.445312 79.3125 102.726562 78.535156 105.183594 C 77.464844 108.59375 73.300781 109.574219 70.261719 108.597656 C 70.304688 108.621094 70.34375 108.648438 70.390625 108.667969 C 71.746094 109.296875 70.613281 111.265625 69.273438 110.742188 C 69.335938 110.773438 69.402344 110.808594 69.480469 110.832031 C 73.707031 112.304688 79.214844 110.566406 80.75 106.03125 Z M 80.753906 106.027344 " fill-opacity="1" fill-rule="nonzero"/><path fill="#000000" d="M 70.398438 108.667969 C 70.347656 108.644531 70.308594 108.617188 70.265625 108.597656 C 70.214844 108.578125 70.164062 108.566406 70.113281 108.546875 C 68.75 108.070312 68.121094 110.101562 69.28125 110.738281 C 70.621094 111.261719 71.753906 109.292969 70.398438 108.667969 Z M 70.398438 108.667969 " fill-opacity="1" fill-rule="nonzero"/><path fill="#000000" d="M 109.726562 234.699219 C 109.671875 234.691406 109.621094 234.671875 109.570312 234.664062 C 109.515625 234.664062 109.464844 234.664062 109.414062 234.65625 C 107.949219 234.507812 107.914062 236.710938 109.277344 236.996094 C 110.636719 237.0625 111.167969 234.957031 109.726562 234.699219 Z M 109.726562 234.699219 " fill-opacity="1" fill-rule="nonzero"/><path fill="#000000" d="M 111.855469 222.53125 C 103.511719 221.585938 100.066406 235.363281 109.09375 236.984375 C 109.15625 236.996094 109.214844 236.996094 109.269531 236.996094 C 107.910156 236.710938 107.941406 234.507812 109.40625 234.65625 C 109.460938 234.664062 109.511719 234.660156 109.5625 234.664062 C 106.839844 234.109375 105.472656 232.070312 106.171875 229.28125 C 106.761719 226.917969 108.789062 224.65625 111.402344 224.851562 C 117.550781 225.320312 115.082031 235.046875 109.558594 234.664062 C 109.613281 234.675781 109.664062 234.691406 109.714844 234.699219 C 111.15625 234.957031 110.625 237.058594 109.265625 236.996094 C 109.308594 237.003906 109.355469 237.019531 109.402344 237.023438 C 117.765625 237.890625 120.855469 223.550781 111.847656 222.527344 Z M 111.855469 222.53125 " fill-opacity="1" fill-rule="nonzero"/><path fill="#000000" d="M 111.160156 173 C 103.867188 145.417969 95.910156 117.894531 90.402344 89.871094 C 90.207031 88.875 88.6875 89.296875 88.882812 90.289062 C 94.382812 118.3125 102.34375 145.835938 109.636719 173.417969 C 119.839844 212.003906 128.660156 251.34375 142.023438 288.988281 C 142.359375 289.941406 143.886719 289.53125 143.542969 288.566406 C 130.179688 250.925781 121.363281 211.585938 111.160156 173 Z M 111.160156 173 " fill-opacity="1" fill-rule="nonzero"/><path fill="#000000" d="M 103.972656 119.398438 C 152.457031 109.425781 200.667969 99.085938 248.167969 85.027344 C 249.140625 84.738281 248.726562 83.21875 247.75 83.503906 C 200.253906 97.5625 152.039062 107.902344 103.554688 117.875 C 102.558594 118.078125 102.980469 119.601562 103.976562 119.398438 Z M 103.972656 119.398438 " fill-opacity="1" fill-rule="nonzero"/><path fill="#000000" d="M 113.917969 132.886719 C 114.332031 132.796875 114.742188 132.707031 115.15625 132.617188 C 115.128906 132.460938 115.109375 132.300781 115.082031 132.144531 C 114.871094 130.722656 112.820312 131.21875 112.789062 132.546875 C 113.046875 132.828125 113.433594 132.996094 113.917969 132.890625 Z M 113.917969 132.886719 " fill-opacity="1" fill-rule="nonzero"/><path fill="#000000" d="M 129.03125 147.949219 C 130.070312 147.730469 131.535156 147.757812 132.398438 147.050781 C 133.597656 146.074219 133.339844 145.128906 132.867188 143.832031 C 131.378906 139.746094 129.539062 136.082031 128.542969 131.792969 C 127.976562 129.335938 127.714844 128.5 125.0625 128.585938 C 121.152344 128.714844 117.082031 129.753906 113.285156 130.609375 C 112.28125 130.835938 112.246094 131.949219 112.789062 132.546875 C 112.816406 131.226562 114.871094 130.730469 115.082031 132.148438 C 115.105469 132.304688 115.128906 132.464844 115.15625 132.621094 C 117.019531 132.21875 118.886719 131.851562 120.769531 131.546875 C 122.648438 131.246094 124.953125 130.445312 126.257812 132.421875 C 126.6875 133.070312 126.730469 134.496094 126.941406 135.261719 C 127.480469 137.238281 128.15625 139.179688 128.953125 141.066406 C 129.320312 141.941406 129.867188 142.828125 130.15625 143.726562 C 130.648438 145.273438 131.058594 144.652344 129.761719 145.402344 C 128.238281 146.28125 125.421875 146.363281 123.707031 146.933594 C 121.507812 147.664062 119.324219 149.152344 117.757812 146.347656 C 116.792969 144.617188 116.707031 141.558594 116.339844 139.648438 C 115.898438 137.3125 115.511719 134.964844 115.160156 132.613281 C 114.746094 132.703125 114.332031 132.792969 113.921875 132.886719 C 113.441406 132.996094 113.050781 132.828125 112.789062 132.539062 C 112.789062 132.613281 112.789062 132.691406 112.800781 132.769531 C 113.402344 136.785156 114.105469 140.777344 114.972656 144.746094 C 115.375 146.589844 115.578125 149.671875 117.496094 150.734375 C 119.445312 151.8125 121.898438 150.078125 123.683594 149.441406 C 125.429688 148.816406 127.21875 148.328125 129.03125 147.945312 Z M 129.03125 147.949219 " fill-opacity="1" fill-rule="nonzero"/><path fill="#000000" d="M 134.625 215.835938 C 135.507812 217.925781 137.015625 217.554688 139.117188 217.332031 C 142.636719 216.957031 146.128906 216.417969 149.609375 215.761719 C 150.625 215.570312 150.65625 214.460938 150.109375 213.851562 C 150.207031 215.238281 148.070312 215.789062 147.8125 214.335938 C 147.78125 214.160156 147.75 213.945312 147.710938 213.710938 C 145.539062 214.101562 143.359375 214.453125 141.164062 214.726562 C 140.335938 214.832031 139.261719 215.128906 138.433594 215.035156 C 136.859375 214.851562 137.039062 215.207031 136.476562 213.410156 C 136.011719 211.929688 135.574219 210.457031 134.976562 209.019531 C 134.777344 208.542969 131.9375 203.667969 132.074219 203.429688 C 132.253906 203.109375 136.421875 202.804688 137.195312 202.628906 C 138.863281 202.238281 141.417969 200.75 143.074219 200.863281 C 146.324219 201.085938 147.214844 210.3125 147.710938 213.710938 C 148.132812 213.636719 148.558594 213.5625 148.976562 213.480469 C 149.457031 213.390625 149.84375 213.566406 150.109375 213.855469 C 150.105469 213.808594 150.109375 213.761719 150.097656 213.710938 C 149.425781 209.980469 148.648438 206.257812 147.632812 202.605469 C 147.171875 200.941406 146.742188 198.972656 144.894531 198.398438 C 142.753906 197.734375 139.933594 199.480469 137.898438 200.015625 C 135.921875 200.539062 131.265625 200.328125 129.949219 202.132812 C 129.039062 203.386719 130.058594 204.601562 130.699219 205.710938 C 132.570312 208.980469 133.199219 212.460938 134.628906 215.835938 Z M 134.625 215.835938 " fill-opacity="1" fill-rule="nonzero"/><path fill="#000000" d="M 148.980469 213.480469 C 148.558594 213.558594 148.136719 213.632812 147.714844 213.710938 C 147.75 213.953125 147.78125 214.164062 147.816406 214.339844 C 148.074219 215.789062 150.207031 215.242188 150.109375 213.855469 C 149.851562 213.566406 149.460938 213.390625 148.980469 213.480469 Z M 148.980469 213.480469 " fill-opacity="1" fill-rule="nonzero"/><path fill="#000000" d="M 124.273438 168.621094 C 124.523438 168.457031 124.78125 168.316406 125.042969 168.1875 L 124.792969 166.898438 C 124.691406 166.386719 124.355469 166.128906 123.96875 166.066406 C 123.671875 166.21875 123.371094 166.382812 123.078125 166.578125 C 121.8125 167.40625 122.996094 169.460938 124.273438 168.621094 Z M 124.273438 168.621094 " fill-opacity="1" fill-rule="nonzero"/><path fill="#000000" d="M 125.605469 181.804688 C 125.792969 182.179688 126.230469 182.375 126.628906 182.390625 C 129.195312 182.480469 132.023438 181.386719 134.503906 180.800781 C 136.664062 180.292969 139.804688 180.167969 141.683594 179.0625 C 142.648438 178.496094 142.824219 178.082031 142.839844 177.015625 C 142.871094 174.523438 141.445312 171.476562 140.824219 169.066406 C 140.101562 166.265625 140.269531 162.238281 136.71875 162.988281 C 135.320312 163.28125 134.03125 164.296875 132.558594 164.597656 C 131.246094 164.871094 129.890625 164.84375 128.5625 164.953125 C 126.902344 165.09375 125.40625 165.34375 123.96875 166.0625 C 124.355469 166.128906 124.691406 166.382812 124.792969 166.898438 L 125.042969 168.183594 C 128.15625 166.660156 132.042969 167.484375 135.332031 166.25 C 135.664062 166.128906 137.535156 165.109375 137.632812 165.15625 C 137.613281 165.148438 137.96875 167.464844 138.003906 167.613281 C 138.5625 170.148438 139.207031 172.761719 139.972656 175.25 C 140.5 176.949219 140.90625 176.488281 139.230469 177.257812 C 138.242188 177.707031 136.929688 177.796875 135.882812 178.042969 C 133.882812 178.515625 131.222656 179.6875 129.1875 179.621094 C 126.496094 179.53125 126.65625 176.386719 126.21875 174.164062 C 125.828125 172.167969 125.4375 170.175781 125.042969 168.179688 C 124.78125 168.308594 124.523438 168.453125 124.273438 168.617188 C 122.992188 169.457031 121.808594 167.402344 123.078125 166.570312 C 123.375 166.378906 123.671875 166.207031 123.96875 166.0625 C 123.234375 165.941406 122.316406 166.542969 122.507812 167.523438 C 123.382812 171.980469 123.585938 177.726562 125.605469 181.796875 Z M 125.605469 181.804688 " fill-opacity="1" fill-rule="nonzero"/><path fill="#000000" d="M 164.425781 266.664062 C 163.027344 266.960938 161.734375 267.972656 160.261719 268.277344 C 158.949219 268.546875 157.597656 268.519531 156.265625 268.628906 C 154.609375 268.769531 153.113281 269.019531 151.675781 269.738281 C 152.058594 269.804688 152.398438 270.0625 152.5 270.574219 L 152.75 271.859375 C 155.863281 270.335938 159.746094 271.160156 163.039062 269.925781 C 163.367188 269.804688 165.242188 268.785156 165.335938 268.832031 C 165.320312 268.824219 165.675781 271.140625 165.707031 271.289062 C 166.269531 273.828125 166.914062 276.441406 167.679688 278.925781 C 168.203125 280.625 168.613281 280.167969 166.933594 280.933594 C 165.949219 281.386719 164.636719 281.476562 163.589844 281.71875 C 161.589844 282.191406 158.925781 283.363281 156.894531 283.296875 C 154.203125 283.207031 154.363281 280.0625 153.921875 277.839844 C 153.53125 275.847656 153.144531 273.851562 152.75 271.855469 C 152.488281 271.984375 152.230469 272.128906 151.980469 272.292969 C 150.699219 273.132812 149.515625 271.078125 150.78125 270.246094 C 151.078125 270.054688 151.375 269.886719 151.671875 269.738281 C 150.9375 269.617188 150.019531 270.21875 150.210938 271.199219 C 151.085938 275.660156 151.289062 281.402344 153.308594 285.472656 C 153.492188 285.851562 153.933594 286.046875 154.332031 286.058594 C 156.898438 286.152344 159.726562 285.054688 162.207031 284.472656 C 164.367188 283.964844 167.507812 283.835938 169.386719 282.734375 C 170.347656 282.167969 170.527344 281.753906 170.542969 280.6875 C 170.574219 278.195312 169.148438 275.144531 168.527344 272.738281 C 167.804688 269.933594 167.972656 265.90625 164.421875 266.65625 Z M 164.425781 266.664062 " fill-opacity="1" fill-rule="nonzero"/><path fill="#000000" d="M 151.980469 272.296875 C 152.230469 272.128906 152.488281 271.988281 152.75 271.859375 L 152.5 270.574219 C 152.398438 270.0625 152.058594 269.804688 151.675781 269.738281 C 151.378906 269.890625 151.078125 270.058594 150.785156 270.25 C 149.515625 271.082031 150.703125 273.132812 151.980469 272.296875 Z M 151.980469 272.296875 " fill-opacity="1" fill-rule="nonzero"/><path fill="#000000" d="M 155.746094 230.90625 C 155.992188 231.195312 156.214844 231.492188 156.417969 231.800781 C 156.488281 231.054688 155.917969 230.246094 155.015625 230.519531 C 155.269531 230.527344 155.523438 230.644531 155.746094 230.90625 Z M 155.746094 230.90625 " fill-opacity="1" fill-rule="nonzero"/><path fill="#000000" d="M 160.707031 243.515625 C 158.609375 239.851562 158.707031 235.25 156.417969 231.804688 C 156.378906 232.234375 156.128906 232.644531 155.605469 232.816406 C 155.242188 232.9375 154.878906 233.054688 154.519531 233.171875 C 156.371094 235.925781 156.058594 239.808594 157.523438 242.789062 C 157.671875 243.089844 159.007812 245.109375 158.984375 245.167969 C 158.929688 245.320312 157.003906 245.847656 156.820312 245.917969 C 154.585938 246.757812 152.375 247.679688 150.15625 248.558594 C 149.792969 248.703125 147.789062 249.773438 147.488281 249.617188 C 147.375 249.554688 146.605469 246.621094 146.460938 246.230469 C 145.679688 244.128906 144.570312 241.964844 144.0625 239.785156 C 143.226562 236.179688 145.519531 236.140625 148.5 235.160156 C 150.507812 234.496094 152.515625 233.835938 154.519531 233.175781 C 154.382812 232.972656 154.238281 232.777344 154.078125 232.585938 C 153.523438 231.933594 153.8125 231.113281 154.351562 230.734375 C 150.144531 232.035156 144.769531 232.972656 141.183594 235.347656 C 140.851562 235.566406 140.558594 235.949219 140.597656 236.371094 C 140.847656 239.183594 142.402344 242.089844 143.378906 244.714844 C 144.0625 246.5625 144.558594 249.742188 145.851562 251.1875 C 146.632812 252.0625 147.054688 252.015625 148.121094 251.90625 C 150.863281 251.625 154.238281 249.480469 156.78125 248.472656 C 159.769531 247.285156 162.648438 246.910156 160.710938 243.523438 Z M 160.707031 243.515625 " fill-opacity="1" fill-rule="nonzero"/><path fill="#000000" d="M 154.074219 232.585938 C 154.234375 232.773438 154.382812 232.96875 154.519531 233.171875 C 154.878906 233.054688 155.242188 232.933594 155.605469 232.816406 C 156.128906 232.644531 156.378906 232.234375 156.417969 231.804688 C 156.214844 231.496094 155.992188 231.199219 155.746094 230.910156 C 155.523438 230.648438 155.269531 230.53125 155.015625 230.519531 C 155 230.523438 154.988281 230.527344 154.976562 230.53125 C 154.773438 230.597656 154.558594 230.664062 154.347656 230.730469 C 153.808594 231.109375 153.515625 231.933594 154.074219 232.585938 Z M 154.074219 232.585938 " fill-opacity="1" fill-rule="nonzero"/><path fill="#000000" d="M 155.015625 230.519531 C 154.78125 230.507812 154.546875 230.589844 154.347656 230.730469 C 154.558594 230.664062 154.769531 230.597656 154.976562 230.53125 C 154.988281 230.527344 155 230.527344 155.015625 230.519531 Z M 155.015625 230.519531 " fill-opacity="1" fill-rule="nonzero"/><g clip-path="url(#06093be8cb)"><path fill="#000000" d="M 311.207031 265.386719 C 312.714844 271.855469 312.441406 272.394531 306.335938 274.195312 C 296.121094 277.203125 285.8125 279.890625 275.527344 282.640625 C 228.753906 295.148438 181.882812 307.304688 135 319.398438 L 137.769531 325.90625 L 323.523438 276.257812 L 262.390625 49.394531 L 255.015625 52.429688 C 263.507812 84.621094 272.058594 116.804688 280.800781 148.929688 C 291.34375 187.648438 302.109375 226.289062 311.207031 265.382812 Z M 311.207031 265.386719 " fill-opacity="1" fill-rule="nonzero"/></g><path fill="#000000" d="M 310.824219 271.042969 C 310.824219 271.042969 155.160156 312.542969 150 313.878906 C 144.839844 315.214844 134.375 317.925781 134.375 317.925781 L 135 319.398438 C 181.882812 307.296875 228.75 295.140625 275.527344 282.636719 C 285.8125 279.886719 296.121094 277.203125 306.335938 274.191406 C 312.445312 272.390625 312.714844 271.855469 311.207031 265.382812 C 302.109375 226.289062 291.34375 187.648438 280.800781 148.929688 C 272.058594 116.800781 263.503906 84.621094 255.015625 52.429688 L 253.546875 53.035156 L 310.828125 271.039062 Z M 310.824219 271.042969 " fill-opacity="1" fill-rule="nonzero"/></svg>